<?xml version="1.0" encoding="utf-8" standalone="no"?>
<!DOCTYPE svg PUBLIC "-//W3C//DTD SVG 1.1//EN"
  "http://www.w3.org/Graphics/SVG/1.1/DTD/svg11.dtd">
<!-- Created with matplotlib (https://matplotlib.org/) -->
<svg height="480.96pt" version="1.1" viewBox="0 0 655.92 480.96" width="655.92pt" xmlns="http://www.w3.org/2000/svg" xmlns:xlink="http://www.w3.org/1999/xlink">
 <defs>
  <style type="text/css">
*{stroke-linecap:butt;stroke-linejoin:round;}
  </style>
 </defs>
 <g id="figure_1">
  <g id="patch_1">
   <path d="M 0 480.96 
L 655.92 480.96 
L 655.92 0 
L 0 0 
z
" style="fill:#ffffff;"/>
  </g>
  <g id="axes_1">
   <g id="patch_2">
    <path d="M 65.574919 190.0961 
L 319.770106 190.0961 
L 319.770106 32.7988 
L 65.574919 32.7988 
z
" style="fill:#ffffff;"/>
   </g>
   <g id="matplotlib.axis_1">
    <g id="xtick_1">
     <g id="line2d_1">
      <path clip-path="url(#p99d239984f)" d="M 77.129245 190.0961 
L 77.129245 32.7988 
" style="fill:none;stroke:#cccccc;stroke-linecap:round;stroke-width:0.8;"/>
     </g>
     <g id="text_1">
      <!-- 0 -->
      <defs>
       <path d="M 31.78125 66.40625 
Q 24.171875 66.40625 20.328125 58.90625 
Q 16.5 51.421875 16.5 36.375 
Q 16.5 21.390625 20.328125 13.890625 
Q 24.171875 6.390625 31.78125 6.390625 
Q 39.453125 6.390625 43.28125 13.890625 
Q 47.125 21.390625 47.125 36.375 
Q 47.125 51.421875 43.28125 58.90625 
Q 39.453125 66.40625 31.78125 66.40625 
z
M 31.78125 74.21875 
Q 44.046875 74.21875 50.515625 64.515625 
Q 56.984375 54.828125 56.984375 36.375 
Q 56.984375 17.96875 50.515625 8.265625 
Q 44.046875 -1.421875 31.78125 -1.421875 
Q 19.53125 -1.421875 13.0625 8.265625 
Q 6.59375 17.96875 6.59375 36.375 
Q 6.59375 54.828125 13.0625 64.515625 
Q 19.53125 74.21875 31.78125 74.21875 
z
" id="DejaVuSans-48"/>
      </defs>
      <g style="fill:#262626;" transform="translate(74.329745 205.082725)scale(0.088 -0.088)">
       <use xlink:href="#DejaVuSans-48"/>
      </g>
     </g>
    </g>
    <g id="xtick_2">
     <g id="line2d_2">
      <path clip-path="url(#p99d239984f)" d="M 106.015062 190.0961 
L 106.015062 32.7988 
" style="fill:none;stroke:#cccccc;stroke-linecap:round;stroke-width:0.8;"/>
     </g>
     <g id="text_2">
      <!-- 1 -->
      <defs>
       <path d="M 12.40625 8.296875 
L 28.515625 8.296875 
L 28.515625 63.921875 
L 10.984375 60.40625 
L 10.984375 69.390625 
L 28.421875 72.90625 
L 38.28125 72.90625 
L 38.28125 8.296875 
L 54.390625 8.296875 
L 54.390625 0 
L 12.40625 0 
z
" id="DejaVuSans-49"/>
      </defs>
      <g style="fill:#262626;" transform="translate(103.215562 205.082725)scale(0.088 -0.088)">
       <use xlink:href="#DejaVuSans-49"/>
      </g>
     </g>
    </g>
    <g id="xtick_3">
     <g id="line2d_3">
      <path clip-path="url(#p99d239984f)" d="M 134.900879 190.0961 
L 134.900879 32.7988 
" style="fill:none;stroke:#cccccc;stroke-linecap:round;stroke-width:0.8;"/>
     </g>
     <g id="text_3">
      <!-- 2 -->
      <defs>
       <path d="M 19.1875 8.296875 
L 53.609375 8.296875 
L 53.609375 0 
L 7.328125 0 
L 7.328125 8.296875 
Q 12.9375 14.109375 22.625 23.890625 
Q 32.328125 33.6875 34.8125 36.53125 
Q 39.546875 41.84375 41.421875 45.53125 
Q 43.3125 49.21875 43.3125 52.78125 
Q 43.3125 58.59375 39.234375 62.25 
Q 35.15625 65.921875 28.609375 65.921875 
Q 23.96875 65.921875 18.8125 64.3125 
Q 13.671875 62.703125 7.8125 59.421875 
L 7.8125 69.390625 
Q 13.765625 71.78125 18.9375 73 
Q 24.125 74.21875 28.421875 74.21875 
Q 39.75 74.21875 46.484375 68.546875 
Q 53.21875 62.890625 53.21875 53.421875 
Q 53.21875 48.921875 51.53125 44.890625 
Q 49.859375 40.875 45.40625 35.40625 
Q 44.1875 33.984375 37.640625 27.21875 
Q 31.109375 20.453125 19.1875 8.296875 
z
" id="DejaVuSans-50"/>
      </defs>
      <g style="fill:#262626;" transform="translate(132.101379 205.082725)scale(0.088 -0.088)">
       <use xlink:href="#DejaVuSans-50"/>
      </g>
     </g>
    </g>
    <g id="xtick_4">
     <g id="line2d_4">
      <path clip-path="url(#p99d239984f)" d="M 163.786696 190.0961 
L 163.786696 32.7988 
" style="fill:none;stroke:#cccccc;stroke-linecap:round;stroke-width:0.8;"/>
     </g>
     <g id="text_4">
      <!-- 3 -->
      <defs>
       <path d="M 40.578125 39.3125 
Q 47.65625 37.796875 51.625 33 
Q 55.609375 28.21875 55.609375 21.1875 
Q 55.609375 10.40625 48.1875 4.484375 
Q 40.765625 -1.421875 27.09375 -1.421875 
Q 22.515625 -1.421875 17.65625 -0.515625 
Q 12.796875 0.390625 7.625 2.203125 
L 7.625 11.71875 
Q 11.71875 9.328125 16.59375 8.109375 
Q 21.484375 6.890625 26.8125 6.890625 
Q 36.078125 6.890625 40.9375 10.546875 
Q 45.796875 14.203125 45.796875 21.1875 
Q 45.796875 27.640625 41.28125 31.265625 
Q 36.765625 34.90625 28.71875 34.90625 
L 20.21875 34.90625 
L 20.21875 43.015625 
L 29.109375 43.015625 
Q 36.375 43.015625 40.234375 45.921875 
Q 44.09375 48.828125 44.09375 54.296875 
Q 44.09375 59.90625 40.109375 62.90625 
Q 36.140625 65.921875 28.71875 65.921875 
Q 24.65625 65.921875 20.015625 65.03125 
Q 15.375 64.15625 9.8125 62.3125 
L 9.8125 71.09375 
Q 15.4375 72.65625 20.34375 73.4375 
Q 25.25 74.21875 29.59375 74.21875 
Q 40.828125 74.21875 47.359375 69.109375 
Q 53.90625 64.015625 53.90625 55.328125 
Q 53.90625 49.265625 50.4375 45.09375 
Q 46.96875 40.921875 40.578125 39.3125 
z
" id="DejaVuSans-51"/>
      </defs>
      <g style="fill:#262626;" transform="translate(160.987196 205.082725)scale(0.088 -0.088)">
       <use xlink:href="#DejaVuSans-51"/>
      </g>
     </g>
    </g>
    <g id="xtick_5">
     <g id="line2d_5">
      <path clip-path="url(#p99d239984f)" d="M 192.672512 190.0961 
L 192.672512 32.7988 
" style="fill:none;stroke:#cccccc;stroke-linecap:round;stroke-width:0.8;"/>
     </g>
     <g id="text_5">
      <!-- 4 -->
      <defs>
       <path d="M 37.796875 64.3125 
L 12.890625 25.390625 
L 37.796875 25.390625 
z
M 35.203125 72.90625 
L 47.609375 72.90625 
L 47.609375 25.390625 
L 58.015625 25.390625 
L 58.015625 17.1875 
L 47.609375 17.1875 
L 47.609375 0 
L 37.796875 0 
L 37.796875 17.1875 
L 4.890625 17.1875 
L 4.890625 26.703125 
z
" id="DejaVuSans-52"/>
      </defs>
      <g style="fill:#262626;" transform="translate(189.873012 205.082725)scale(0.088 -0.088)">
       <use xlink:href="#DejaVuSans-52"/>
      </g>
     </g>
    </g>
    <g id="xtick_6">
     <g id="line2d_6">
      <path clip-path="url(#p99d239984f)" d="M 221.558329 190.0961 
L 221.558329 32.7988 
" style="fill:none;stroke:#cccccc;stroke-linecap:round;stroke-width:0.8;"/>
     </g>
     <g id="text_6">
      <!-- 5 -->
      <defs>
       <path d="M 10.796875 72.90625 
L 49.515625 72.90625 
L 49.515625 64.59375 
L 19.828125 64.59375 
L 19.828125 46.734375 
Q 21.96875 47.46875 24.109375 47.828125 
Q 26.265625 48.1875 28.421875 48.1875 
Q 40.625 48.1875 47.75 41.5 
Q 54.890625 34.8125 54.890625 23.390625 
Q 54.890625 11.625 47.5625 5.09375 
Q 40.234375 -1.421875 26.90625 -1.421875 
Q 22.3125 -1.421875 17.546875 -0.640625 
Q 12.796875 0.140625 7.71875 1.703125 
L 7.71875 11.625 
Q 12.109375 9.234375 16.796875 8.0625 
Q 21.484375 6.890625 26.703125 6.890625 
Q 35.15625 6.890625 40.078125 11.328125 
Q 45.015625 15.765625 45.015625 23.390625 
Q 45.015625 31 40.078125 35.4375 
Q 35.15625 39.890625 26.703125 39.890625 
Q 22.75 39.890625 18.8125 39.015625 
Q 14.890625 38.140625 10.796875 36.28125 
z
" id="DejaVuSans-53"/>
      </defs>
      <g style="fill:#262626;" transform="translate(218.758829 205.082725)scale(0.088 -0.088)">
       <use xlink:href="#DejaVuSans-53"/>
      </g>
     </g>
    </g>
    <g id="xtick_7">
     <g id="line2d_7">
      <path clip-path="url(#p99d239984f)" d="M 250.444146 190.0961 
L 250.444146 32.7988 
" style="fill:none;stroke:#cccccc;stroke-linecap:round;stroke-width:0.8;"/>
     </g>
     <g id="text_7">
      <!-- 6 -->
      <defs>
       <path d="M 33.015625 40.375 
Q 26.375 40.375 22.484375 35.828125 
Q 18.609375 31.296875 18.609375 23.390625 
Q 18.609375 15.53125 22.484375 10.953125 
Q 26.375 6.390625 33.015625 6.390625 
Q 39.65625 6.390625 43.53125 10.953125 
Q 47.40625 15.53125 47.40625 23.390625 
Q 47.40625 31.296875 43.53125 35.828125 
Q 39.65625 40.375 33.015625 40.375 
z
M 52.59375 71.296875 
L 52.59375 62.3125 
Q 48.875 64.0625 45.09375 64.984375 
Q 41.3125 65.921875 37.59375 65.921875 
Q 27.828125 65.921875 22.671875 59.328125 
Q 17.53125 52.734375 16.796875 39.40625 
Q 19.671875 43.65625 24.015625 45.921875 
Q 28.375 48.1875 33.59375 48.1875 
Q 44.578125 48.1875 50.953125 41.515625 
Q 57.328125 34.859375 57.328125 23.390625 
Q 57.328125 12.15625 50.6875 5.359375 
Q 44.046875 -1.421875 33.015625 -1.421875 
Q 20.359375 -1.421875 13.671875 8.265625 
Q 6.984375 17.96875 6.984375 36.375 
Q 6.984375 53.65625 15.1875 63.9375 
Q 23.390625 74.21875 37.203125 74.21875 
Q 40.921875 74.21875 44.703125 73.484375 
Q 48.484375 72.75 52.59375 71.296875 
z
" id="DejaVuSans-54"/>
      </defs>
      <g style="fill:#262626;" transform="translate(247.644646 205.082725)scale(0.088 -0.088)">
       <use xlink:href="#DejaVuSans-54"/>
      </g>
     </g>
    </g>
    <g id="xtick_8">
     <g id="line2d_8">
      <path clip-path="url(#p99d239984f)" d="M 279.329963 190.0961 
L 279.329963 32.7988 
" style="fill:none;stroke:#cccccc;stroke-linecap:round;stroke-width:0.8;"/>
     </g>
     <g id="text_8">
      <!-- 7 -->
      <defs>
       <path d="M 8.203125 72.90625 
L 55.078125 72.90625 
L 55.078125 68.703125 
L 28.609375 0 
L 18.3125 0 
L 43.21875 64.59375 
L 8.203125 64.59375 
z
" id="DejaVuSans-55"/>
      </defs>
      <g style="fill:#262626;" transform="translate(276.530463 205.082725)scale(0.088 -0.088)">
       <use xlink:href="#DejaVuSans-55"/>
      </g>
     </g>
    </g>
    <g id="xtick_9">
     <g id="line2d_9">
      <path clip-path="url(#p99d239984f)" d="M 308.215779 190.0961 
L 308.215779 32.7988 
" style="fill:none;stroke:#cccccc;stroke-linecap:round;stroke-width:0.8;"/>
     </g>
     <g id="text_9">
      <!-- 8 -->
      <defs>
       <path d="M 31.78125 34.625 
Q 24.75 34.625 20.71875 30.859375 
Q 16.703125 27.09375 16.703125 20.515625 
Q 16.703125 13.921875 20.71875 10.15625 
Q 24.75 6.390625 31.78125 6.390625 
Q 38.8125 6.390625 42.859375 10.171875 
Q 46.921875 13.96875 46.921875 20.515625 
Q 46.921875 27.09375 42.890625 30.859375 
Q 38.875 34.625 31.78125 34.625 
z
M 21.921875 38.8125 
Q 15.578125 40.375 12.03125 44.71875 
Q 8.5 49.078125 8.5 55.328125 
Q 8.5 64.0625 14.71875 69.140625 
Q 20.953125 74.21875 31.78125 74.21875 
Q 42.671875 74.21875 48.875 69.140625 
Q 55.078125 64.0625 55.078125 55.328125 
Q 55.078125 49.078125 51.53125 44.71875 
Q 48 40.375 41.703125 38.8125 
Q 48.828125 37.15625 52.796875 32.3125 
Q 56.78125 27.484375 56.78125 20.515625 
Q 56.78125 9.90625 50.3125 4.234375 
Q 43.84375 -1.421875 31.78125 -1.421875 
Q 19.734375 -1.421875 13.25 4.234375 
Q 6.78125 9.90625 6.78125 20.515625 
Q 6.78125 27.484375 10.78125 32.3125 
Q 14.796875 37.15625 21.921875 38.8125 
z
M 18.3125 54.390625 
Q 18.3125 48.734375 21.84375 45.5625 
Q 25.390625 42.390625 31.78125 42.390625 
Q 38.140625 42.390625 41.71875 45.5625 
Q 45.3125 48.734375 45.3125 54.390625 
Q 45.3125 60.0625 41.71875 63.234375 
Q 38.140625 66.40625 31.78125 66.40625 
Q 25.390625 66.40625 21.84375 63.234375 
Q 18.3125 60.0625 18.3125 54.390625 
z
" id="DejaVuSans-56"/>
      </defs>
      <g style="fill:#262626;" transform="translate(305.416279 205.082725)scale(0.088 -0.088)">
       <use xlink:href="#DejaVuSans-56"/>
      </g>
     </g>
    </g>
    <g id="text_10">
     <!-- Iteration Step -->
     <defs>
      <path d="M 9.8125 72.90625 
L 19.671875 72.90625 
L 19.671875 0 
L 9.8125 0 
z
" id="DejaVuSans-73"/>
      <path d="M 18.3125 70.21875 
L 18.3125 54.6875 
L 36.8125 54.6875 
L 36.8125 47.703125 
L 18.3125 47.703125 
L 18.3125 18.015625 
Q 18.3125 11.328125 20.140625 9.421875 
Q 21.96875 7.515625 27.59375 7.515625 
L 36.8125 7.515625 
L 36.8125 0 
L 27.59375 0 
Q 17.1875 0 13.234375 3.875 
Q 9.28125 7.765625 9.28125 18.015625 
L 9.28125 47.703125 
L 2.6875 47.703125 
L 2.6875 54.6875 
L 9.28125 54.6875 
L 9.28125 70.21875 
z
" id="DejaVuSans-116"/>
      <path d="M 56.203125 29.59375 
L 56.203125 25.203125 
L 14.890625 25.203125 
Q 15.484375 15.921875 20.484375 11.0625 
Q 25.484375 6.203125 34.421875 6.203125 
Q 39.59375 6.203125 44.453125 7.46875 
Q 49.3125 8.734375 54.109375 11.28125 
L 54.109375 2.78125 
Q 49.265625 0.734375 44.1875 -0.34375 
Q 39.109375 -1.421875 33.890625 -1.421875 
Q 20.796875 -1.421875 13.15625 6.1875 
Q 5.515625 13.8125 5.515625 26.8125 
Q 5.515625 40.234375 12.765625 48.109375 
Q 20.015625 56 32.328125 56 
Q 43.359375 56 49.78125 48.890625 
Q 56.203125 41.796875 56.203125 29.59375 
z
M 47.21875 32.234375 
Q 47.125 39.59375 43.09375 43.984375 
Q 39.0625 48.390625 32.421875 48.390625 
Q 24.90625 48.390625 20.390625 44.140625 
Q 15.875 39.890625 15.1875 32.171875 
z
" id="DejaVuSans-101"/>
      <path d="M 41.109375 46.296875 
Q 39.59375 47.171875 37.8125 47.578125 
Q 36.03125 48 33.890625 48 
Q 26.265625 48 22.1875 43.046875 
Q 18.109375 38.09375 18.109375 28.8125 
L 18.109375 0 
L 9.078125 0 
L 9.078125 54.6875 
L 18.109375 54.6875 
L 18.109375 46.1875 
Q 20.953125 51.171875 25.484375 53.578125 
Q 30.03125 56 36.53125 56 
Q 37.453125 56 38.578125 55.875 
Q 39.703125 55.765625 41.0625 55.515625 
z
" id="DejaVuSans-114"/>
      <path d="M 34.28125 27.484375 
Q 23.390625 27.484375 19.1875 25 
Q 14.984375 22.515625 14.984375 16.5 
Q 14.984375 11.71875 18.140625 8.90625 
Q 21.296875 6.109375 26.703125 6.109375 
Q 34.1875 6.109375 38.703125 11.40625 
Q 43.21875 16.703125 43.21875 25.484375 
L 43.21875 27.484375 
z
M 52.203125 31.203125 
L 52.203125 0 
L 43.21875 0 
L 43.21875 8.296875 
Q 40.140625 3.328125 35.546875 0.953125 
Q 30.953125 -1.421875 24.3125 -1.421875 
Q 15.921875 -1.421875 10.953125 3.296875 
Q 6 8.015625 6 15.921875 
Q 6 25.140625 12.171875 29.828125 
Q 18.359375 34.515625 30.609375 34.515625 
L 43.21875 34.515625 
L 43.21875 35.40625 
Q 43.21875 41.609375 39.140625 45 
Q 35.0625 48.390625 27.6875 48.390625 
Q 23 48.390625 18.546875 47.265625 
Q 14.109375 46.140625 10.015625 43.890625 
L 10.015625 52.203125 
Q 14.9375 54.109375 19.578125 55.046875 
Q 24.21875 56 28.609375 56 
Q 40.484375 56 46.34375 49.84375 
Q 52.203125 43.703125 52.203125 31.203125 
z
" id="DejaVuSans-97"/>
      <path d="M 9.421875 54.6875 
L 18.40625 54.6875 
L 18.40625 0 
L 9.421875 0 
z
M 9.421875 75.984375 
L 18.40625 75.984375 
L 18.40625 64.59375 
L 9.421875 64.59375 
z
" id="DejaVuSans-105"/>
      <path d="M 30.609375 48.390625 
Q 23.390625 48.390625 19.1875 42.75 
Q 14.984375 37.109375 14.984375 27.296875 
Q 14.984375 17.484375 19.15625 11.84375 
Q 23.34375 6.203125 30.609375 6.203125 
Q 37.796875 6.203125 41.984375 11.859375 
Q 46.1875 17.53125 46.1875 27.296875 
Q 46.1875 37.015625 41.984375 42.703125 
Q 37.796875 48.390625 30.609375 48.390625 
z
M 30.609375 56 
Q 42.328125 56 49.015625 48.375 
Q 55.71875 40.765625 55.71875 27.296875 
Q 55.71875 13.875 49.015625 6.21875 
Q 42.328125 -1.421875 30.609375 -1.421875 
Q 18.84375 -1.421875 12.171875 6.21875 
Q 5.515625 13.875 5.515625 27.296875 
Q 5.515625 40.765625 12.171875 48.375 
Q 18.84375 56 30.609375 56 
z
" id="DejaVuSans-111"/>
      <path d="M 54.890625 33.015625 
L 54.890625 0 
L 45.90625 0 
L 45.90625 32.71875 
Q 45.90625 40.484375 42.875 44.328125 
Q 39.84375 48.1875 33.796875 48.1875 
Q 26.515625 48.1875 22.3125 43.546875 
Q 18.109375 38.921875 18.109375 30.90625 
L 18.109375 0 
L 9.078125 0 
L 9.078125 54.6875 
L 18.109375 54.6875 
L 18.109375 46.1875 
Q 21.34375 51.125 25.703125 53.5625 
Q 30.078125 56 35.796875 56 
Q 45.21875 56 50.046875 50.171875 
Q 54.890625 44.34375 54.890625 33.015625 
z
" id="DejaVuSans-110"/>
      <path id="DejaVuSans-32"/>
      <path d="M 53.515625 70.515625 
L 53.515625 60.890625 
Q 47.90625 63.578125 42.921875 64.890625 
Q 37.9375 66.21875 33.296875 66.21875 
Q 25.25 66.21875 20.875 63.09375 
Q 16.5 59.96875 16.5 54.203125 
Q 16.5 49.359375 19.40625 46.890625 
Q 22.3125 44.4375 30.421875 42.921875 
L 36.375 41.703125 
Q 47.40625 39.59375 52.65625 34.296875 
Q 57.90625 29 57.90625 20.125 
Q 57.90625 9.515625 50.796875 4.046875 
Q 43.703125 -1.421875 29.984375 -1.421875 
Q 24.8125 -1.421875 18.96875 -0.25 
Q 13.140625 0.921875 6.890625 3.21875 
L 6.890625 13.375 
Q 12.890625 10.015625 18.65625 8.296875 
Q 24.421875 6.59375 29.984375 6.59375 
Q 38.421875 6.59375 43.015625 9.90625 
Q 47.609375 13.234375 47.609375 19.390625 
Q 47.609375 24.75 44.3125 27.78125 
Q 41.015625 30.8125 33.5 32.328125 
L 27.484375 33.5 
Q 16.453125 35.6875 11.515625 40.375 
Q 6.59375 45.0625 6.59375 53.421875 
Q 6.59375 63.09375 13.40625 68.65625 
Q 20.21875 74.21875 32.171875 74.21875 
Q 37.3125 74.21875 42.625 73.28125 
Q 47.953125 72.359375 53.515625 70.515625 
z
" id="DejaVuSans-83"/>
      <path d="M 18.109375 8.203125 
L 18.109375 -20.796875 
L 9.078125 -20.796875 
L 9.078125 54.6875 
L 18.109375 54.6875 
L 18.109375 46.390625 
Q 20.953125 51.265625 25.265625 53.625 
Q 29.59375 56 35.59375 56 
Q 45.5625 56 51.78125 48.09375 
Q 58.015625 40.1875 58.015625 27.296875 
Q 58.015625 14.40625 51.78125 6.484375 
Q 45.5625 -1.421875 35.59375 -1.421875 
Q 29.59375 -1.421875 25.265625 0.953125 
Q 20.953125 3.328125 18.109375 8.203125 
z
M 48.6875 27.296875 
Q 48.6875 37.203125 44.609375 42.84375 
Q 40.53125 48.484375 33.40625 48.484375 
Q 26.265625 48.484375 22.1875 42.84375 
Q 18.109375 37.203125 18.109375 27.296875 
Q 18.109375 17.390625 22.1875 11.75 
Q 26.265625 6.109375 33.40625 6.109375 
Q 40.53125 6.109375 44.609375 11.75 
Q 48.6875 17.390625 48.6875 27.296875 
z
" id="DejaVuSans-112"/>
     </defs>
     <g style="fill:#262626;" transform="translate(159.857012 218.20735)scale(0.096 -0.096)">
      <use xlink:href="#DejaVuSans-73"/>
      <use x="29.492188" xlink:href="#DejaVuSans-116"/>
      <use x="68.701172" xlink:href="#DejaVuSans-101"/>
      <use x="130.224609" xlink:href="#DejaVuSans-114"/>
      <use x="171.337891" xlink:href="#DejaVuSans-97"/>
      <use x="232.617188" xlink:href="#DejaVuSans-116"/>
      <use x="271.826172" xlink:href="#DejaVuSans-105"/>
      <use x="299.609375" xlink:href="#DejaVuSans-111"/>
      <use x="360.791016" xlink:href="#DejaVuSans-110"/>
      <use x="424.169922" xlink:href="#DejaVuSans-32"/>
      <use x="455.957031" xlink:href="#DejaVuSans-83"/>
      <use x="519.433594" xlink:href="#DejaVuSans-116"/>
      <use x="558.642578" xlink:href="#DejaVuSans-101"/>
      <use x="620.166016" xlink:href="#DejaVuSans-112"/>
     </g>
    </g>
   </g>
   <g id="matplotlib.axis_2">
    <g id="ytick_1">
     <g id="line2d_10">
      <path clip-path="url(#p99d239984f)" d="M 65.574919 180.424903 
L 319.770106 180.424903 
" style="fill:none;stroke:#cccccc;stroke-linecap:round;stroke-width:0.8;"/>
     </g>
     <g id="text_11">
      <!-- 0.75 -->
      <defs>
       <path d="M 10.6875 12.40625 
L 21 12.40625 
L 21 0 
L 10.6875 0 
z
" id="DejaVuSans-46"/>
      </defs>
      <g style="fill:#262626;" transform="translate(37.681169 183.768216)scale(0.088 -0.088)">
       <use xlink:href="#DejaVuSans-48"/>
       <use x="63.623047" xlink:href="#DejaVuSans-46"/>
       <use x="95.410156" xlink:href="#DejaVuSans-55"/>
       <use x="159.033203" xlink:href="#DejaVuSans-53"/>
      </g>
     </g>
    </g>
    <g id="ytick_2">
     <g id="line2d_11">
      <path clip-path="url(#p99d239984f)" d="M 65.574919 158.217128 
L 319.770106 158.217128 
" style="fill:none;stroke:#cccccc;stroke-linecap:round;stroke-width:0.8;"/>
     </g>
     <g id="text_12">
      <!-- 1.00 -->
      <g style="fill:#262626;" transform="translate(37.681169 161.56044)scale(0.088 -0.088)">
       <use xlink:href="#DejaVuSans-49"/>
       <use x="63.623047" xlink:href="#DejaVuSans-46"/>
       <use x="95.410156" xlink:href="#DejaVuSans-48"/>
       <use x="159.033203" xlink:href="#DejaVuSans-48"/>
      </g>
     </g>
    </g>
    <g id="ytick_3">
     <g id="line2d_12">
      <path clip-path="url(#p99d239984f)" d="M 65.574919 136.009352 
L 319.770106 136.009352 
" style="fill:none;stroke:#cccccc;stroke-linecap:round;stroke-width:0.8;"/>
     </g>
     <g id="text_13">
      <!-- 1.25 -->
      <g style="fill:#262626;" transform="translate(37.681169 139.352664)scale(0.088 -0.088)">
       <use xlink:href="#DejaVuSans-49"/>
       <use x="63.623047" xlink:href="#DejaVuSans-46"/>
       <use x="95.410156" xlink:href="#DejaVuSans-50"/>
       <use x="159.033203" xlink:href="#DejaVuSans-53"/>
      </g>
     </g>
    </g>
    <g id="ytick_4">
     <g id="line2d_13">
      <path clip-path="url(#p99d239984f)" d="M 65.574919 113.801576 
L 319.770106 113.801576 
" style="fill:none;stroke:#cccccc;stroke-linecap:round;stroke-width:0.8;"/>
     </g>
     <g id="text_14">
      <!-- 1.50 -->
      <g style="fill:#262626;" transform="translate(37.681169 117.144888)scale(0.088 -0.088)">
       <use xlink:href="#DejaVuSans-49"/>
       <use x="63.623047" xlink:href="#DejaVuSans-46"/>
       <use x="95.410156" xlink:href="#DejaVuSans-53"/>
       <use x="159.033203" xlink:href="#DejaVuSans-48"/>
      </g>
     </g>
    </g>
    <g id="ytick_5">
     <g id="line2d_14">
      <path clip-path="url(#p99d239984f)" d="M 65.574919 91.5938 
L 319.770106 91.5938 
" style="fill:none;stroke:#cccccc;stroke-linecap:round;stroke-width:0.8;"/>
     </g>
     <g id="text_15">
      <!-- 1.75 -->
      <g style="fill:#262626;" transform="translate(37.681169 94.937113)scale(0.088 -0.088)">
       <use xlink:href="#DejaVuSans-49"/>
       <use x="63.623047" xlink:href="#DejaVuSans-46"/>
       <use x="95.410156" xlink:href="#DejaVuSans-55"/>
       <use x="159.033203" xlink:href="#DejaVuSans-53"/>
      </g>
     </g>
    </g>
    <g id="ytick_6">
     <g id="line2d_15">
      <path clip-path="url(#p99d239984f)" d="M 65.574919 69.386024 
L 319.770106 69.386024 
" style="fill:none;stroke:#cccccc;stroke-linecap:round;stroke-width:0.8;"/>
     </g>
     <g id="text_16">
      <!-- 2.00 -->
      <g style="fill:#262626;" transform="translate(37.681169 72.729337)scale(0.088 -0.088)">
       <use xlink:href="#DejaVuSans-50"/>
       <use x="63.623047" xlink:href="#DejaVuSans-46"/>
       <use x="95.410156" xlink:href="#DejaVuSans-48"/>
       <use x="159.033203" xlink:href="#DejaVuSans-48"/>
      </g>
     </g>
    </g>
    <g id="ytick_7">
     <g id="line2d_16">
      <path clip-path="url(#p99d239984f)" d="M 65.574919 47.178248 
L 319.770106 47.178248 
" style="fill:none;stroke:#cccccc;stroke-linecap:round;stroke-width:0.8;"/>
     </g>
     <g id="text_17">
      <!-- 2.25 -->
      <g style="fill:#262626;" transform="translate(37.681169 50.521561)scale(0.088 -0.088)">
       <use xlink:href="#DejaVuSans-50"/>
       <use x="63.623047" xlink:href="#DejaVuSans-46"/>
       <use x="95.410156" xlink:href="#DejaVuSans-50"/>
       <use x="159.033203" xlink:href="#DejaVuSans-53"/>
      </g>
     </g>
    </g>
    <g id="text_18">
     <!-- Cost function (a.u.) -->
     <defs>
      <path d="M 64.40625 67.28125 
L 64.40625 56.890625 
Q 59.421875 61.53125 53.78125 63.8125 
Q 48.140625 66.109375 41.796875 66.109375 
Q 29.296875 66.109375 22.65625 58.46875 
Q 16.015625 50.828125 16.015625 36.375 
Q 16.015625 21.96875 22.65625 14.328125 
Q 29.296875 6.6875 41.796875 6.6875 
Q 48.140625 6.6875 53.78125 8.984375 
Q 59.421875 11.28125 64.40625 15.921875 
L 64.40625 5.609375 
Q 59.234375 2.09375 53.4375 0.328125 
Q 47.65625 -1.421875 41.21875 -1.421875 
Q 24.65625 -1.421875 15.125 8.703125 
Q 5.609375 18.84375 5.609375 36.375 
Q 5.609375 53.953125 15.125 64.078125 
Q 24.65625 74.21875 41.21875 74.21875 
Q 47.75 74.21875 53.53125 72.484375 
Q 59.328125 70.75 64.40625 67.28125 
z
" id="DejaVuSans-67"/>
      <path d="M 44.28125 53.078125 
L 44.28125 44.578125 
Q 40.484375 46.53125 36.375 47.5 
Q 32.28125 48.484375 27.875 48.484375 
Q 21.1875 48.484375 17.84375 46.4375 
Q 14.5 44.390625 14.5 40.28125 
Q 14.5 37.15625 16.890625 35.375 
Q 19.28125 33.59375 26.515625 31.984375 
L 29.59375 31.296875 
Q 39.15625 29.25 43.1875 25.515625 
Q 47.21875 21.78125 47.21875 15.09375 
Q 47.21875 7.46875 41.1875 3.015625 
Q 35.15625 -1.421875 24.609375 -1.421875 
Q 20.21875 -1.421875 15.453125 -0.5625 
Q 10.6875 0.296875 5.421875 2 
L 5.421875 11.28125 
Q 10.40625 8.6875 15.234375 7.390625 
Q 20.0625 6.109375 24.8125 6.109375 
Q 31.15625 6.109375 34.5625 8.28125 
Q 37.984375 10.453125 37.984375 14.40625 
Q 37.984375 18.0625 35.515625 20.015625 
Q 33.0625 21.96875 24.703125 23.78125 
L 21.578125 24.515625 
Q 13.234375 26.265625 9.515625 29.90625 
Q 5.8125 33.546875 5.8125 39.890625 
Q 5.8125 47.609375 11.28125 51.796875 
Q 16.75 56 26.8125 56 
Q 31.78125 56 36.171875 55.265625 
Q 40.578125 54.546875 44.28125 53.078125 
z
" id="DejaVuSans-115"/>
      <path d="M 37.109375 75.984375 
L 37.109375 68.5 
L 28.515625 68.5 
Q 23.6875 68.5 21.796875 66.546875 
Q 19.921875 64.59375 19.921875 59.515625 
L 19.921875 54.6875 
L 34.71875 54.6875 
L 34.71875 47.703125 
L 19.921875 47.703125 
L 19.921875 0 
L 10.890625 0 
L 10.890625 47.703125 
L 2.296875 47.703125 
L 2.296875 54.6875 
L 10.890625 54.6875 
L 10.890625 58.5 
Q 10.890625 67.625 15.140625 71.796875 
Q 19.390625 75.984375 28.609375 75.984375 
z
" id="DejaVuSans-102"/>
      <path d="M 8.5 21.578125 
L 8.5 54.6875 
L 17.484375 54.6875 
L 17.484375 21.921875 
Q 17.484375 14.15625 20.5 10.265625 
Q 23.53125 6.390625 29.59375 6.390625 
Q 36.859375 6.390625 41.078125 11.03125 
Q 45.3125 15.671875 45.3125 23.6875 
L 45.3125 54.6875 
L 54.296875 54.6875 
L 54.296875 0 
L 45.3125 0 
L 45.3125 8.40625 
Q 42.046875 3.421875 37.71875 1 
Q 33.40625 -1.421875 27.6875 -1.421875 
Q 18.265625 -1.421875 13.375 4.4375 
Q 8.5 10.296875 8.5 21.578125 
z
M 31.109375 56 
z
" id="DejaVuSans-117"/>
      <path d="M 48.78125 52.59375 
L 48.78125 44.1875 
Q 44.96875 46.296875 41.140625 47.34375 
Q 37.3125 48.390625 33.40625 48.390625 
Q 24.65625 48.390625 19.8125 42.84375 
Q 14.984375 37.3125 14.984375 27.296875 
Q 14.984375 17.28125 19.8125 11.734375 
Q 24.65625 6.203125 33.40625 6.203125 
Q 37.3125 6.203125 41.140625 7.25 
Q 44.96875 8.296875 48.78125 10.40625 
L 48.78125 2.09375 
Q 45.015625 0.34375 40.984375 -0.53125 
Q 36.96875 -1.421875 32.421875 -1.421875 
Q 20.0625 -1.421875 12.78125 6.34375 
Q 5.515625 14.109375 5.515625 27.296875 
Q 5.515625 40.671875 12.859375 48.328125 
Q 20.21875 56 33.015625 56 
Q 37.15625 56 41.109375 55.140625 
Q 45.0625 54.296875 48.78125 52.59375 
z
" id="DejaVuSans-99"/>
      <path d="M 31 75.875 
Q 24.46875 64.65625 21.28125 53.65625 
Q 18.109375 42.671875 18.109375 31.390625 
Q 18.109375 20.125 21.3125 9.0625 
Q 24.515625 -2 31 -13.1875 
L 23.1875 -13.1875 
Q 15.875 -1.703125 12.234375 9.375 
Q 8.59375 20.453125 8.59375 31.390625 
Q 8.59375 42.28125 12.203125 53.3125 
Q 15.828125 64.359375 23.1875 75.875 
z
" id="DejaVuSans-40"/>
      <path d="M 8.015625 75.875 
L 15.828125 75.875 
Q 23.140625 64.359375 26.78125 53.3125 
Q 30.421875 42.28125 30.421875 31.390625 
Q 30.421875 20.453125 26.78125 9.375 
Q 23.140625 -1.703125 15.828125 -13.1875 
L 8.015625 -13.1875 
Q 14.5 -2 17.703125 9.0625 
Q 20.90625 20.125 20.90625 31.390625 
Q 20.90625 42.671875 17.703125 53.65625 
Q 14.5 64.65625 8.015625 75.875 
z
" id="DejaVuSans-41"/>
     </defs>
     <g style="fill:#262626;" transform="translate(31.684669 157.5567)rotate(-90)scale(0.096 -0.096)">
      <use xlink:href="#DejaVuSans-67"/>
      <use x="69.824219" xlink:href="#DejaVuSans-111"/>
      <use x="131.005859" xlink:href="#DejaVuSans-115"/>
      <use x="183.105469" xlink:href="#DejaVuSans-116"/>
      <use x="222.314453" xlink:href="#DejaVuSans-32"/>
      <use x="254.101562" xlink:href="#DejaVuSans-102"/>
      <use x="289.306641" xlink:href="#DejaVuSans-117"/>
      <use x="352.685547" xlink:href="#DejaVuSans-110"/>
      <use x="416.064453" xlink:href="#DejaVuSans-99"/>
      <use x="471.044922" xlink:href="#DejaVuSans-116"/>
      <use x="510.253906" xlink:href="#DejaVuSans-105"/>
      <use x="538.037109" xlink:href="#DejaVuSans-111"/>
      <use x="599.21875" xlink:href="#DejaVuSans-110"/>
      <use x="662.597656" xlink:href="#DejaVuSans-32"/>
      <use x="694.384766" xlink:href="#DejaVuSans-40"/>
      <use x="733.398438" xlink:href="#DejaVuSans-97"/>
      <use x="794.677734" xlink:href="#DejaVuSans-46"/>
      <use x="826.464844" xlink:href="#DejaVuSans-117"/>
      <use x="889.84375" xlink:href="#DejaVuSans-46"/>
      <use x="921.630859" xlink:href="#DejaVuSans-41"/>
     </g>
    </g>
   </g>
   <g id="line2d_17">
    <path clip-path="url(#p99d239984f)" d="M 77.129245 69.804083 
L 106.015062 39.948677 
L 134.900879 78.860112 
L 163.786696 114.735762 
L 192.672512 137.333479 
L 221.558329 154.079204 
L 250.444146 166.51908 
L 279.329963 175.824184 
L 308.215779 182.946223 
" style="fill:none;stroke:#f77189;stroke-linecap:round;stroke-width:1.2;"/>
   </g>
   <g id="patch_3">
    <path d="M 65.574919 190.0961 
L 65.574919 32.7988 
" style="fill:none;stroke:#cccccc;stroke-linecap:square;stroke-linejoin:miter;"/>
   </g>
   <g id="patch_4">
    <path d="M 319.770106 190.0961 
L 319.770106 32.7988 
" style="fill:none;stroke:#cccccc;stroke-linecap:square;stroke-linejoin:miter;"/>
   </g>
   <g id="patch_5">
    <path d="M 65.574919 190.0961 
L 319.770106 190.0961 
" style="fill:none;stroke:#cccccc;stroke-linecap:square;stroke-linejoin:miter;"/>
   </g>
   <g id="patch_6">
    <path d="M 65.574919 32.7988 
L 319.770106 32.7988 
" style="fill:none;stroke:#cccccc;stroke-linecap:square;stroke-linejoin:miter;"/>
   </g>
   <g id="text_19">
    <!-- cost -->
    <g style="fill:#262626;" transform="translate(182.714012 26.7988)scale(0.096 -0.096)">
     <use xlink:href="#DejaVuSans-99"/>
     <use x="54.980469" xlink:href="#DejaVuSans-111"/>
     <use x="116.162109" xlink:href="#DejaVuSans-115"/>
     <use x="168.261719" xlink:href="#DejaVuSans-116"/>
    </g>
   </g>
  </g>
  <g id="axes_2">
   <g id="patch_7">
    <path d="M 385.345025 190.0961 
L 639.540212 190.0961 
L 639.540212 32.7988 
L 385.345025 32.7988 
z
" style="fill:#ffffff;"/>
   </g>
   <g id="matplotlib.axis_3">
    <g id="xtick_10">
     <g id="line2d_18">
      <path clip-path="url(#p28874aeab9)" d="M 396.899351 190.0961 
L 396.899351 32.7988 
" style="fill:none;stroke:#cccccc;stroke-linecap:round;stroke-width:0.8;"/>
     </g>
     <g id="text_20">
      <!-- 0 -->
      <g style="fill:#262626;" transform="translate(394.099851 205.082725)scale(0.088 -0.088)">
       <use xlink:href="#DejaVuSans-48"/>
      </g>
     </g>
    </g>
    <g id="xtick_11">
     <g id="line2d_19">
      <path clip-path="url(#p28874aeab9)" d="M 425.785168 190.0961 
L 425.785168 32.7988 
" style="fill:none;stroke:#cccccc;stroke-linecap:round;stroke-width:0.8;"/>
     </g>
     <g id="text_21">
      <!-- 1 -->
      <g style="fill:#262626;" transform="translate(422.985668 205.082725)scale(0.088 -0.088)">
       <use xlink:href="#DejaVuSans-49"/>
      </g>
     </g>
    </g>
    <g id="xtick_12">
     <g id="line2d_20">
      <path clip-path="url(#p28874aeab9)" d="M 454.670985 190.0961 
L 454.670985 32.7988 
" style="fill:none;stroke:#cccccc;stroke-linecap:round;stroke-width:0.8;"/>
     </g>
     <g id="text_22">
      <!-- 2 -->
      <g style="fill:#262626;" transform="translate(451.871485 205.082725)scale(0.088 -0.088)">
       <use xlink:href="#DejaVuSans-50"/>
      </g>
     </g>
    </g>
    <g id="xtick_13">
     <g id="line2d_21">
      <path clip-path="url(#p28874aeab9)" d="M 483.556802 190.0961 
L 483.556802 32.7988 
" style="fill:none;stroke:#cccccc;stroke-linecap:round;stroke-width:0.8;"/>
     </g>
     <g id="text_23">
      <!-- 3 -->
      <g style="fill:#262626;" transform="translate(480.757302 205.082725)scale(0.088 -0.088)">
       <use xlink:href="#DejaVuSans-51"/>
      </g>
     </g>
    </g>
    <g id="xtick_14">
     <g id="line2d_22">
      <path clip-path="url(#p28874aeab9)" d="M 512.442618 190.0961 
L 512.442618 32.7988 
" style="fill:none;stroke:#cccccc;stroke-linecap:round;stroke-width:0.8;"/>
     </g>
     <g id="text_24">
      <!-- 4 -->
      <g style="fill:#262626;" transform="translate(509.643118 205.082725)scale(0.088 -0.088)">
       <use xlink:href="#DejaVuSans-52"/>
      </g>
     </g>
    </g>
    <g id="xtick_15">
     <g id="line2d_23">
      <path clip-path="url(#p28874aeab9)" d="M 541.328435 190.0961 
L 541.328435 32.7988 
" style="fill:none;stroke:#cccccc;stroke-linecap:round;stroke-width:0.8;"/>
     </g>
     <g id="text_25">
      <!-- 5 -->
      <g style="fill:#262626;" transform="translate(538.528935 205.082725)scale(0.088 -0.088)">
       <use xlink:href="#DejaVuSans-53"/>
      </g>
     </g>
    </g>
    <g id="xtick_16">
     <g id="line2d_24">
      <path clip-path="url(#p28874aeab9)" d="M 570.214252 190.0961 
L 570.214252 32.7988 
" style="fill:none;stroke:#cccccc;stroke-linecap:round;stroke-width:0.8;"/>
     </g>
     <g id="text_26">
      <!-- 6 -->
      <g style="fill:#262626;" transform="translate(567.414752 205.082725)scale(0.088 -0.088)">
       <use xlink:href="#DejaVuSans-54"/>
      </g>
     </g>
    </g>
    <g id="xtick_17">
     <g id="line2d_25">
      <path clip-path="url(#p28874aeab9)" d="M 599.100069 190.0961 
L 599.100069 32.7988 
" style="fill:none;stroke:#cccccc;stroke-linecap:round;stroke-width:0.8;"/>
     </g>
     <g id="text_27">
      <!-- 7 -->
      <g style="fill:#262626;" transform="translate(596.300569 205.082725)scale(0.088 -0.088)">
       <use xlink:href="#DejaVuSans-55"/>
      </g>
     </g>
    </g>
    <g id="xtick_18">
     <g id="line2d_26">
      <path clip-path="url(#p28874aeab9)" d="M 627.985885 190.0961 
L 627.985885 32.7988 
" style="fill:none;stroke:#cccccc;stroke-linecap:round;stroke-width:0.8;"/>
     </g>
     <g id="text_28">
      <!-- 8 -->
      <g style="fill:#262626;" transform="translate(625.186385 205.082725)scale(0.088 -0.088)">
       <use xlink:href="#DejaVuSans-56"/>
      </g>
     </g>
    </g>
    <g id="text_29">
     <!-- Iteration Step -->
     <g style="fill:#262626;" transform="translate(479.627118 218.20735)scale(0.096 -0.096)">
      <use xlink:href="#DejaVuSans-73"/>
      <use x="29.492188" xlink:href="#DejaVuSans-116"/>
      <use x="68.701172" xlink:href="#DejaVuSans-101"/>
      <use x="130.224609" xlink:href="#DejaVuSans-114"/>
      <use x="171.337891" xlink:href="#DejaVuSans-97"/>
      <use x="232.617188" xlink:href="#DejaVuSans-116"/>
      <use x="271.826172" xlink:href="#DejaVuSans-105"/>
      <use x="299.609375" xlink:href="#DejaVuSans-111"/>
      <use x="360.791016" xlink:href="#DejaVuSans-110"/>
      <use x="424.169922" xlink:href="#DejaVuSans-32"/>
      <use x="455.957031" xlink:href="#DejaVuSans-83"/>
      <use x="519.433594" xlink:href="#DejaVuSans-116"/>
      <use x="558.642578" xlink:href="#DejaVuSans-101"/>
      <use x="620.166016" xlink:href="#DejaVuSans-112"/>
     </g>
    </g>
   </g>
   <g id="matplotlib.axis_4">
    <g id="ytick_8">
     <g id="line2d_27">
      <path clip-path="url(#p28874aeab9)" d="M 385.345025 185.695877 
L 639.540212 185.695877 
" style="fill:none;stroke:#cccccc;stroke-linecap:round;stroke-width:0.8;"/>
     </g>
     <g id="text_30">
      <!-- 0.0 -->
      <g style="fill:#262626;" transform="translate(363.050275 189.03919)scale(0.088 -0.088)">
       <use xlink:href="#DejaVuSans-48"/>
       <use x="63.623047" xlink:href="#DejaVuSans-46"/>
       <use x="95.410156" xlink:href="#DejaVuSans-48"/>
      </g>
     </g>
    </g>
    <g id="ytick_9">
     <g id="line2d_28">
      <path clip-path="url(#p28874aeab9)" d="M 385.345025 164.306029 
L 639.540212 164.306029 
" style="fill:none;stroke:#cccccc;stroke-linecap:round;stroke-width:0.8;"/>
     </g>
     <g id="text_31">
      <!-- 0.5 -->
      <g style="fill:#262626;" transform="translate(363.050275 167.649342)scale(0.088 -0.088)">
       <use xlink:href="#DejaVuSans-48"/>
       <use x="63.623047" xlink:href="#DejaVuSans-46"/>
       <use x="95.410156" xlink:href="#DejaVuSans-53"/>
      </g>
     </g>
    </g>
    <g id="ytick_10">
     <g id="line2d_29">
      <path clip-path="url(#p28874aeab9)" d="M 385.345025 142.916181 
L 639.540212 142.916181 
" style="fill:none;stroke:#cccccc;stroke-linecap:round;stroke-width:0.8;"/>
     </g>
     <g id="text_32">
      <!-- 1.0 -->
      <g style="fill:#262626;" transform="translate(363.050275 146.259494)scale(0.088 -0.088)">
       <use xlink:href="#DejaVuSans-49"/>
       <use x="63.623047" xlink:href="#DejaVuSans-46"/>
       <use x="95.410156" xlink:href="#DejaVuSans-48"/>
      </g>
     </g>
    </g>
    <g id="ytick_11">
     <g id="line2d_30">
      <path clip-path="url(#p28874aeab9)" d="M 385.345025 121.526333 
L 639.540212 121.526333 
" style="fill:none;stroke:#cccccc;stroke-linecap:round;stroke-width:0.8;"/>
     </g>
     <g id="text_33">
      <!-- 1.5 -->
      <g style="fill:#262626;" transform="translate(363.050275 124.869645)scale(0.088 -0.088)">
       <use xlink:href="#DejaVuSans-49"/>
       <use x="63.623047" xlink:href="#DejaVuSans-46"/>
       <use x="95.410156" xlink:href="#DejaVuSans-53"/>
      </g>
     </g>
    </g>
    <g id="ytick_12">
     <g id="line2d_31">
      <path clip-path="url(#p28874aeab9)" d="M 385.345025 100.136485 
L 639.540212 100.136485 
" style="fill:none;stroke:#cccccc;stroke-linecap:round;stroke-width:0.8;"/>
     </g>
     <g id="text_34">
      <!-- 2.0 -->
      <g style="fill:#262626;" transform="translate(363.050275 103.479797)scale(0.088 -0.088)">
       <use xlink:href="#DejaVuSans-50"/>
       <use x="63.623047" xlink:href="#DejaVuSans-46"/>
       <use x="95.410156" xlink:href="#DejaVuSans-48"/>
      </g>
     </g>
    </g>
    <g id="ytick_13">
     <g id="line2d_32">
      <path clip-path="url(#p28874aeab9)" d="M 385.345025 78.746637 
L 639.540212 78.746637 
" style="fill:none;stroke:#cccccc;stroke-linecap:round;stroke-width:0.8;"/>
     </g>
     <g id="text_35">
      <!-- 2.5 -->
      <g style="fill:#262626;" transform="translate(363.050275 82.089949)scale(0.088 -0.088)">
       <use xlink:href="#DejaVuSans-50"/>
       <use x="63.623047" xlink:href="#DejaVuSans-46"/>
       <use x="95.410156" xlink:href="#DejaVuSans-53"/>
      </g>
     </g>
    </g>
    <g id="ytick_14">
     <g id="line2d_33">
      <path clip-path="url(#p28874aeab9)" d="M 385.345025 57.356789 
L 639.540212 57.356789 
" style="fill:none;stroke:#cccccc;stroke-linecap:round;stroke-width:0.8;"/>
     </g>
     <g id="text_36">
      <!-- 3.0 -->
      <g style="fill:#262626;" transform="translate(363.050275 60.700101)scale(0.088 -0.088)">
       <use xlink:href="#DejaVuSans-51"/>
       <use x="63.623047" xlink:href="#DejaVuSans-46"/>
       <use x="95.410156" xlink:href="#DejaVuSans-48"/>
      </g>
     </g>
    </g>
    <g id="ytick_15">
     <g id="line2d_34">
      <path clip-path="url(#p28874aeab9)" d="M 385.345025 35.966941 
L 639.540212 35.966941 
" style="fill:none;stroke:#cccccc;stroke-linecap:round;stroke-width:0.8;"/>
     </g>
     <g id="text_37">
      <!-- 3.5 -->
      <g style="fill:#262626;" transform="translate(363.050275 39.310253)scale(0.088 -0.088)">
       <use xlink:href="#DejaVuSans-51"/>
       <use x="63.623047" xlink:href="#DejaVuSans-46"/>
       <use x="95.410156" xlink:href="#DejaVuSans-53"/>
      </g>
     </g>
    </g>
    <g id="text_38">
     <!-- Model predictions (a.u.) -->
     <defs>
      <path d="M 9.8125 72.90625 
L 24.515625 72.90625 
L 43.109375 23.296875 
L 61.8125 72.90625 
L 76.515625 72.90625 
L 76.515625 0 
L 66.890625 0 
L 66.890625 64.015625 
L 48.09375 14.015625 
L 38.1875 14.015625 
L 19.390625 64.015625 
L 19.390625 0 
L 9.8125 0 
z
" id="DejaVuSans-77"/>
      <path d="M 45.40625 46.390625 
L 45.40625 75.984375 
L 54.390625 75.984375 
L 54.390625 0 
L 45.40625 0 
L 45.40625 8.203125 
Q 42.578125 3.328125 38.25 0.953125 
Q 33.9375 -1.421875 27.875 -1.421875 
Q 17.96875 -1.421875 11.734375 6.484375 
Q 5.515625 14.40625 5.515625 27.296875 
Q 5.515625 40.1875 11.734375 48.09375 
Q 17.96875 56 27.875 56 
Q 33.9375 56 38.25 53.625 
Q 42.578125 51.265625 45.40625 46.390625 
z
M 14.796875 27.296875 
Q 14.796875 17.390625 18.875 11.75 
Q 22.953125 6.109375 30.078125 6.109375 
Q 37.203125 6.109375 41.296875 11.75 
Q 45.40625 17.390625 45.40625 27.296875 
Q 45.40625 37.203125 41.296875 42.84375 
Q 37.203125 48.484375 30.078125 48.484375 
Q 22.953125 48.484375 18.875 42.84375 
Q 14.796875 37.203125 14.796875 27.296875 
z
" id="DejaVuSans-100"/>
      <path d="M 9.421875 75.984375 
L 18.40625 75.984375 
L 18.40625 0 
L 9.421875 0 
z
" id="DejaVuSans-108"/>
     </defs>
     <g style="fill:#262626;" transform="translate(357.053775 168.37845)rotate(-90)scale(0.096 -0.096)">
      <use xlink:href="#DejaVuSans-77"/>
      <use x="86.279297" xlink:href="#DejaVuSans-111"/>
      <use x="147.460938" xlink:href="#DejaVuSans-100"/>
      <use x="210.9375" xlink:href="#DejaVuSans-101"/>
      <use x="272.460938" xlink:href="#DejaVuSans-108"/>
      <use x="300.244141" xlink:href="#DejaVuSans-32"/>
      <use x="332.03125" xlink:href="#DejaVuSans-112"/>
      <use x="395.507812" xlink:href="#DejaVuSans-114"/>
      <use x="436.589844" xlink:href="#DejaVuSans-101"/>
      <use x="498.113281" xlink:href="#DejaVuSans-100"/>
      <use x="561.589844" xlink:href="#DejaVuSans-105"/>
      <use x="589.373047" xlink:href="#DejaVuSans-99"/>
      <use x="644.353516" xlink:href="#DejaVuSans-116"/>
      <use x="683.5625" xlink:href="#DejaVuSans-105"/>
      <use x="711.345703" xlink:href="#DejaVuSans-111"/>
      <use x="772.527344" xlink:href="#DejaVuSans-110"/>
      <use x="835.90625" xlink:href="#DejaVuSans-115"/>
      <use x="888.005859" xlink:href="#DejaVuSans-32"/>
      <use x="919.792969" xlink:href="#DejaVuSans-40"/>
      <use x="958.806641" xlink:href="#DejaVuSans-97"/>
      <use x="1020.085938" xlink:href="#DejaVuSans-46"/>
      <use x="1051.873047" xlink:href="#DejaVuSans-117"/>
      <use x="1115.251953" xlink:href="#DejaVuSans-46"/>
      <use x="1147.039062" xlink:href="#DejaVuSans-41"/>
     </g>
    </g>
   </g>
   <g id="line2d_35">
    <path clip-path="url(#p28874aeab9)" d="M 396.899351 46.899057 
L 425.785168 39.948677 
L 454.670985 54.637032 
L 483.556802 70.126287 
L 512.442618 81.528041 
L 541.328435 91.17519 
L 570.214252 99.300762 
L 599.100069 106.392199 
L 627.985885 112.444648 
" style="fill:none;stroke:#f77189;stroke-linecap:round;stroke-width:1.2;"/>
   </g>
   <g id="line2d_36">
    <path clip-path="url(#p28874aeab9)" d="M 396.899351 182.30821 
L 425.785168 182.713006 
L 454.670985 182.650732 
L 483.556802 182.570592 
L 512.442618 182.517449 
L 541.328435 182.473272 
L 570.214252 182.437081 
L 599.100069 182.424729 
L 627.985885 182.414772 
" style="fill:none;stroke:#bb9832;stroke-linecap:round;stroke-width:1.2;"/>
   </g>
   <g id="line2d_37">
    <path clip-path="url(#p28874aeab9)" d="M 396.899351 123.877354 
L 425.785168 115.888714 
L 454.670985 118.760484 
L 483.556802 122.254388 
L 512.442618 124.897066 
L 541.328435 127.290096 
L 570.214252 129.449523 
L 599.100069 131.237378 
L 627.985885 132.926346 
" style="fill:none;stroke:#50b131;stroke-linecap:round;stroke-width:1.2;"/>
   </g>
   <g id="line2d_38">
    <path clip-path="url(#p28874aeab9)" d="M 396.899351 181.981596 
L 425.785168 182.946223 
L 454.670985 182.923474 
L 483.556802 182.873436 
L 512.442618 182.843948 
L 541.328435 182.818498 
L 570.214252 182.797324 
L 599.100069 182.731375 
L 627.985885 182.654176 
" style="fill:none;stroke:#36ada4;stroke-linecap:round;stroke-width:1.2;"/>
   </g>
   <g id="patch_8">
    <path d="M 385.345025 190.0961 
L 385.345025 32.7988 
" style="fill:none;stroke:#cccccc;stroke-linecap:square;stroke-linejoin:miter;"/>
   </g>
   <g id="patch_9">
    <path d="M 639.540212 190.0961 
L 639.540212 32.7988 
" style="fill:none;stroke:#cccccc;stroke-linecap:square;stroke-linejoin:miter;"/>
   </g>
   <g id="patch_10">
    <path d="M 385.345025 190.0961 
L 639.540212 190.0961 
" style="fill:none;stroke:#cccccc;stroke-linecap:square;stroke-linejoin:miter;"/>
   </g>
   <g id="patch_11">
    <path d="M 385.345025 32.7988 
L 639.540212 32.7988 
" style="fill:none;stroke:#cccccc;stroke-linecap:square;stroke-linejoin:miter;"/>
   </g>
   <g id="text_39">
    <!-- fit model prediction -->
    <defs>
     <path d="M 52 44.1875 
Q 55.375 50.25 60.0625 53.125 
Q 64.75 56 71.09375 56 
Q 79.640625 56 84.28125 50.015625 
Q 88.921875 44.046875 88.921875 33.015625 
L 88.921875 0 
L 79.890625 0 
L 79.890625 32.71875 
Q 79.890625 40.578125 77.09375 44.375 
Q 74.3125 48.1875 68.609375 48.1875 
Q 61.625 48.1875 57.5625 43.546875 
Q 53.515625 38.921875 53.515625 30.90625 
L 53.515625 0 
L 44.484375 0 
L 44.484375 32.71875 
Q 44.484375 40.625 41.703125 44.40625 
Q 38.921875 48.1875 33.109375 48.1875 
Q 26.21875 48.1875 22.15625 43.53125 
Q 18.109375 38.875 18.109375 30.90625 
L 18.109375 0 
L 9.078125 0 
L 9.078125 54.6875 
L 18.109375 54.6875 
L 18.109375 46.1875 
Q 21.1875 51.21875 25.484375 53.609375 
Q 29.78125 56 35.6875 56 
Q 41.65625 56 45.828125 52.96875 
Q 50 49.953125 52 44.1875 
z
" id="DejaVuSans-109"/>
    </defs>
    <g style="fill:#262626;" transform="translate(465.353118 26.7988)scale(0.096 -0.096)">
     <use xlink:href="#DejaVuSans-102"/>
     <use x="35.205078" xlink:href="#DejaVuSans-105"/>
     <use x="62.988281" xlink:href="#DejaVuSans-116"/>
     <use x="102.197266" xlink:href="#DejaVuSans-32"/>
     <use x="133.984375" xlink:href="#DejaVuSans-109"/>
     <use x="231.396484" xlink:href="#DejaVuSans-111"/>
     <use x="292.578125" xlink:href="#DejaVuSans-100"/>
     <use x="356.054688" xlink:href="#DejaVuSans-101"/>
     <use x="417.578125" xlink:href="#DejaVuSans-108"/>
     <use x="445.361328" xlink:href="#DejaVuSans-32"/>
     <use x="477.148438" xlink:href="#DejaVuSans-112"/>
     <use x="540.625" xlink:href="#DejaVuSans-114"/>
     <use x="581.707031" xlink:href="#DejaVuSans-101"/>
     <use x="643.230469" xlink:href="#DejaVuSans-100"/>
     <use x="706.707031" xlink:href="#DejaVuSans-105"/>
     <use x="734.490234" xlink:href="#DejaVuSans-99"/>
     <use x="789.470703" xlink:href="#DejaVuSans-116"/>
     <use x="828.679688" xlink:href="#DejaVuSans-105"/>
     <use x="856.462891" xlink:href="#DejaVuSans-111"/>
     <use x="917.644531" xlink:href="#DejaVuSans-110"/>
    </g>
   </g>
   <g id="legend_1">
    <g id="patch_12">
     <path d="M 598.444212 91.5058 
L 633.380212 91.5058 
Q 635.140212 91.5058 635.140212 89.7458 
L 635.140212 38.9588 
Q 635.140212 37.1988 633.380212 37.1988 
L 598.444212 37.1988 
Q 596.684212 37.1988 596.684212 38.9588 
L 596.684212 89.7458 
Q 596.684212 91.5058 598.444212 91.5058 
z
" style="fill:#ffffff;opacity:0.8;stroke:#cccccc;stroke-linejoin:miter;stroke-width:0.8;"/>
    </g>
    <g id="line2d_39">
     <path d="M 600.204212 44.325425 
L 617.804212 44.325425 
" style="fill:none;stroke:#f77189;stroke-linecap:round;stroke-width:1.2;"/>
    </g>
    <g id="line2d_40"/>
    <g id="text_40">
     <!-- N -->
     <defs>
      <path d="M 9.8125 72.90625 
L 23.09375 72.90625 
L 55.421875 11.921875 
L 55.421875 72.90625 
L 64.984375 72.90625 
L 64.984375 0 
L 51.703125 0 
L 19.390625 60.984375 
L 19.390625 0 
L 9.8125 0 
z
" id="DejaVuSans-78"/>
     </defs>
     <g style="fill:#262626;" transform="translate(624.844212 47.405425)scale(0.088 -0.088)">
      <use xlink:href="#DejaVuSans-78"/>
     </g>
    </g>
    <g id="line2d_41">
     <path d="M 600.204212 57.242175 
L 617.804212 57.242175 
" style="fill:none;stroke:#bb9832;stroke-linecap:round;stroke-width:1.2;"/>
    </g>
    <g id="line2d_42"/>
    <g id="text_41">
     <!-- P -->
     <defs>
      <path d="M 19.671875 64.796875 
L 19.671875 37.40625 
L 32.078125 37.40625 
Q 38.96875 37.40625 42.71875 40.96875 
Q 46.484375 44.53125 46.484375 51.125 
Q 46.484375 57.671875 42.71875 61.234375 
Q 38.96875 64.796875 32.078125 64.796875 
z
M 9.8125 72.90625 
L 32.078125 72.90625 
Q 44.34375 72.90625 50.609375 67.359375 
Q 56.890625 61.8125 56.890625 51.125 
Q 56.890625 40.328125 50.609375 34.8125 
Q 44.34375 29.296875 32.078125 29.296875 
L 19.671875 29.296875 
L 19.671875 0 
L 9.8125 0 
z
" id="DejaVuSans-80"/>
     </defs>
     <g style="fill:#262626;" transform="translate(624.844212 60.322175)scale(0.088 -0.088)">
      <use xlink:href="#DejaVuSans-80"/>
     </g>
    </g>
    <g id="line2d_43">
     <path d="M 600.204212 70.158925 
L 617.804212 70.158925 
" style="fill:none;stroke:#50b131;stroke-linecap:round;stroke-width:1.2;"/>
    </g>
    <g id="line2d_44"/>
    <g id="text_42">
     <!-- Z -->
     <defs>
      <path d="M 5.609375 72.90625 
L 62.890625 72.90625 
L 62.890625 65.375 
L 16.796875 8.296875 
L 64.015625 8.296875 
L 64.015625 0 
L 4.5 0 
L 4.5 7.515625 
L 50.59375 64.59375 
L 5.609375 64.59375 
z
" id="DejaVuSans-90"/>
     </defs>
     <g style="fill:#262626;" transform="translate(624.844212 73.238925)scale(0.088 -0.088)">
      <use xlink:href="#DejaVuSans-90"/>
     </g>
    </g>
    <g id="line2d_45">
     <path d="M 600.204212 83.075675 
L 617.804212 83.075675 
" style="fill:none;stroke:#36ada4;stroke-linecap:round;stroke-width:1.2;"/>
    </g>
    <g id="line2d_46"/>
    <g id="text_43">
     <!-- D -->
     <defs>
      <path d="M 19.671875 64.796875 
L 19.671875 8.109375 
L 31.59375 8.109375 
Q 46.6875 8.109375 53.6875 14.9375 
Q 60.6875 21.78125 60.6875 36.53125 
Q 60.6875 51.171875 53.6875 57.984375 
Q 46.6875 64.796875 31.59375 64.796875 
z
M 9.8125 72.90625 
L 30.078125 72.90625 
Q 51.265625 72.90625 61.171875 64.09375 
Q 71.09375 55.28125 71.09375 36.53125 
Q 71.09375 17.671875 61.125 8.828125 
Q 51.171875 0 30.078125 0 
L 9.8125 0 
z
" id="DejaVuSans-68"/>
     </defs>
     <g style="fill:#262626;" transform="translate(624.844212 86.155675)scale(0.088 -0.088)">
      <use xlink:href="#DejaVuSans-68"/>
     </g>
    </g>
   </g>
  </g>
  <g id="axes_3">
   <g id="patch_13">
    <path d="M 65.574919 423.3617 
L 319.770106 423.3617 
L 319.770106 266.0644 
L 65.574919 266.0644 
z
" style="fill:#ffffff;"/>
   </g>
   <g id="matplotlib.axis_5">
    <g id="xtick_19">
     <g id="line2d_47">
      <path clip-path="url(#pe6f35812a6)" d="M 77.129245 423.3617 
L 77.129245 266.0644 
" style="fill:none;stroke:#cccccc;stroke-linecap:round;stroke-width:0.8;"/>
     </g>
     <g id="text_44">
      <!-- 0 -->
      <g style="fill:#262626;" transform="translate(74.329745 438.348325)scale(0.088 -0.088)">
       <use xlink:href="#DejaVuSans-48"/>
      </g>
     </g>
    </g>
    <g id="xtick_20">
     <g id="line2d_48">
      <path clip-path="url(#pe6f35812a6)" d="M 106.015062 423.3617 
L 106.015062 266.0644 
" style="fill:none;stroke:#cccccc;stroke-linecap:round;stroke-width:0.8;"/>
     </g>
     <g id="text_45">
      <!-- 1 -->
      <g style="fill:#262626;" transform="translate(103.215562 438.348325)scale(0.088 -0.088)">
       <use xlink:href="#DejaVuSans-49"/>
      </g>
     </g>
    </g>
    <g id="xtick_21">
     <g id="line2d_49">
      <path clip-path="url(#pe6f35812a6)" d="M 134.900879 423.3617 
L 134.900879 266.0644 
" style="fill:none;stroke:#cccccc;stroke-linecap:round;stroke-width:0.8;"/>
     </g>
     <g id="text_46">
      <!-- 2 -->
      <g style="fill:#262626;" transform="translate(132.101379 438.348325)scale(0.088 -0.088)">
       <use xlink:href="#DejaVuSans-50"/>
      </g>
     </g>
    </g>
    <g id="xtick_22">
     <g id="line2d_50">
      <path clip-path="url(#pe6f35812a6)" d="M 163.786696 423.3617 
L 163.786696 266.0644 
" style="fill:none;stroke:#cccccc;stroke-linecap:round;stroke-width:0.8;"/>
     </g>
     <g id="text_47">
      <!-- 3 -->
      <g style="fill:#262626;" transform="translate(160.987196 438.348325)scale(0.088 -0.088)">
       <use xlink:href="#DejaVuSans-51"/>
      </g>
     </g>
    </g>
    <g id="xtick_23">
     <g id="line2d_51">
      <path clip-path="url(#pe6f35812a6)" d="M 192.672512 423.3617 
L 192.672512 266.0644 
" style="fill:none;stroke:#cccccc;stroke-linecap:round;stroke-width:0.8;"/>
     </g>
     <g id="text_48">
      <!-- 4 -->
      <g style="fill:#262626;" transform="translate(189.873012 438.348325)scale(0.088 -0.088)">
       <use xlink:href="#DejaVuSans-52"/>
      </g>
     </g>
    </g>
    <g id="xtick_24">
     <g id="line2d_52">
      <path clip-path="url(#pe6f35812a6)" d="M 221.558329 423.3617 
L 221.558329 266.0644 
" style="fill:none;stroke:#cccccc;stroke-linecap:round;stroke-width:0.8;"/>
     </g>
     <g id="text_49">
      <!-- 5 -->
      <g style="fill:#262626;" transform="translate(218.758829 438.348325)scale(0.088 -0.088)">
       <use xlink:href="#DejaVuSans-53"/>
      </g>
     </g>
    </g>
    <g id="xtick_25">
     <g id="line2d_53">
      <path clip-path="url(#pe6f35812a6)" d="M 250.444146 423.3617 
L 250.444146 266.0644 
" style="fill:none;stroke:#cccccc;stroke-linecap:round;stroke-width:0.8;"/>
     </g>
     <g id="text_50">
      <!-- 6 -->
      <g style="fill:#262626;" transform="translate(247.644646 438.348325)scale(0.088 -0.088)">
       <use xlink:href="#DejaVuSans-54"/>
      </g>
     </g>
    </g>
    <g id="xtick_26">
     <g id="line2d_54">
      <path clip-path="url(#pe6f35812a6)" d="M 279.329963 423.3617 
L 279.329963 266.0644 
" style="fill:none;stroke:#cccccc;stroke-linecap:round;stroke-width:0.8;"/>
     </g>
     <g id="text_51">
      <!-- 7 -->
      <g style="fill:#262626;" transform="translate(276.530463 438.348325)scale(0.088 -0.088)">
       <use xlink:href="#DejaVuSans-55"/>
      </g>
     </g>
    </g>
    <g id="xtick_27">
     <g id="line2d_55">
      <path clip-path="url(#pe6f35812a6)" d="M 308.215779 423.3617 
L 308.215779 266.0644 
" style="fill:none;stroke:#cccccc;stroke-linecap:round;stroke-width:0.8;"/>
     </g>
     <g id="text_52">
      <!-- 8 -->
      <g style="fill:#262626;" transform="translate(305.416279 438.348325)scale(0.088 -0.088)">
       <use xlink:href="#DejaVuSans-56"/>
      </g>
     </g>
    </g>
    <g id="text_53">
     <!-- Iteration Step -->
     <g style="fill:#262626;" transform="translate(159.857012 451.47295)scale(0.096 -0.096)">
      <use xlink:href="#DejaVuSans-73"/>
      <use x="29.492188" xlink:href="#DejaVuSans-116"/>
      <use x="68.701172" xlink:href="#DejaVuSans-101"/>
      <use x="130.224609" xlink:href="#DejaVuSans-114"/>
      <use x="171.337891" xlink:href="#DejaVuSans-97"/>
      <use x="232.617188" xlink:href="#DejaVuSans-116"/>
      <use x="271.826172" xlink:href="#DejaVuSans-105"/>
      <use x="299.609375" xlink:href="#DejaVuSans-111"/>
      <use x="360.791016" xlink:href="#DejaVuSans-110"/>
      <use x="424.169922" xlink:href="#DejaVuSans-32"/>
      <use x="455.957031" xlink:href="#DejaVuSans-83"/>
      <use x="519.433594" xlink:href="#DejaVuSans-116"/>
      <use x="558.642578" xlink:href="#DejaVuSans-101"/>
      <use x="620.166016" xlink:href="#DejaVuSans-112"/>
     </g>
    </g>
   </g>
   <g id="matplotlib.axis_6">
    <g id="ytick_16">
     <g id="line2d_56">
      <path clip-path="url(#pe6f35812a6)" d="M 65.574919 410.116795 
L 319.770106 410.116795 
" style="fill:none;stroke:#cccccc;stroke-linecap:round;stroke-width:0.8;"/>
     </g>
     <g id="text_54">
      <!-- 0.25 -->
      <g style="fill:#262626;" transform="translate(37.681169 413.460108)scale(0.088 -0.088)">
       <use xlink:href="#DejaVuSans-48"/>
       <use x="63.623047" xlink:href="#DejaVuSans-46"/>
       <use x="95.410156" xlink:href="#DejaVuSans-50"/>
       <use x="159.033203" xlink:href="#DejaVuSans-53"/>
      </g>
     </g>
    </g>
    <g id="ytick_17">
     <g id="line2d_57">
      <path clip-path="url(#pe6f35812a6)" d="M 65.574919 389.218205 
L 319.770106 389.218205 
" style="fill:none;stroke:#cccccc;stroke-linecap:round;stroke-width:0.8;"/>
     </g>
     <g id="text_55">
      <!-- 0.50 -->
      <g style="fill:#262626;" transform="translate(37.681169 392.561518)scale(0.088 -0.088)">
       <use xlink:href="#DejaVuSans-48"/>
       <use x="63.623047" xlink:href="#DejaVuSans-46"/>
       <use x="95.410156" xlink:href="#DejaVuSans-53"/>
       <use x="159.033203" xlink:href="#DejaVuSans-48"/>
      </g>
     </g>
    </g>
    <g id="ytick_18">
     <g id="line2d_58">
      <path clip-path="url(#pe6f35812a6)" d="M 65.574919 368.319615 
L 319.770106 368.319615 
" style="fill:none;stroke:#cccccc;stroke-linecap:round;stroke-width:0.8;"/>
     </g>
     <g id="text_56">
      <!-- 0.75 -->
      <g style="fill:#262626;" transform="translate(37.681169 371.662928)scale(0.088 -0.088)">
       <use xlink:href="#DejaVuSans-48"/>
       <use x="63.623047" xlink:href="#DejaVuSans-46"/>
       <use x="95.410156" xlink:href="#DejaVuSans-55"/>
       <use x="159.033203" xlink:href="#DejaVuSans-53"/>
      </g>
     </g>
    </g>
    <g id="ytick_19">
     <g id="line2d_59">
      <path clip-path="url(#pe6f35812a6)" d="M 65.574919 347.421025 
L 319.770106 347.421025 
" style="fill:none;stroke:#cccccc;stroke-linecap:round;stroke-width:0.8;"/>
     </g>
     <g id="text_57">
      <!-- 1.00 -->
      <g style="fill:#262626;" transform="translate(37.681169 350.764338)scale(0.088 -0.088)">
       <use xlink:href="#DejaVuSans-49"/>
       <use x="63.623047" xlink:href="#DejaVuSans-46"/>
       <use x="95.410156" xlink:href="#DejaVuSans-48"/>
       <use x="159.033203" xlink:href="#DejaVuSans-48"/>
      </g>
     </g>
    </g>
    <g id="ytick_20">
     <g id="line2d_60">
      <path clip-path="url(#pe6f35812a6)" d="M 65.574919 326.522435 
L 319.770106 326.522435 
" style="fill:none;stroke:#cccccc;stroke-linecap:round;stroke-width:0.8;"/>
     </g>
     <g id="text_58">
      <!-- 1.25 -->
      <g style="fill:#262626;" transform="translate(37.681169 329.865748)scale(0.088 -0.088)">
       <use xlink:href="#DejaVuSans-49"/>
       <use x="63.623047" xlink:href="#DejaVuSans-46"/>
       <use x="95.410156" xlink:href="#DejaVuSans-50"/>
       <use x="159.033203" xlink:href="#DejaVuSans-53"/>
      </g>
     </g>
    </g>
    <g id="ytick_21">
     <g id="line2d_61">
      <path clip-path="url(#pe6f35812a6)" d="M 65.574919 305.623845 
L 319.770106 305.623845 
" style="fill:none;stroke:#cccccc;stroke-linecap:round;stroke-width:0.8;"/>
     </g>
     <g id="text_59">
      <!-- 1.50 -->
      <g style="fill:#262626;" transform="translate(37.681169 308.967158)scale(0.088 -0.088)">
       <use xlink:href="#DejaVuSans-49"/>
       <use x="63.623047" xlink:href="#DejaVuSans-46"/>
       <use x="95.410156" xlink:href="#DejaVuSans-53"/>
       <use x="159.033203" xlink:href="#DejaVuSans-48"/>
      </g>
     </g>
    </g>
    <g id="ytick_22">
     <g id="line2d_62">
      <path clip-path="url(#pe6f35812a6)" d="M 65.574919 284.725255 
L 319.770106 284.725255 
" style="fill:none;stroke:#cccccc;stroke-linecap:round;stroke-width:0.8;"/>
     </g>
     <g id="text_60">
      <!-- 1.75 -->
      <g style="fill:#262626;" transform="translate(37.681169 288.068568)scale(0.088 -0.088)">
       <use xlink:href="#DejaVuSans-49"/>
       <use x="63.623047" xlink:href="#DejaVuSans-46"/>
       <use x="95.410156" xlink:href="#DejaVuSans-55"/>
       <use x="159.033203" xlink:href="#DejaVuSans-53"/>
      </g>
     </g>
    </g>
    <g id="text_61">
     <!-- optimized parameters (a.u.) -->
     <defs>
      <path d="M 5.515625 54.6875 
L 48.1875 54.6875 
L 48.1875 46.484375 
L 14.40625 7.171875 
L 48.1875 7.171875 
L 48.1875 0 
L 4.296875 0 
L 4.296875 8.203125 
L 38.09375 47.515625 
L 5.515625 47.515625 
z
" id="DejaVuSans-122"/>
     </defs>
     <g style="fill:#262626;" transform="translate(31.684669 412.11405)rotate(-90)scale(0.096 -0.096)">
      <use xlink:href="#DejaVuSans-111"/>
      <use x="61.181641" xlink:href="#DejaVuSans-112"/>
      <use x="124.658203" xlink:href="#DejaVuSans-116"/>
      <use x="163.867188" xlink:href="#DejaVuSans-105"/>
      <use x="191.650391" xlink:href="#DejaVuSans-109"/>
      <use x="289.0625" xlink:href="#DejaVuSans-105"/>
      <use x="316.845703" xlink:href="#DejaVuSans-122"/>
      <use x="369.335938" xlink:href="#DejaVuSans-101"/>
      <use x="430.859375" xlink:href="#DejaVuSans-100"/>
      <use x="494.335938" xlink:href="#DejaVuSans-32"/>
      <use x="526.123047" xlink:href="#DejaVuSans-112"/>
      <use x="589.599609" xlink:href="#DejaVuSans-97"/>
      <use x="650.878906" xlink:href="#DejaVuSans-114"/>
      <use x="691.992188" xlink:href="#DejaVuSans-97"/>
      <use x="753.271484" xlink:href="#DejaVuSans-109"/>
      <use x="850.683594" xlink:href="#DejaVuSans-101"/>
      <use x="912.207031" xlink:href="#DejaVuSans-116"/>
      <use x="951.416016" xlink:href="#DejaVuSans-101"/>
      <use x="1012.939453" xlink:href="#DejaVuSans-114"/>
      <use x="1054.052734" xlink:href="#DejaVuSans-115"/>
      <use x="1106.152344" xlink:href="#DejaVuSans-32"/>
      <use x="1137.939453" xlink:href="#DejaVuSans-40"/>
      <use x="1176.953125" xlink:href="#DejaVuSans-97"/>
      <use x="1238.232422" xlink:href="#DejaVuSans-46"/>
      <use x="1270.019531" xlink:href="#DejaVuSans-117"/>
      <use x="1333.398438" xlink:href="#DejaVuSans-46"/>
      <use x="1365.185547" xlink:href="#DejaVuSans-41"/>
     </g>
    </g>
   </g>
   <g id="line2d_63">
    <path clip-path="url(#pe6f35812a6)" d="M 77.129245 273.214277 
L 106.015062 323.072131 
L 134.900879 331.663726 
L 163.786696 340.712316 
L 192.672512 347.461297 
L 221.558329 353.274956 
L 250.444146 358.251153 
L 279.329963 362.55739 
L 308.215779 366.299222 
" style="fill:none;stroke:#f77189;stroke-linecap:round;stroke-width:1.2;"/>
   </g>
   <g id="line2d_64">
    <path clip-path="url(#pe6f35812a6)" d="M 77.129245 416.211823 
L 106.015062 322.746282 
L 134.900879 329.344614 
L 163.786696 340.653886 
L 192.672512 347.504752 
L 221.558329 353.434922 
L 250.444146 358.461903 
L 279.329963 362.765346 
L 308.215779 366.522685 
" style="fill:none;stroke:#bb9832;stroke-linecap:round;stroke-width:1.2;"/>
   </g>
   <g id="line2d_65">
    <path clip-path="url(#pe6f35812a6)" d="M 77.129245 314.757203 
L 106.015062 322.872798 
L 134.900879 332.299253 
L 163.786696 340.628121 
L 192.672512 347.542491 
L 221.558329 353.409042 
L 250.444146 358.428054 
L 279.329963 362.722339 
L 308.215779 366.467518 
" style="fill:none;stroke:#50b131;stroke-linecap:round;stroke-width:1.2;"/>
   </g>
   <g id="line2d_66">
    <path clip-path="url(#pe6f35812a6)" d="M 77.129245 313.984894 
L 106.015062 322.961092 
L 134.900879 332.492219 
L 163.786696 340.64546 
L 192.672512 347.413527 
L 221.558329 353.194398 
L 250.444146 358.157683 
L 279.329963 362.451437 
L 308.215779 366.16402 
" style="fill:none;stroke:#36ada4;stroke-linecap:round;stroke-width:1.2;"/>
   </g>
   <g id="patch_14">
    <path d="M 65.574919 423.3617 
L 65.574919 266.0644 
" style="fill:none;stroke:#cccccc;stroke-linecap:square;stroke-linejoin:miter;"/>
   </g>
   <g id="patch_15">
    <path d="M 319.770106 423.3617 
L 319.770106 266.0644 
" style="fill:none;stroke:#cccccc;stroke-linecap:square;stroke-linejoin:miter;"/>
   </g>
   <g id="patch_16">
    <path d="M 65.574919 423.3617 
L 319.770106 423.3617 
" style="fill:none;stroke:#cccccc;stroke-linecap:square;stroke-linejoin:miter;"/>
   </g>
   <g id="patch_17">
    <path d="M 65.574919 266.0644 
L 319.770106 266.0644 
" style="fill:none;stroke:#cccccc;stroke-linecap:square;stroke-linejoin:miter;"/>
   </g>
   <g id="text_62">
    <!-- parameters -->
    <g style="fill:#262626;" transform="translate(164.831012 260.0644)scale(0.096 -0.096)">
     <use xlink:href="#DejaVuSans-112"/>
     <use x="63.476562" xlink:href="#DejaVuSans-97"/>
     <use x="124.755859" xlink:href="#DejaVuSans-114"/>
     <use x="165.869141" xlink:href="#DejaVuSans-97"/>
     <use x="227.148438" xlink:href="#DejaVuSans-109"/>
     <use x="324.560547" xlink:href="#DejaVuSans-101"/>
     <use x="386.083984" xlink:href="#DejaVuSans-116"/>
     <use x="425.292969" xlink:href="#DejaVuSans-101"/>
     <use x="486.816406" xlink:href="#DejaVuSans-114"/>
     <use x="527.929688" xlink:href="#DejaVuSans-115"/>
    </g>
   </g>
   <g id="legend_2">
    <g id="patch_18">
     <path d="M 278.674106 324.7714 
L 313.610106 324.7714 
Q 315.370106 324.7714 315.370106 323.0114 
L 315.370106 272.2244 
Q 315.370106 270.4644 313.610106 270.4644 
L 278.674106 270.4644 
Q 276.914106 270.4644 276.914106 272.2244 
L 276.914106 323.0114 
Q 276.914106 324.7714 278.674106 324.7714 
z
" style="fill:#ffffff;opacity:0.8;stroke:#cccccc;stroke-linejoin:miter;stroke-width:0.8;"/>
    </g>
    <g id="line2d_67">
     <path d="M 280.434106 277.591025 
L 298.034106 277.591025 
" style="fill:none;stroke:#f77189;stroke-linecap:round;stroke-width:1.2;"/>
    </g>
    <g id="line2d_68"/>
    <g id="text_63">
     <!-- N -->
     <g style="fill:#262626;" transform="translate(305.074106 280.671025)scale(0.088 -0.088)">
      <use xlink:href="#DejaVuSans-78"/>
     </g>
    </g>
    <g id="line2d_69">
     <path d="M 280.434106 290.507775 
L 298.034106 290.507775 
" style="fill:none;stroke:#bb9832;stroke-linecap:round;stroke-width:1.2;"/>
    </g>
    <g id="line2d_70"/>
    <g id="text_64">
     <!-- P -->
     <g style="fill:#262626;" transform="translate(305.074106 293.587775)scale(0.088 -0.088)">
      <use xlink:href="#DejaVuSans-80"/>
     </g>
    </g>
    <g id="line2d_71">
     <path d="M 280.434106 303.424525 
L 298.034106 303.424525 
" style="fill:none;stroke:#50b131;stroke-linecap:round;stroke-width:1.2;"/>
    </g>
    <g id="line2d_72"/>
    <g id="text_65">
     <!-- Z -->
     <g style="fill:#262626;" transform="translate(305.074106 306.504525)scale(0.088 -0.088)">
      <use xlink:href="#DejaVuSans-90"/>
     </g>
    </g>
    <g id="line2d_73">
     <path d="M 280.434106 316.341275 
L 298.034106 316.341275 
" style="fill:none;stroke:#36ada4;stroke-linecap:round;stroke-width:1.2;"/>
    </g>
    <g id="line2d_74"/>
    <g id="text_66">
     <!-- D -->
     <g style="fill:#262626;" transform="translate(305.074106 319.421275)scale(0.088 -0.088)">
      <use xlink:href="#DejaVuSans-68"/>
     </g>
    </g>
   </g>
  </g>
  <g id="axes_4">
   <g id="patch_19">
    <path d="M 385.345025 423.3617 
L 639.540212 423.3617 
L 639.540212 266.0644 
L 385.345025 266.0644 
z
" style="fill:#ffffff;"/>
   </g>
   <g id="matplotlib.axis_7">
    <g id="xtick_28">
     <g id="line2d_75">
      <path clip-path="url(#p69d32a5b20)" d="M 396.899351 423.3617 
L 396.899351 266.0644 
" style="fill:none;stroke:#cccccc;stroke-linecap:round;stroke-width:0.8;"/>
     </g>
     <g id="text_67">
      <!-- 0 -->
      <g style="fill:#262626;" transform="translate(394.099851 438.348325)scale(0.088 -0.088)">
       <use xlink:href="#DejaVuSans-48"/>
      </g>
     </g>
    </g>
    <g id="xtick_29">
     <g id="line2d_76">
      <path clip-path="url(#p69d32a5b20)" d="M 443.162922 423.3617 
L 443.162922 266.0644 
" style="fill:none;stroke:#cccccc;stroke-linecap:round;stroke-width:0.8;"/>
     </g>
     <g id="text_68">
      <!-- 20 -->
      <g style="fill:#262626;" transform="translate(437.563922 438.348325)scale(0.088 -0.088)">
       <use xlink:href="#DejaVuSans-50"/>
       <use x="63.623047" xlink:href="#DejaVuSans-48"/>
      </g>
     </g>
    </g>
    <g id="xtick_30">
     <g id="line2d_77">
      <path clip-path="url(#p69d32a5b20)" d="M 489.426492 423.3617 
L 489.426492 266.0644 
" style="fill:none;stroke:#cccccc;stroke-linecap:round;stroke-width:0.8;"/>
     </g>
     <g id="text_69">
      <!-- 40 -->
      <g style="fill:#262626;" transform="translate(483.827492 438.348325)scale(0.088 -0.088)">
       <use xlink:href="#DejaVuSans-52"/>
       <use x="63.623047" xlink:href="#DejaVuSans-48"/>
      </g>
     </g>
    </g>
    <g id="xtick_31">
     <g id="line2d_78">
      <path clip-path="url(#p69d32a5b20)" d="M 535.690063 423.3617 
L 535.690063 266.0644 
" style="fill:none;stroke:#cccccc;stroke-linecap:round;stroke-width:0.8;"/>
     </g>
     <g id="text_70">
      <!-- 60 -->
      <g style="fill:#262626;" transform="translate(530.091063 438.348325)scale(0.088 -0.088)">
       <use xlink:href="#DejaVuSans-54"/>
       <use x="63.623047" xlink:href="#DejaVuSans-48"/>
      </g>
     </g>
    </g>
    <g id="xtick_32">
     <g id="line2d_79">
      <path clip-path="url(#p69d32a5b20)" d="M 581.953633 423.3617 
L 581.953633 266.0644 
" style="fill:none;stroke:#cccccc;stroke-linecap:round;stroke-width:0.8;"/>
     </g>
     <g id="text_71">
      <!-- 80 -->
      <g style="fill:#262626;" transform="translate(576.354633 438.348325)scale(0.088 -0.088)">
       <use xlink:href="#DejaVuSans-56"/>
       <use x="63.623047" xlink:href="#DejaVuSans-48"/>
      </g>
     </g>
    </g>
    <g id="xtick_33">
     <g id="line2d_80">
      <path clip-path="url(#p69d32a5b20)" d="M 628.217203 423.3617 
L 628.217203 266.0644 
" style="fill:none;stroke:#cccccc;stroke-linecap:round;stroke-width:0.8;"/>
     </g>
     <g id="text_72">
      <!-- 100 -->
      <g style="fill:#262626;" transform="translate(619.818703 438.348325)scale(0.088 -0.088)">
       <use xlink:href="#DejaVuSans-49"/>
       <use x="63.623047" xlink:href="#DejaVuSans-48"/>
       <use x="127.246094" xlink:href="#DejaVuSans-48"/>
      </g>
     </g>
    </g>
    <g id="text_73">
     <!-- Time (a.u.) -->
     <defs>
      <path d="M -0.296875 72.90625 
L 61.375 72.90625 
L 61.375 64.59375 
L 35.5 64.59375 
L 35.5 0 
L 25.59375 0 
L 25.59375 64.59375 
L -0.296875 64.59375 
z
" id="DejaVuSans-84"/>
     </defs>
     <g style="fill:#262626;" transform="translate(486.245118 451.47295)scale(0.096 -0.096)">
      <use xlink:href="#DejaVuSans-84"/>
      <use x="61.037109" xlink:href="#DejaVuSans-105"/>
      <use x="88.820312" xlink:href="#DejaVuSans-109"/>
      <use x="186.232422" xlink:href="#DejaVuSans-101"/>
      <use x="247.755859" xlink:href="#DejaVuSans-32"/>
      <use x="279.542969" xlink:href="#DejaVuSans-40"/>
      <use x="318.556641" xlink:href="#DejaVuSans-97"/>
      <use x="379.835938" xlink:href="#DejaVuSans-46"/>
      <use x="411.623047" xlink:href="#DejaVuSans-117"/>
      <use x="475.001953" xlink:href="#DejaVuSans-46"/>
      <use x="506.789062" xlink:href="#DejaVuSans-41"/>
     </g>
    </g>
   </g>
   <g id="matplotlib.axis_8">
    <g id="ytick_23">
     <g id="line2d_81">
      <path clip-path="url(#p69d32a5b20)" d="M 385.345025 416.211823 
L 639.540212 416.211823 
" style="fill:none;stroke:#cccccc;stroke-linecap:round;stroke-width:0.8;"/>
     </g>
     <g id="text_74">
      <!-- 0.00 -->
      <g style="fill:#262626;" transform="translate(357.451275 419.555135)scale(0.088 -0.088)">
       <use xlink:href="#DejaVuSans-48"/>
       <use x="63.623047" xlink:href="#DejaVuSans-46"/>
       <use x="95.410156" xlink:href="#DejaVuSans-48"/>
       <use x="159.033203" xlink:href="#DejaVuSans-48"/>
      </g>
     </g>
    </g>
    <g id="ytick_24">
     <g id="line2d_82">
      <path clip-path="url(#p69d32a5b20)" d="M 385.345025 395.333704 
L 639.540212 395.333704 
" style="fill:none;stroke:#cccccc;stroke-linecap:round;stroke-width:0.8;"/>
     </g>
     <g id="text_75">
      <!-- 0.25 -->
      <g style="fill:#262626;" transform="translate(357.451275 398.677016)scale(0.088 -0.088)">
       <use xlink:href="#DejaVuSans-48"/>
       <use x="63.623047" xlink:href="#DejaVuSans-46"/>
       <use x="95.410156" xlink:href="#DejaVuSans-50"/>
       <use x="159.033203" xlink:href="#DejaVuSans-53"/>
      </g>
     </g>
    </g>
    <g id="ytick_25">
     <g id="line2d_83">
      <path clip-path="url(#p69d32a5b20)" d="M 385.345025 374.455585 
L 639.540212 374.455585 
" style="fill:none;stroke:#cccccc;stroke-linecap:round;stroke-width:0.8;"/>
     </g>
     <g id="text_76">
      <!-- 0.50 -->
      <g style="fill:#262626;" transform="translate(357.451275 377.798897)scale(0.088 -0.088)">
       <use xlink:href="#DejaVuSans-48"/>
       <use x="63.623047" xlink:href="#DejaVuSans-46"/>
       <use x="95.410156" xlink:href="#DejaVuSans-53"/>
       <use x="159.033203" xlink:href="#DejaVuSans-48"/>
      </g>
     </g>
    </g>
    <g id="ytick_26">
     <g id="line2d_84">
      <path clip-path="url(#p69d32a5b20)" d="M 385.345025 353.577466 
L 639.540212 353.577466 
" style="fill:none;stroke:#cccccc;stroke-linecap:round;stroke-width:0.8;"/>
     </g>
     <g id="text_77">
      <!-- 0.75 -->
      <g style="fill:#262626;" transform="translate(357.451275 356.920778)scale(0.088 -0.088)">
       <use xlink:href="#DejaVuSans-48"/>
       <use x="63.623047" xlink:href="#DejaVuSans-46"/>
       <use x="95.410156" xlink:href="#DejaVuSans-55"/>
       <use x="159.033203" xlink:href="#DejaVuSans-53"/>
      </g>
     </g>
    </g>
    <g id="ytick_27">
     <g id="line2d_85">
      <path clip-path="url(#p69d32a5b20)" d="M 385.345025 332.699347 
L 639.540212 332.699347 
" style="fill:none;stroke:#cccccc;stroke-linecap:round;stroke-width:0.8;"/>
     </g>
     <g id="text_78">
      <!-- 1.00 -->
      <g style="fill:#262626;" transform="translate(357.451275 336.042659)scale(0.088 -0.088)">
       <use xlink:href="#DejaVuSans-49"/>
       <use x="63.623047" xlink:href="#DejaVuSans-46"/>
       <use x="95.410156" xlink:href="#DejaVuSans-48"/>
       <use x="159.033203" xlink:href="#DejaVuSans-48"/>
      </g>
     </g>
    </g>
    <g id="ytick_28">
     <g id="line2d_86">
      <path clip-path="url(#p69d32a5b20)" d="M 385.345025 311.821227 
L 639.540212 311.821227 
" style="fill:none;stroke:#cccccc;stroke-linecap:round;stroke-width:0.8;"/>
     </g>
     <g id="text_79">
      <!-- 1.25 -->
      <g style="fill:#262626;" transform="translate(357.451275 315.16454)scale(0.088 -0.088)">
       <use xlink:href="#DejaVuSans-49"/>
       <use x="63.623047" xlink:href="#DejaVuSans-46"/>
       <use x="95.410156" xlink:href="#DejaVuSans-50"/>
       <use x="159.033203" xlink:href="#DejaVuSans-53"/>
      </g>
     </g>
    </g>
    <g id="ytick_29">
     <g id="line2d_87">
      <path clip-path="url(#p69d32a5b20)" d="M 385.345025 290.943108 
L 639.540212 290.943108 
" style="fill:none;stroke:#cccccc;stroke-linecap:round;stroke-width:0.8;"/>
     </g>
     <g id="text_80">
      <!-- 1.50 -->
      <g style="fill:#262626;" transform="translate(357.451275 294.286421)scale(0.088 -0.088)">
       <use xlink:href="#DejaVuSans-49"/>
       <use x="63.623047" xlink:href="#DejaVuSans-46"/>
       <use x="95.410156" xlink:href="#DejaVuSans-53"/>
       <use x="159.033203" xlink:href="#DejaVuSans-48"/>
      </g>
     </g>
    </g>
    <g id="ytick_30">
     <g id="line2d_88">
      <path clip-path="url(#p69d32a5b20)" d="M 385.345025 270.064989 
L 639.540212 270.064989 
" style="fill:none;stroke:#cccccc;stroke-linecap:round;stroke-width:0.8;"/>
     </g>
     <g id="text_81">
      <!-- 1.75 -->
      <g style="fill:#262626;" transform="translate(357.451275 273.408302)scale(0.088 -0.088)">
       <use xlink:href="#DejaVuSans-49"/>
       <use x="63.623047" xlink:href="#DejaVuSans-46"/>
       <use x="95.410156" xlink:href="#DejaVuSans-55"/>
       <use x="159.033203" xlink:href="#DejaVuSans-53"/>
      </g>
     </g>
    </g>
    <g id="text_82">
     <!-- Model output (a.u.) -->
     <g style="fill:#262626;" transform="translate(351.454775 390.78855)rotate(-90)scale(0.096 -0.096)">
      <use xlink:href="#DejaVuSans-77"/>
      <use x="86.279297" xlink:href="#DejaVuSans-111"/>
      <use x="147.460938" xlink:href="#DejaVuSans-100"/>
      <use x="210.9375" xlink:href="#DejaVuSans-101"/>
      <use x="272.460938" xlink:href="#DejaVuSans-108"/>
      <use x="300.244141" xlink:href="#DejaVuSans-32"/>
      <use x="332.03125" xlink:href="#DejaVuSans-111"/>
      <use x="393.212891" xlink:href="#DejaVuSans-117"/>
      <use x="456.591797" xlink:href="#DejaVuSans-116"/>
      <use x="495.800781" xlink:href="#DejaVuSans-112"/>
      <use x="559.277344" xlink:href="#DejaVuSans-117"/>
      <use x="622.65625" xlink:href="#DejaVuSans-116"/>
      <use x="661.865234" xlink:href="#DejaVuSans-32"/>
      <use x="693.652344" xlink:href="#DejaVuSans-40"/>
      <use x="732.666016" xlink:href="#DejaVuSans-97"/>
      <use x="793.945312" xlink:href="#DejaVuSans-46"/>
      <use x="825.732422" xlink:href="#DejaVuSans-117"/>
      <use x="889.111328" xlink:href="#DejaVuSans-46"/>
      <use x="920.898438" xlink:href="#DejaVuSans-41"/>
     </g>
    </g>
   </g>
   <g id="line2d_89">
    <path clip-path="url(#p69d32a5b20)" d="M 396.899351 351.559052 
L 397.593305 353.018207 
L 398.287259 354.028758 
L 398.981212 354.642807 
L 399.675166 354.931547 
L 400.369119 354.966558 
L 401.294391 354.721628 
L 402.219662 354.239258 
L 403.607569 353.221814 
L 405.458112 351.530938 
L 408.233926 348.627297 
L 413.785555 342.391759 
L 420.72509 334.69835 
L 425.814083 329.380491 
L 430.671758 324.620376 
L 435.298115 320.385686 
L 439.924472 316.440527 
L 444.550829 312.776537 
L 449.408504 309.219054 
L 454.266179 305.942843 
L 459.123854 302.931161 
L 464.212846 300.041215 
L 469.301839 297.403438 
L 474.62215 294.894832 
L 480.173778 292.526455 
L 485.956724 290.30632 
L 491.970989 288.239484 
L 498.216571 286.328211 
L 504.924788 284.513427 
L 511.864324 282.865778 
L 519.266495 281.334125 
L 527.36262 279.890545 
L 536.152698 278.557894 
L 545.63673 277.351215 
L 556.046033 276.256159 
L 567.611926 275.268864 
L 580.565726 274.391553 
L 595.370068 273.617967 
L 605.085418 273.214277 
L 605.316736 416.211823 
L 627.985885 416.211823 
L 627.985885 416.211823 
" style="fill:none;stroke:#f77189;stroke-linecap:round;stroke-width:1.2;"/>
   </g>
   <g id="line2d_90">
    <path clip-path="url(#p69d32a5b20)" d="M 396.899351 351.782296 
L 398.518576 372.961522 
L 399.443848 382.267449 
L 400.369119 389.067387 
L 401.294391 393.909383 
L 402.219662 397.390391 
L 403.144933 399.952477 
L 404.070205 401.888625 
L 404.995476 403.388612 
L 406.152066 404.835225 
L 407.308655 405.947729 
L 408.696562 406.977316 
L 410.315787 407.887609 
L 412.16633 408.667322 
L 414.479508 409.381568 
L 417.255322 409.989483 
L 420.72509 410.507364 
L 425.120129 410.925982 
L 430.903076 411.238253 
L 438.767883 411.420044 
L 449.87114 411.433139 
L 467.913932 411.20384 
L 532.914248 410.245376 
L 575.014097 409.932327 
L 605.085418 409.806605 
L 605.316736 416.211823 
L 627.985885 416.211823 
L 627.985885 416.211823 
" style="fill:none;stroke:#bb9832;stroke-linecap:round;stroke-width:1.2;"/>
   </g>
   <g id="line2d_91">
    <path clip-path="url(#p69d32a5b20)" d="M 396.899351 351.727182 
L 398.287259 330.304596 
L 399.21253 319.046893 
L 400.137801 310.762289 
L 401.063073 304.881019 
L 401.988344 300.69916 
L 402.913616 297.67434 
L 403.838887 295.441758 
L 404.764158 293.763756 
L 405.68943 292.484396 
L 406.846019 291.289853 
L 408.002608 290.421582 
L 409.390515 289.688288 
L 410.778423 289.199283 
L 412.397648 288.851806 
L 414.479508 288.656816 
L 416.792687 288.671589 
L 419.799819 288.934612 
L 423.500904 289.50139 
L 428.358579 290.485971 
L 435.529433 292.188941 
L 463.981528 299.155673 
L 473.928196 301.266061 
L 483.643546 303.105006 
L 493.590214 304.762682 
L 503.999517 306.268762 
L 514.871456 307.616116 
L 526.668666 308.849654 
L 539.391148 309.952872 
L 553.501537 310.948163 
L 569.231151 311.829854 
L 587.042626 312.602065 
L 605.085418 313.197669 
L 605.316736 416.211823 
L 627.985885 416.211823 
L 627.985885 416.211823 
" style="fill:none;stroke:#50b131;stroke-linecap:round;stroke-width:1.2;"/>
   </g>
   <g id="line2d_92">
    <path clip-path="url(#p69d32a5b20)" d="M 396.899351 351.423981 
L 397.824623 351.711347 
L 398.981212 352.331512 
L 400.369119 353.362852 
L 402.45098 355.22992 
L 407.077337 359.780327 
L 412.860283 365.358432 
L 417.48664 369.51142 
L 421.881679 373.164598 
L 426.276719 376.53363 
L 430.671758 379.62963 
L 435.298115 382.610494 
L 439.924472 385.325528 
L 444.782147 387.912082 
L 449.639822 390.250131 
L 454.728814 392.456326 
L 460.049125 394.521393 
L 465.600753 396.439138 
L 471.3837 398.206268 
L 477.629282 399.880147 
L 484.337499 401.439343 
L 491.508353 402.868406 
L 499.141842 404.157748 
L 507.469285 405.332991 
L 516.490681 406.378662 
L 526.437348 407.306741 
L 537.771923 408.134203 
L 550.494405 408.836013 
L 565.530065 409.434264 
L 583.34154 409.912973 
L 605.085418 410.273958 
L 605.316736 416.211823 
L 627.985885 416.211823 
L 627.985885 416.211823 
" style="fill:none;stroke:#36ada4;stroke-linecap:round;stroke-width:1.2;"/>
   </g>
   <g id="patch_20">
    <path d="M 385.345025 423.3617 
L 385.345025 266.0644 
" style="fill:none;stroke:#cccccc;stroke-linecap:square;stroke-linejoin:miter;"/>
   </g>
   <g id="patch_21">
    <path d="M 639.540212 423.3617 
L 639.540212 266.0644 
" style="fill:none;stroke:#cccccc;stroke-linecap:square;stroke-linejoin:miter;"/>
   </g>
   <g id="patch_22">
    <path d="M 385.345025 423.3617 
L 639.540212 423.3617 
" style="fill:none;stroke:#cccccc;stroke-linecap:square;stroke-linejoin:miter;"/>
   </g>
   <g id="patch_23">
    <path d="M 385.345025 266.0644 
L 639.540212 266.0644 
" style="fill:none;stroke:#cccccc;stroke-linecap:square;stroke-linejoin:miter;"/>
   </g>
   <g id="text_83">
    <!-- optimized model -->
    <g style="fill:#262626;" transform="translate(472.241868 260.0644)scale(0.096 -0.096)">
     <use xlink:href="#DejaVuSans-111"/>
     <use x="61.181641" xlink:href="#DejaVuSans-112"/>
     <use x="124.658203" xlink:href="#DejaVuSans-116"/>
     <use x="163.867188" xlink:href="#DejaVuSans-105"/>
     <use x="191.650391" xlink:href="#DejaVuSans-109"/>
     <use x="289.0625" xlink:href="#DejaVuSans-105"/>
     <use x="316.845703" xlink:href="#DejaVuSans-122"/>
     <use x="369.335938" xlink:href="#DejaVuSans-101"/>
     <use x="430.859375" xlink:href="#DejaVuSans-100"/>
     <use x="494.335938" xlink:href="#DejaVuSans-32"/>
     <use x="526.123047" xlink:href="#DejaVuSans-109"/>
     <use x="623.535156" xlink:href="#DejaVuSans-111"/>
     <use x="684.716797" xlink:href="#DejaVuSans-100"/>
     <use x="748.193359" xlink:href="#DejaVuSans-101"/>
     <use x="809.716797" xlink:href="#DejaVuSans-108"/>
    </g>
   </g>
   <g id="legend_3">
    <g id="patch_24">
     <path d="M 494.974618 371.86655 
L 529.910618 371.86655 
Q 531.670618 371.86655 531.670618 370.10655 
L 531.670618 319.31955 
Q 531.670618 317.55955 529.910618 317.55955 
L 494.974618 317.55955 
Q 493.214618 317.55955 493.214618 319.31955 
L 493.214618 370.10655 
Q 493.214618 371.86655 494.974618 371.86655 
z
" style="fill:#ffffff;opacity:0.8;stroke:#cccccc;stroke-linejoin:miter;stroke-width:0.8;"/>
    </g>
    <g id="line2d_93">
     <path d="M 496.734618 324.686175 
L 514.334618 324.686175 
" style="fill:none;stroke:#f77189;stroke-linecap:round;stroke-width:1.2;"/>
    </g>
    <g id="line2d_94"/>
    <g id="text_84">
     <!-- N -->
     <g style="fill:#262626;" transform="translate(521.374618 327.766175)scale(0.088 -0.088)">
      <use xlink:href="#DejaVuSans-78"/>
     </g>
    </g>
    <g id="line2d_95">
     <path d="M 496.734618 337.602925 
L 514.334618 337.602925 
" style="fill:none;stroke:#bb9832;stroke-linecap:round;stroke-width:1.2;"/>
    </g>
    <g id="line2d_96"/>
    <g id="text_85">
     <!-- P -->
     <g style="fill:#262626;" transform="translate(521.374618 340.682925)scale(0.088 -0.088)">
      <use xlink:href="#DejaVuSans-80"/>
     </g>
    </g>
    <g id="line2d_97">
     <path d="M 496.734618 350.519675 
L 514.334618 350.519675 
" style="fill:none;stroke:#50b131;stroke-linecap:round;stroke-width:1.2;"/>
    </g>
    <g id="line2d_98"/>
    <g id="text_86">
     <!-- Z -->
     <g style="fill:#262626;" transform="translate(521.374618 353.599675)scale(0.088 -0.088)">
      <use xlink:href="#DejaVuSans-90"/>
     </g>
    </g>
    <g id="line2d_99">
     <path d="M 496.734618 363.436425 
L 514.334618 363.436425 
" style="fill:none;stroke:#36ada4;stroke-linecap:round;stroke-width:1.2;"/>
    </g>
    <g id="line2d_100"/>
    <g id="text_87">
     <!-- D -->
     <g style="fill:#262626;" transform="translate(521.374618 366.516425)scale(0.088 -0.088)">
      <use xlink:href="#DejaVuSans-68"/>
     </g>
    </g>
   </g>
  </g>
  <g id="text_88">
   <!-- Results of optimization run -->
   <defs>
    <path d="M 44.390625 34.1875 
Q 47.5625 33.109375 50.5625 29.59375 
Q 53.5625 26.078125 56.59375 19.921875 
L 66.609375 0 
L 56 0 
L 46.6875 18.703125 
Q 43.0625 26.03125 39.671875 28.421875 
Q 36.28125 30.8125 30.421875 30.8125 
L 19.671875 30.8125 
L 19.671875 0 
L 9.8125 0 
L 9.8125 72.90625 
L 32.078125 72.90625 
Q 44.578125 72.90625 50.734375 67.671875 
Q 56.890625 62.453125 56.890625 51.90625 
Q 56.890625 45.015625 53.6875 40.46875 
Q 50.484375 35.9375 44.390625 34.1875 
z
M 19.671875 64.796875 
L 19.671875 38.921875 
L 32.078125 38.921875 
Q 39.203125 38.921875 42.84375 42.21875 
Q 46.484375 45.515625 46.484375 51.90625 
Q 46.484375 58.296875 42.84375 61.546875 
Q 39.203125 64.796875 32.078125 64.796875 
z
" id="DejaVuSans-82"/>
   </defs>
   <g style="fill:#262626;" transform="translate(250.3584 18.3726)scale(0.1152 -0.1152)">
    <use xlink:href="#DejaVuSans-82"/>
    <use x="69.419922" xlink:href="#DejaVuSans-101"/>
    <use x="130.943359" xlink:href="#DejaVuSans-115"/>
    <use x="183.042969" xlink:href="#DejaVuSans-117"/>
    <use x="246.421875" xlink:href="#DejaVuSans-108"/>
    <use x="274.205078" xlink:href="#DejaVuSans-116"/>
    <use x="313.414062" xlink:href="#DejaVuSans-115"/>
    <use x="365.513672" xlink:href="#DejaVuSans-32"/>
    <use x="397.300781" xlink:href="#DejaVuSans-111"/>
    <use x="458.482422" xlink:href="#DejaVuSans-102"/>
    <use x="493.6875" xlink:href="#DejaVuSans-32"/>
    <use x="525.474609" xlink:href="#DejaVuSans-111"/>
    <use x="586.65625" xlink:href="#DejaVuSans-112"/>
    <use x="650.132812" xlink:href="#DejaVuSans-116"/>
    <use x="689.341797" xlink:href="#DejaVuSans-105"/>
    <use x="717.125" xlink:href="#DejaVuSans-109"/>
    <use x="814.537109" xlink:href="#DejaVuSans-105"/>
    <use x="842.320312" xlink:href="#DejaVuSans-122"/>
    <use x="894.810547" xlink:href="#DejaVuSans-97"/>
    <use x="956.089844" xlink:href="#DejaVuSans-116"/>
    <use x="995.298828" xlink:href="#DejaVuSans-105"/>
    <use x="1023.082031" xlink:href="#DejaVuSans-111"/>
    <use x="1084.263672" xlink:href="#DejaVuSans-110"/>
    <use x="1147.642578" xlink:href="#DejaVuSans-32"/>
    <use x="1179.429688" xlink:href="#DejaVuSans-114"/>
    <use x="1220.542969" xlink:href="#DejaVuSans-117"/>
    <use x="1283.921875" xlink:href="#DejaVuSans-110"/>
   </g>
  </g>
 </g>
 <defs>
  <clipPath id="p99d239984f">
   <rect height="157.2973" width="254.195187" x="65.574919" y="32.7988"/>
  </clipPath>
  <clipPath id="p28874aeab9">
   <rect height="157.2973" width="254.195187" x="385.345025" y="32.7988"/>
  </clipPath>
  <clipPath id="pe6f35812a6">
   <rect height="157.2973" width="254.195187" x="65.574919" y="266.0644"/>
  </clipPath>
  <clipPath id="p69d32a5b20">
   <rect height="157.2973" width="254.195187" x="385.345025" y="266.0644"/>
  </clipPath>
 </defs>
</svg>
