<?xml version="1.0" encoding="utf-8" standalone="no"?>
<!DOCTYPE svg PUBLIC "-//W3C//DTD SVG 1.1//EN"
  "http://www.w3.org/Graphics/SVG/1.1/DTD/svg11.dtd">
<!-- Created with matplotlib (https://matplotlib.org/) -->
<svg height="403.2pt" version="1.1" viewBox="0 0 535.68 403.2" width="535.68pt" xmlns="http://www.w3.org/2000/svg" xmlns:xlink="http://www.w3.org/1999/xlink">
 <defs>
  <style type="text/css">
*{stroke-linecap:butt;stroke-linejoin:round;}
  </style>
 </defs>
 <g id="figure_1">
  <g id="patch_1">
   <path d="M 0 403.2 
L 535.68 403.2 
L 535.68 0 
L 0 0 
z
" style="fill:#ffffff;"/>
  </g>
  <g id="axes_1">
   <g id="patch_2">
    <path d="M 53.55405 159.362 
L 258.527577 159.362 
L 258.527577 27.496 
L 53.55405 27.496 
z
" style="fill:#ffffff;"/>
   </g>
   <g id="matplotlib.axis_1">
    <g id="xtick_1">
     <g id="line2d_1">
      <path clip-path="url(#p78322bcb1e)" d="M 62.871028 159.362 
L 62.871028 27.496 
" style="fill:none;stroke:#cccccc;stroke-linecap:round;stroke-width:0.8;"/>
     </g>
     <g id="text_1">
      <!-- 0 -->
      <defs>
       <path d="M 31.78125 66.40625 
Q 24.171875 66.40625 20.328125 58.90625 
Q 16.5 51.421875 16.5 36.375 
Q 16.5 21.390625 20.328125 13.890625 
Q 24.171875 6.390625 31.78125 6.390625 
Q 39.453125 6.390625 43.28125 13.890625 
Q 47.125 21.390625 47.125 36.375 
Q 47.125 51.421875 43.28125 58.90625 
Q 39.453125 66.40625 31.78125 66.40625 
z
M 31.78125 74.21875 
Q 44.046875 74.21875 50.515625 64.515625 
Q 56.984375 54.828125 56.984375 36.375 
Q 56.984375 17.96875 50.515625 8.265625 
Q 44.046875 -1.421875 31.78125 -1.421875 
Q 19.53125 -1.421875 13.0625 8.265625 
Q 6.59375 17.96875 6.59375 36.375 
Q 6.59375 54.828125 13.0625 64.515625 
Q 19.53125 74.21875 31.78125 74.21875 
z
" id="DejaVuSans-48"/>
      </defs>
      <g style="fill:#262626;" transform="translate(60.071528 174.348625)scale(0.088 -0.088)">
       <use xlink:href="#DejaVuSans-48"/>
      </g>
     </g>
    </g>
    <g id="xtick_2">
     <g id="line2d_2">
      <path clip-path="url(#p78322bcb1e)" d="M 101.691772 159.362 
L 101.691772 27.496 
" style="fill:none;stroke:#cccccc;stroke-linecap:round;stroke-width:0.8;"/>
     </g>
     <g id="text_2">
      <!-- 10 -->
      <defs>
       <path d="M 12.40625 8.296875 
L 28.515625 8.296875 
L 28.515625 63.921875 
L 10.984375 60.40625 
L 10.984375 69.390625 
L 28.421875 72.90625 
L 38.28125 72.90625 
L 38.28125 8.296875 
L 54.390625 8.296875 
L 54.390625 0 
L 12.40625 0 
z
" id="DejaVuSans-49"/>
      </defs>
      <g style="fill:#262626;" transform="translate(96.092772 174.348625)scale(0.088 -0.088)">
       <use xlink:href="#DejaVuSans-49"/>
       <use x="63.623047" xlink:href="#DejaVuSans-48"/>
      </g>
     </g>
    </g>
    <g id="xtick_3">
     <g id="line2d_3">
      <path clip-path="url(#p78322bcb1e)" d="M 140.512516 159.362 
L 140.512516 27.496 
" style="fill:none;stroke:#cccccc;stroke-linecap:round;stroke-width:0.8;"/>
     </g>
     <g id="text_3">
      <!-- 20 -->
      <defs>
       <path d="M 19.1875 8.296875 
L 53.609375 8.296875 
L 53.609375 0 
L 7.328125 0 
L 7.328125 8.296875 
Q 12.9375 14.109375 22.625 23.890625 
Q 32.328125 33.6875 34.8125 36.53125 
Q 39.546875 41.84375 41.421875 45.53125 
Q 43.3125 49.21875 43.3125 52.78125 
Q 43.3125 58.59375 39.234375 62.25 
Q 35.15625 65.921875 28.609375 65.921875 
Q 23.96875 65.921875 18.8125 64.3125 
Q 13.671875 62.703125 7.8125 59.421875 
L 7.8125 69.390625 
Q 13.765625 71.78125 18.9375 73 
Q 24.125 74.21875 28.421875 74.21875 
Q 39.75 74.21875 46.484375 68.546875 
Q 53.21875 62.890625 53.21875 53.421875 
Q 53.21875 48.921875 51.53125 44.890625 
Q 49.859375 40.875 45.40625 35.40625 
Q 44.1875 33.984375 37.640625 27.21875 
Q 31.109375 20.453125 19.1875 8.296875 
z
" id="DejaVuSans-50"/>
      </defs>
      <g style="fill:#262626;" transform="translate(134.913516 174.348625)scale(0.088 -0.088)">
       <use xlink:href="#DejaVuSans-50"/>
       <use x="63.623047" xlink:href="#DejaVuSans-48"/>
      </g>
     </g>
    </g>
    <g id="xtick_4">
     <g id="line2d_4">
      <path clip-path="url(#p78322bcb1e)" d="M 179.33326 159.362 
L 179.33326 27.496 
" style="fill:none;stroke:#cccccc;stroke-linecap:round;stroke-width:0.8;"/>
     </g>
     <g id="text_4">
      <!-- 30 -->
      <defs>
       <path d="M 40.578125 39.3125 
Q 47.65625 37.796875 51.625 33 
Q 55.609375 28.21875 55.609375 21.1875 
Q 55.609375 10.40625 48.1875 4.484375 
Q 40.765625 -1.421875 27.09375 -1.421875 
Q 22.515625 -1.421875 17.65625 -0.515625 
Q 12.796875 0.390625 7.625 2.203125 
L 7.625 11.71875 
Q 11.71875 9.328125 16.59375 8.109375 
Q 21.484375 6.890625 26.8125 6.890625 
Q 36.078125 6.890625 40.9375 10.546875 
Q 45.796875 14.203125 45.796875 21.1875 
Q 45.796875 27.640625 41.28125 31.265625 
Q 36.765625 34.90625 28.71875 34.90625 
L 20.21875 34.90625 
L 20.21875 43.015625 
L 29.109375 43.015625 
Q 36.375 43.015625 40.234375 45.921875 
Q 44.09375 48.828125 44.09375 54.296875 
Q 44.09375 59.90625 40.109375 62.90625 
Q 36.140625 65.921875 28.71875 65.921875 
Q 24.65625 65.921875 20.015625 65.03125 
Q 15.375 64.15625 9.8125 62.3125 
L 9.8125 71.09375 
Q 15.4375 72.65625 20.34375 73.4375 
Q 25.25 74.21875 29.59375 74.21875 
Q 40.828125 74.21875 47.359375 69.109375 
Q 53.90625 64.015625 53.90625 55.328125 
Q 53.90625 49.265625 50.4375 45.09375 
Q 46.96875 40.921875 40.578125 39.3125 
z
" id="DejaVuSans-51"/>
      </defs>
      <g style="fill:#262626;" transform="translate(173.73426 174.348625)scale(0.088 -0.088)">
       <use xlink:href="#DejaVuSans-51"/>
       <use x="63.623047" xlink:href="#DejaVuSans-48"/>
      </g>
     </g>
    </g>
    <g id="xtick_5">
     <g id="line2d_5">
      <path clip-path="url(#p78322bcb1e)" d="M 218.154003 159.362 
L 218.154003 27.496 
" style="fill:none;stroke:#cccccc;stroke-linecap:round;stroke-width:0.8;"/>
     </g>
     <g id="text_5">
      <!-- 40 -->
      <defs>
       <path d="M 37.796875 64.3125 
L 12.890625 25.390625 
L 37.796875 25.390625 
z
M 35.203125 72.90625 
L 47.609375 72.90625 
L 47.609375 25.390625 
L 58.015625 25.390625 
L 58.015625 17.1875 
L 47.609375 17.1875 
L 47.609375 0 
L 37.796875 0 
L 37.796875 17.1875 
L 4.890625 17.1875 
L 4.890625 26.703125 
z
" id="DejaVuSans-52"/>
      </defs>
      <g style="fill:#262626;" transform="translate(212.555003 174.348625)scale(0.088 -0.088)">
       <use xlink:href="#DejaVuSans-52"/>
       <use x="63.623047" xlink:href="#DejaVuSans-48"/>
      </g>
     </g>
    </g>
    <g id="xtick_6">
     <g id="line2d_6">
      <path clip-path="url(#p78322bcb1e)" d="M 256.974747 159.362 
L 256.974747 27.496 
" style="fill:none;stroke:#cccccc;stroke-linecap:round;stroke-width:0.8;"/>
     </g>
     <g id="text_6">
      <!-- 50 -->
      <defs>
       <path d="M 10.796875 72.90625 
L 49.515625 72.90625 
L 49.515625 64.59375 
L 19.828125 64.59375 
L 19.828125 46.734375 
Q 21.96875 47.46875 24.109375 47.828125 
Q 26.265625 48.1875 28.421875 48.1875 
Q 40.625 48.1875 47.75 41.5 
Q 54.890625 34.8125 54.890625 23.390625 
Q 54.890625 11.625 47.5625 5.09375 
Q 40.234375 -1.421875 26.90625 -1.421875 
Q 22.3125 -1.421875 17.546875 -0.640625 
Q 12.796875 0.140625 7.71875 1.703125 
L 7.71875 11.625 
Q 12.109375 9.234375 16.796875 8.0625 
Q 21.484375 6.890625 26.703125 6.890625 
Q 35.15625 6.890625 40.078125 11.328125 
Q 45.015625 15.765625 45.015625 23.390625 
Q 45.015625 31 40.078125 35.4375 
Q 35.15625 39.890625 26.703125 39.890625 
Q 22.75 39.890625 18.8125 39.015625 
Q 14.890625 38.140625 10.796875 36.28125 
z
" id="DejaVuSans-53"/>
      </defs>
      <g style="fill:#262626;" transform="translate(251.375747 174.348625)scale(0.088 -0.088)">
       <use xlink:href="#DejaVuSans-53"/>
       <use x="63.623047" xlink:href="#DejaVuSans-48"/>
      </g>
     </g>
    </g>
    <g id="text_7">
     <!-- Iteration Step -->
     <defs>
      <path d="M 9.8125 72.90625 
L 19.671875 72.90625 
L 19.671875 0 
L 9.8125 0 
z
" id="DejaVuSans-73"/>
      <path d="M 18.3125 70.21875 
L 18.3125 54.6875 
L 36.8125 54.6875 
L 36.8125 47.703125 
L 18.3125 47.703125 
L 18.3125 18.015625 
Q 18.3125 11.328125 20.140625 9.421875 
Q 21.96875 7.515625 27.59375 7.515625 
L 36.8125 7.515625 
L 36.8125 0 
L 27.59375 0 
Q 17.1875 0 13.234375 3.875 
Q 9.28125 7.765625 9.28125 18.015625 
L 9.28125 47.703125 
L 2.6875 47.703125 
L 2.6875 54.6875 
L 9.28125 54.6875 
L 9.28125 70.21875 
z
" id="DejaVuSans-116"/>
      <path d="M 56.203125 29.59375 
L 56.203125 25.203125 
L 14.890625 25.203125 
Q 15.484375 15.921875 20.484375 11.0625 
Q 25.484375 6.203125 34.421875 6.203125 
Q 39.59375 6.203125 44.453125 7.46875 
Q 49.3125 8.734375 54.109375 11.28125 
L 54.109375 2.78125 
Q 49.265625 0.734375 44.1875 -0.34375 
Q 39.109375 -1.421875 33.890625 -1.421875 
Q 20.796875 -1.421875 13.15625 6.1875 
Q 5.515625 13.8125 5.515625 26.8125 
Q 5.515625 40.234375 12.765625 48.109375 
Q 20.015625 56 32.328125 56 
Q 43.359375 56 49.78125 48.890625 
Q 56.203125 41.796875 56.203125 29.59375 
z
M 47.21875 32.234375 
Q 47.125 39.59375 43.09375 43.984375 
Q 39.0625 48.390625 32.421875 48.390625 
Q 24.90625 48.390625 20.390625 44.140625 
Q 15.875 39.890625 15.1875 32.171875 
z
" id="DejaVuSans-101"/>
      <path d="M 41.109375 46.296875 
Q 39.59375 47.171875 37.8125 47.578125 
Q 36.03125 48 33.890625 48 
Q 26.265625 48 22.1875 43.046875 
Q 18.109375 38.09375 18.109375 28.8125 
L 18.109375 0 
L 9.078125 0 
L 9.078125 54.6875 
L 18.109375 54.6875 
L 18.109375 46.1875 
Q 20.953125 51.171875 25.484375 53.578125 
Q 30.03125 56 36.53125 56 
Q 37.453125 56 38.578125 55.875 
Q 39.703125 55.765625 41.0625 55.515625 
z
" id="DejaVuSans-114"/>
      <path d="M 34.28125 27.484375 
Q 23.390625 27.484375 19.1875 25 
Q 14.984375 22.515625 14.984375 16.5 
Q 14.984375 11.71875 18.140625 8.90625 
Q 21.296875 6.109375 26.703125 6.109375 
Q 34.1875 6.109375 38.703125 11.40625 
Q 43.21875 16.703125 43.21875 25.484375 
L 43.21875 27.484375 
z
M 52.203125 31.203125 
L 52.203125 0 
L 43.21875 0 
L 43.21875 8.296875 
Q 40.140625 3.328125 35.546875 0.953125 
Q 30.953125 -1.421875 24.3125 -1.421875 
Q 15.921875 -1.421875 10.953125 3.296875 
Q 6 8.015625 6 15.921875 
Q 6 25.140625 12.171875 29.828125 
Q 18.359375 34.515625 30.609375 34.515625 
L 43.21875 34.515625 
L 43.21875 35.40625 
Q 43.21875 41.609375 39.140625 45 
Q 35.0625 48.390625 27.6875 48.390625 
Q 23 48.390625 18.546875 47.265625 
Q 14.109375 46.140625 10.015625 43.890625 
L 10.015625 52.203125 
Q 14.9375 54.109375 19.578125 55.046875 
Q 24.21875 56 28.609375 56 
Q 40.484375 56 46.34375 49.84375 
Q 52.203125 43.703125 52.203125 31.203125 
z
" id="DejaVuSans-97"/>
      <path d="M 9.421875 54.6875 
L 18.40625 54.6875 
L 18.40625 0 
L 9.421875 0 
z
M 9.421875 75.984375 
L 18.40625 75.984375 
L 18.40625 64.59375 
L 9.421875 64.59375 
z
" id="DejaVuSans-105"/>
      <path d="M 30.609375 48.390625 
Q 23.390625 48.390625 19.1875 42.75 
Q 14.984375 37.109375 14.984375 27.296875 
Q 14.984375 17.484375 19.15625 11.84375 
Q 23.34375 6.203125 30.609375 6.203125 
Q 37.796875 6.203125 41.984375 11.859375 
Q 46.1875 17.53125 46.1875 27.296875 
Q 46.1875 37.015625 41.984375 42.703125 
Q 37.796875 48.390625 30.609375 48.390625 
z
M 30.609375 56 
Q 42.328125 56 49.015625 48.375 
Q 55.71875 40.765625 55.71875 27.296875 
Q 55.71875 13.875 49.015625 6.21875 
Q 42.328125 -1.421875 30.609375 -1.421875 
Q 18.84375 -1.421875 12.171875 6.21875 
Q 5.515625 13.875 5.515625 27.296875 
Q 5.515625 40.765625 12.171875 48.375 
Q 18.84375 56 30.609375 56 
z
" id="DejaVuSans-111"/>
      <path d="M 54.890625 33.015625 
L 54.890625 0 
L 45.90625 0 
L 45.90625 32.71875 
Q 45.90625 40.484375 42.875 44.328125 
Q 39.84375 48.1875 33.796875 48.1875 
Q 26.515625 48.1875 22.3125 43.546875 
Q 18.109375 38.921875 18.109375 30.90625 
L 18.109375 0 
L 9.078125 0 
L 9.078125 54.6875 
L 18.109375 54.6875 
L 18.109375 46.1875 
Q 21.34375 51.125 25.703125 53.5625 
Q 30.078125 56 35.796875 56 
Q 45.21875 56 50.046875 50.171875 
Q 54.890625 44.34375 54.890625 33.015625 
z
" id="DejaVuSans-110"/>
      <path id="DejaVuSans-32"/>
      <path d="M 53.515625 70.515625 
L 53.515625 60.890625 
Q 47.90625 63.578125 42.921875 64.890625 
Q 37.9375 66.21875 33.296875 66.21875 
Q 25.25 66.21875 20.875 63.09375 
Q 16.5 59.96875 16.5 54.203125 
Q 16.5 49.359375 19.40625 46.890625 
Q 22.3125 44.4375 30.421875 42.921875 
L 36.375 41.703125 
Q 47.40625 39.59375 52.65625 34.296875 
Q 57.90625 29 57.90625 20.125 
Q 57.90625 9.515625 50.796875 4.046875 
Q 43.703125 -1.421875 29.984375 -1.421875 
Q 24.8125 -1.421875 18.96875 -0.25 
Q 13.140625 0.921875 6.890625 3.21875 
L 6.890625 13.375 
Q 12.890625 10.015625 18.65625 8.296875 
Q 24.421875 6.59375 29.984375 6.59375 
Q 38.421875 6.59375 43.015625 9.90625 
Q 47.609375 13.234375 47.609375 19.390625 
Q 47.609375 24.75 44.3125 27.78125 
Q 41.015625 30.8125 33.5 32.328125 
L 27.484375 33.5 
Q 16.453125 35.6875 11.515625 40.375 
Q 6.59375 45.0625 6.59375 53.421875 
Q 6.59375 63.09375 13.40625 68.65625 
Q 20.21875 74.21875 32.171875 74.21875 
Q 37.3125 74.21875 42.625 73.28125 
Q 47.953125 72.359375 53.515625 70.515625 
z
" id="DejaVuSans-83"/>
      <path d="M 18.109375 8.203125 
L 18.109375 -20.796875 
L 9.078125 -20.796875 
L 9.078125 54.6875 
L 18.109375 54.6875 
L 18.109375 46.390625 
Q 20.953125 51.265625 25.265625 53.625 
Q 29.59375 56 35.59375 56 
Q 45.5625 56 51.78125 48.09375 
Q 58.015625 40.1875 58.015625 27.296875 
Q 58.015625 14.40625 51.78125 6.484375 
Q 45.5625 -1.421875 35.59375 -1.421875 
Q 29.59375 -1.421875 25.265625 0.953125 
Q 20.953125 3.328125 18.109375 8.203125 
z
M 48.6875 27.296875 
Q 48.6875 37.203125 44.609375 42.84375 
Q 40.53125 48.484375 33.40625 48.484375 
Q 26.265625 48.484375 22.1875 42.84375 
Q 18.109375 37.203125 18.109375 27.296875 
Q 18.109375 17.390625 22.1875 11.75 
Q 26.265625 6.109375 33.40625 6.109375 
Q 40.53125 6.109375 44.609375 11.75 
Q 48.6875 17.390625 48.6875 27.296875 
z
" id="DejaVuSans-112"/>
     </defs>
     <g style="fill:#262626;" transform="translate(123.225313 187.47325)scale(0.096 -0.096)">
      <use xlink:href="#DejaVuSans-73"/>
      <use x="29.492188" xlink:href="#DejaVuSans-116"/>
      <use x="68.701172" xlink:href="#DejaVuSans-101"/>
      <use x="130.224609" xlink:href="#DejaVuSans-114"/>
      <use x="171.337891" xlink:href="#DejaVuSans-97"/>
      <use x="232.617188" xlink:href="#DejaVuSans-116"/>
      <use x="271.826172" xlink:href="#DejaVuSans-105"/>
      <use x="299.609375" xlink:href="#DejaVuSans-111"/>
      <use x="360.791016" xlink:href="#DejaVuSans-110"/>
      <use x="424.169922" xlink:href="#DejaVuSans-32"/>
      <use x="455.957031" xlink:href="#DejaVuSans-83"/>
      <use x="519.433594" xlink:href="#DejaVuSans-116"/>
      <use x="558.642578" xlink:href="#DejaVuSans-101"/>
      <use x="620.166016" xlink:href="#DejaVuSans-112"/>
     </g>
    </g>
   </g>
   <g id="matplotlib.axis_2">
    <g id="ytick_1">
     <g id="line2d_7">
      <path clip-path="url(#p78322bcb1e)" d="M 53.55405 159.336839 
L 258.527577 159.336839 
" style="fill:none;stroke:#cccccc;stroke-linecap:round;stroke-width:0.8;"/>
     </g>
     <g id="text_8">
      <!-- 0.0 -->
      <defs>
       <path d="M 10.6875 12.40625 
L 21 12.40625 
L 21 0 
L 10.6875 0 
z
" id="DejaVuSans-46"/>
      </defs>
      <g style="fill:#262626;" transform="translate(31.2593 162.680151)scale(0.088 -0.088)">
       <use xlink:href="#DejaVuSans-48"/>
       <use x="63.623047" xlink:href="#DejaVuSans-46"/>
       <use x="95.410156" xlink:href="#DejaVuSans-48"/>
      </g>
     </g>
    </g>
    <g id="ytick_2">
     <g id="line2d_8">
      <path clip-path="url(#p78322bcb1e)" d="M 53.55405 136.074989 
L 258.527577 136.074989 
" style="fill:none;stroke:#cccccc;stroke-linecap:round;stroke-width:0.8;"/>
     </g>
     <g id="text_9">
      <!-- 0.2 -->
      <g style="fill:#262626;" transform="translate(31.2593 139.418301)scale(0.088 -0.088)">
       <use xlink:href="#DejaVuSans-48"/>
       <use x="63.623047" xlink:href="#DejaVuSans-46"/>
       <use x="95.410156" xlink:href="#DejaVuSans-50"/>
      </g>
     </g>
    </g>
    <g id="ytick_3">
     <g id="line2d_9">
      <path clip-path="url(#p78322bcb1e)" d="M 53.55405 112.813138 
L 258.527577 112.813138 
" style="fill:none;stroke:#cccccc;stroke-linecap:round;stroke-width:0.8;"/>
     </g>
     <g id="text_10">
      <!-- 0.4 -->
      <g style="fill:#262626;" transform="translate(31.2593 116.156451)scale(0.088 -0.088)">
       <use xlink:href="#DejaVuSans-48"/>
       <use x="63.623047" xlink:href="#DejaVuSans-46"/>
       <use x="95.410156" xlink:href="#DejaVuSans-52"/>
      </g>
     </g>
    </g>
    <g id="ytick_4">
     <g id="line2d_10">
      <path clip-path="url(#p78322bcb1e)" d="M 53.55405 89.551288 
L 258.527577 89.551288 
" style="fill:none;stroke:#cccccc;stroke-linecap:round;stroke-width:0.8;"/>
     </g>
     <g id="text_11">
      <!-- 0.6 -->
      <defs>
       <path d="M 33.015625 40.375 
Q 26.375 40.375 22.484375 35.828125 
Q 18.609375 31.296875 18.609375 23.390625 
Q 18.609375 15.53125 22.484375 10.953125 
Q 26.375 6.390625 33.015625 6.390625 
Q 39.65625 6.390625 43.53125 10.953125 
Q 47.40625 15.53125 47.40625 23.390625 
Q 47.40625 31.296875 43.53125 35.828125 
Q 39.65625 40.375 33.015625 40.375 
z
M 52.59375 71.296875 
L 52.59375 62.3125 
Q 48.875 64.0625 45.09375 64.984375 
Q 41.3125 65.921875 37.59375 65.921875 
Q 27.828125 65.921875 22.671875 59.328125 
Q 17.53125 52.734375 16.796875 39.40625 
Q 19.671875 43.65625 24.015625 45.921875 
Q 28.375 48.1875 33.59375 48.1875 
Q 44.578125 48.1875 50.953125 41.515625 
Q 57.328125 34.859375 57.328125 23.390625 
Q 57.328125 12.15625 50.6875 5.359375 
Q 44.046875 -1.421875 33.015625 -1.421875 
Q 20.359375 -1.421875 13.671875 8.265625 
Q 6.984375 17.96875 6.984375 36.375 
Q 6.984375 53.65625 15.1875 63.9375 
Q 23.390625 74.21875 37.203125 74.21875 
Q 40.921875 74.21875 44.703125 73.484375 
Q 48.484375 72.75 52.59375 71.296875 
z
" id="DejaVuSans-54"/>
      </defs>
      <g style="fill:#262626;" transform="translate(31.2593 92.8946)scale(0.088 -0.088)">
       <use xlink:href="#DejaVuSans-48"/>
       <use x="63.623047" xlink:href="#DejaVuSans-46"/>
       <use x="95.410156" xlink:href="#DejaVuSans-54"/>
      </g>
     </g>
    </g>
    <g id="ytick_5">
     <g id="line2d_11">
      <path clip-path="url(#p78322bcb1e)" d="M 53.55405 66.289437 
L 258.527577 66.289437 
" style="fill:none;stroke:#cccccc;stroke-linecap:round;stroke-width:0.8;"/>
     </g>
     <g id="text_12">
      <!-- 0.8 -->
      <defs>
       <path d="M 31.78125 34.625 
Q 24.75 34.625 20.71875 30.859375 
Q 16.703125 27.09375 16.703125 20.515625 
Q 16.703125 13.921875 20.71875 10.15625 
Q 24.75 6.390625 31.78125 6.390625 
Q 38.8125 6.390625 42.859375 10.171875 
Q 46.921875 13.96875 46.921875 20.515625 
Q 46.921875 27.09375 42.890625 30.859375 
Q 38.875 34.625 31.78125 34.625 
z
M 21.921875 38.8125 
Q 15.578125 40.375 12.03125 44.71875 
Q 8.5 49.078125 8.5 55.328125 
Q 8.5 64.0625 14.71875 69.140625 
Q 20.953125 74.21875 31.78125 74.21875 
Q 42.671875 74.21875 48.875 69.140625 
Q 55.078125 64.0625 55.078125 55.328125 
Q 55.078125 49.078125 51.53125 44.71875 
Q 48 40.375 41.703125 38.8125 
Q 48.828125 37.15625 52.796875 32.3125 
Q 56.78125 27.484375 56.78125 20.515625 
Q 56.78125 9.90625 50.3125 4.234375 
Q 43.84375 -1.421875 31.78125 -1.421875 
Q 19.734375 -1.421875 13.25 4.234375 
Q 6.78125 9.90625 6.78125 20.515625 
Q 6.78125 27.484375 10.78125 32.3125 
Q 14.796875 37.15625 21.921875 38.8125 
z
M 18.3125 54.390625 
Q 18.3125 48.734375 21.84375 45.5625 
Q 25.390625 42.390625 31.78125 42.390625 
Q 38.140625 42.390625 41.71875 45.5625 
Q 45.3125 48.734375 45.3125 54.390625 
Q 45.3125 60.0625 41.71875 63.234375 
Q 38.140625 66.40625 31.78125 66.40625 
Q 25.390625 66.40625 21.84375 63.234375 
Q 18.3125 60.0625 18.3125 54.390625 
z
" id="DejaVuSans-56"/>
      </defs>
      <g style="fill:#262626;" transform="translate(31.2593 69.63275)scale(0.088 -0.088)">
       <use xlink:href="#DejaVuSans-48"/>
       <use x="63.623047" xlink:href="#DejaVuSans-46"/>
       <use x="95.410156" xlink:href="#DejaVuSans-56"/>
      </g>
     </g>
    </g>
    <g id="ytick_6">
     <g id="line2d_12">
      <path clip-path="url(#p78322bcb1e)" d="M 53.55405 43.027587 
L 258.527577 43.027587 
" style="fill:none;stroke:#cccccc;stroke-linecap:round;stroke-width:0.8;"/>
     </g>
     <g id="text_13">
      <!-- 1.0 -->
      <g style="fill:#262626;" transform="translate(31.2593 46.370899)scale(0.088 -0.088)">
       <use xlink:href="#DejaVuSans-49"/>
       <use x="63.623047" xlink:href="#DejaVuSans-46"/>
       <use x="95.410156" xlink:href="#DejaVuSans-48"/>
      </g>
     </g>
    </g>
    <g id="text_14">
     <!-- Cost function (a.u.) -->
     <defs>
      <path d="M 64.40625 67.28125 
L 64.40625 56.890625 
Q 59.421875 61.53125 53.78125 63.8125 
Q 48.140625 66.109375 41.796875 66.109375 
Q 29.296875 66.109375 22.65625 58.46875 
Q 16.015625 50.828125 16.015625 36.375 
Q 16.015625 21.96875 22.65625 14.328125 
Q 29.296875 6.6875 41.796875 6.6875 
Q 48.140625 6.6875 53.78125 8.984375 
Q 59.421875 11.28125 64.40625 15.921875 
L 64.40625 5.609375 
Q 59.234375 2.09375 53.4375 0.328125 
Q 47.65625 -1.421875 41.21875 -1.421875 
Q 24.65625 -1.421875 15.125 8.703125 
Q 5.609375 18.84375 5.609375 36.375 
Q 5.609375 53.953125 15.125 64.078125 
Q 24.65625 74.21875 41.21875 74.21875 
Q 47.75 74.21875 53.53125 72.484375 
Q 59.328125 70.75 64.40625 67.28125 
z
" id="DejaVuSans-67"/>
      <path d="M 44.28125 53.078125 
L 44.28125 44.578125 
Q 40.484375 46.53125 36.375 47.5 
Q 32.28125 48.484375 27.875 48.484375 
Q 21.1875 48.484375 17.84375 46.4375 
Q 14.5 44.390625 14.5 40.28125 
Q 14.5 37.15625 16.890625 35.375 
Q 19.28125 33.59375 26.515625 31.984375 
L 29.59375 31.296875 
Q 39.15625 29.25 43.1875 25.515625 
Q 47.21875 21.78125 47.21875 15.09375 
Q 47.21875 7.46875 41.1875 3.015625 
Q 35.15625 -1.421875 24.609375 -1.421875 
Q 20.21875 -1.421875 15.453125 -0.5625 
Q 10.6875 0.296875 5.421875 2 
L 5.421875 11.28125 
Q 10.40625 8.6875 15.234375 7.390625 
Q 20.0625 6.109375 24.8125 6.109375 
Q 31.15625 6.109375 34.5625 8.28125 
Q 37.984375 10.453125 37.984375 14.40625 
Q 37.984375 18.0625 35.515625 20.015625 
Q 33.0625 21.96875 24.703125 23.78125 
L 21.578125 24.515625 
Q 13.234375 26.265625 9.515625 29.90625 
Q 5.8125 33.546875 5.8125 39.890625 
Q 5.8125 47.609375 11.28125 51.796875 
Q 16.75 56 26.8125 56 
Q 31.78125 56 36.171875 55.265625 
Q 40.578125 54.546875 44.28125 53.078125 
z
" id="DejaVuSans-115"/>
      <path d="M 37.109375 75.984375 
L 37.109375 68.5 
L 28.515625 68.5 
Q 23.6875 68.5 21.796875 66.546875 
Q 19.921875 64.59375 19.921875 59.515625 
L 19.921875 54.6875 
L 34.71875 54.6875 
L 34.71875 47.703125 
L 19.921875 47.703125 
L 19.921875 0 
L 10.890625 0 
L 10.890625 47.703125 
L 2.296875 47.703125 
L 2.296875 54.6875 
L 10.890625 54.6875 
L 10.890625 58.5 
Q 10.890625 67.625 15.140625 71.796875 
Q 19.390625 75.984375 28.609375 75.984375 
z
" id="DejaVuSans-102"/>
      <path d="M 8.5 21.578125 
L 8.5 54.6875 
L 17.484375 54.6875 
L 17.484375 21.921875 
Q 17.484375 14.15625 20.5 10.265625 
Q 23.53125 6.390625 29.59375 6.390625 
Q 36.859375 6.390625 41.078125 11.03125 
Q 45.3125 15.671875 45.3125 23.6875 
L 45.3125 54.6875 
L 54.296875 54.6875 
L 54.296875 0 
L 45.3125 0 
L 45.3125 8.40625 
Q 42.046875 3.421875 37.71875 1 
Q 33.40625 -1.421875 27.6875 -1.421875 
Q 18.265625 -1.421875 13.375 4.4375 
Q 8.5 10.296875 8.5 21.578125 
z
M 31.109375 56 
z
" id="DejaVuSans-117"/>
      <path d="M 48.78125 52.59375 
L 48.78125 44.1875 
Q 44.96875 46.296875 41.140625 47.34375 
Q 37.3125 48.390625 33.40625 48.390625 
Q 24.65625 48.390625 19.8125 42.84375 
Q 14.984375 37.3125 14.984375 27.296875 
Q 14.984375 17.28125 19.8125 11.734375 
Q 24.65625 6.203125 33.40625 6.203125 
Q 37.3125 6.203125 41.140625 7.25 
Q 44.96875 8.296875 48.78125 10.40625 
L 48.78125 2.09375 
Q 45.015625 0.34375 40.984375 -0.53125 
Q 36.96875 -1.421875 32.421875 -1.421875 
Q 20.0625 -1.421875 12.78125 6.34375 
Q 5.515625 14.109375 5.515625 27.296875 
Q 5.515625 40.671875 12.859375 48.328125 
Q 20.21875 56 33.015625 56 
Q 37.15625 56 41.109375 55.140625 
Q 45.0625 54.296875 48.78125 52.59375 
z
" id="DejaVuSans-99"/>
      <path d="M 31 75.875 
Q 24.46875 64.65625 21.28125 53.65625 
Q 18.109375 42.671875 18.109375 31.390625 
Q 18.109375 20.125 21.3125 9.0625 
Q 24.515625 -2 31 -13.1875 
L 23.1875 -13.1875 
Q 15.875 -1.703125 12.234375 9.375 
Q 8.59375 20.453125 8.59375 31.390625 
Q 8.59375 42.28125 12.203125 53.3125 
Q 15.828125 64.359375 23.1875 75.875 
z
" id="DejaVuSans-40"/>
      <path d="M 8.015625 75.875 
L 15.828125 75.875 
Q 23.140625 64.359375 26.78125 53.3125 
Q 30.421875 42.28125 30.421875 31.390625 
Q 30.421875 20.453125 26.78125 9.375 
Q 23.140625 -1.703125 15.828125 -13.1875 
L 8.015625 -13.1875 
Q 14.5 -2 17.703125 9.0625 
Q 20.90625 20.125 20.90625 31.390625 
Q 20.90625 42.671875 17.703125 53.65625 
Q 14.5 64.65625 8.015625 75.875 
z
" id="DejaVuSans-41"/>
     </defs>
     <g style="fill:#262626;" transform="translate(25.2628 139.53825)rotate(-90)scale(0.096 -0.096)">
      <use xlink:href="#DejaVuSans-67"/>
      <use x="69.824219" xlink:href="#DejaVuSans-111"/>
      <use x="131.005859" xlink:href="#DejaVuSans-115"/>
      <use x="183.105469" xlink:href="#DejaVuSans-116"/>
      <use x="222.314453" xlink:href="#DejaVuSans-32"/>
      <use x="254.101562" xlink:href="#DejaVuSans-102"/>
      <use x="289.306641" xlink:href="#DejaVuSans-117"/>
      <use x="352.685547" xlink:href="#DejaVuSans-110"/>
      <use x="416.064453" xlink:href="#DejaVuSans-99"/>
      <use x="471.044922" xlink:href="#DejaVuSans-116"/>
      <use x="510.253906" xlink:href="#DejaVuSans-105"/>
      <use x="538.037109" xlink:href="#DejaVuSans-111"/>
      <use x="599.21875" xlink:href="#DejaVuSans-110"/>
      <use x="662.597656" xlink:href="#DejaVuSans-32"/>
      <use x="694.384766" xlink:href="#DejaVuSans-40"/>
      <use x="733.398438" xlink:href="#DejaVuSans-97"/>
      <use x="794.677734" xlink:href="#DejaVuSans-46"/>
      <use x="826.464844" xlink:href="#DejaVuSans-117"/>
      <use x="889.84375" xlink:href="#DejaVuSans-46"/>
      <use x="921.630859" xlink:href="#DejaVuSans-41"/>
     </g>
    </g>
   </g>
   <g id="line2d_13">
    <path clip-path="url(#p78322bcb1e)" d="M 62.871028 33.489909 
L 66.753103 63.357689 
L 70.635177 83.471888 
L 74.517252 99.618028 
L 78.399326 110.243347 
L 82.2814 119.124272 
L 86.163475 122.887544 
L 90.045549 129.980436 
L 93.927623 134.752863 
L 97.809698 138.177265 
L 101.691772 141.059398 
L 105.573847 142.196866 
L 109.455921 144.677062 
L 113.337995 146.457941 
L 117.22007 147.258703 
L 121.102144 148.599994 
L 124.984218 149.319093 
L 128.866293 150.047267 
L 132.748367 149.547215 
L 136.630442 150.363606 
L 140.512516 150.972721 
L 144.39459 151.469707 
L 148.276665 151.841298 
L 152.158739 152.162388 
L 156.040813 152.417242 
L 159.922888 152.544872 
L 163.804962 152.729214 
L 167.687037 152.760455 
L 171.569111 152.898757 
L 175.451185 152.961485 
L 179.33326 153.091184 
L 183.215334 153.026877 
L 187.097408 153.102949 
L 190.979483 153.177838 
L 194.861557 153.190139 
L 198.743631 153.252402 
L 202.625706 153.250827 
L 206.50778 153.317069 
L 210.389855 153.243755 
L 214.271929 153.274657 
L 218.154003 153.303462 
L 222.036078 153.348911 
L 225.918152 153.327245 
L 229.800226 153.360925 
L 233.682301 153.32338 
L 237.564375 153.340155 
L 241.44645 153.368091 
L 245.328524 153.339754 
L 249.210598 153.352951 
" style="fill:none;stroke:#f77189;stroke-linecap:round;stroke-width:1.2;"/>
   </g>
   <g id="patch_3">
    <path d="M 53.55405 159.362 
L 53.55405 27.496 
" style="fill:none;stroke:#cccccc;stroke-linecap:square;stroke-linejoin:miter;"/>
   </g>
   <g id="patch_4">
    <path d="M 258.527577 159.362 
L 258.527577 27.496 
" style="fill:none;stroke:#cccccc;stroke-linecap:square;stroke-linejoin:miter;"/>
   </g>
   <g id="patch_5">
    <path d="M 53.55405 159.362 
L 258.527577 159.362 
" style="fill:none;stroke:#cccccc;stroke-linecap:square;stroke-linejoin:miter;"/>
   </g>
   <g id="patch_6">
    <path d="M 53.55405 27.496 
L 258.527577 27.496 
" style="fill:none;stroke:#cccccc;stroke-linecap:square;stroke-linejoin:miter;"/>
   </g>
   <g id="text_15">
    <!-- cost -->
    <g style="fill:#262626;" transform="translate(146.082313 21.496)scale(0.096 -0.096)">
     <use xlink:href="#DejaVuSans-99"/>
     <use x="54.980469" xlink:href="#DejaVuSans-111"/>
     <use x="116.162109" xlink:href="#DejaVuSans-115"/>
     <use x="168.261719" xlink:href="#DejaVuSans-116"/>
    </g>
   </g>
  </g>
  <g id="axes_2">
   <g id="patch_7">
    <path d="M 313.544197 159.362 
L 518.517724 159.362 
L 518.517724 27.496 
L 313.544197 27.496 
z
" style="fill:#ffffff;"/>
   </g>
   <g id="matplotlib.axis_3">
    <g id="xtick_7">
     <g id="line2d_14">
      <path clip-path="url(#p68624ebab2)" d="M 322.861176 159.362 
L 322.861176 27.496 
" style="fill:none;stroke:#cccccc;stroke-linecap:round;stroke-width:0.8;"/>
     </g>
     <g id="text_16">
      <!-- 0 -->
      <g style="fill:#262626;" transform="translate(320.061676 174.348625)scale(0.088 -0.088)">
       <use xlink:href="#DejaVuSans-48"/>
      </g>
     </g>
    </g>
    <g id="xtick_8">
     <g id="line2d_15">
      <path clip-path="url(#p68624ebab2)" d="M 361.68192 159.362 
L 361.68192 27.496 
" style="fill:none;stroke:#cccccc;stroke-linecap:round;stroke-width:0.8;"/>
     </g>
     <g id="text_17">
      <!-- 10 -->
      <g style="fill:#262626;" transform="translate(356.08292 174.348625)scale(0.088 -0.088)">
       <use xlink:href="#DejaVuSans-49"/>
       <use x="63.623047" xlink:href="#DejaVuSans-48"/>
      </g>
     </g>
    </g>
    <g id="xtick_9">
     <g id="line2d_16">
      <path clip-path="url(#p68624ebab2)" d="M 400.502663 159.362 
L 400.502663 27.496 
" style="fill:none;stroke:#cccccc;stroke-linecap:round;stroke-width:0.8;"/>
     </g>
     <g id="text_18">
      <!-- 20 -->
      <g style="fill:#262626;" transform="translate(394.903663 174.348625)scale(0.088 -0.088)">
       <use xlink:href="#DejaVuSans-50"/>
       <use x="63.623047" xlink:href="#DejaVuSans-48"/>
      </g>
     </g>
    </g>
    <g id="xtick_10">
     <g id="line2d_17">
      <path clip-path="url(#p68624ebab2)" d="M 439.323407 159.362 
L 439.323407 27.496 
" style="fill:none;stroke:#cccccc;stroke-linecap:round;stroke-width:0.8;"/>
     </g>
     <g id="text_19">
      <!-- 30 -->
      <g style="fill:#262626;" transform="translate(433.724407 174.348625)scale(0.088 -0.088)">
       <use xlink:href="#DejaVuSans-51"/>
       <use x="63.623047" xlink:href="#DejaVuSans-48"/>
      </g>
     </g>
    </g>
    <g id="xtick_11">
     <g id="line2d_18">
      <path clip-path="url(#p68624ebab2)" d="M 478.144151 159.362 
L 478.144151 27.496 
" style="fill:none;stroke:#cccccc;stroke-linecap:round;stroke-width:0.8;"/>
     </g>
     <g id="text_20">
      <!-- 40 -->
      <g style="fill:#262626;" transform="translate(472.545151 174.348625)scale(0.088 -0.088)">
       <use xlink:href="#DejaVuSans-52"/>
       <use x="63.623047" xlink:href="#DejaVuSans-48"/>
      </g>
     </g>
    </g>
    <g id="xtick_12">
     <g id="line2d_19">
      <path clip-path="url(#p68624ebab2)" d="M 516.964895 159.362 
L 516.964895 27.496 
" style="fill:none;stroke:#cccccc;stroke-linecap:round;stroke-width:0.8;"/>
     </g>
     <g id="text_21">
      <!-- 50 -->
      <g style="fill:#262626;" transform="translate(511.365895 174.348625)scale(0.088 -0.088)">
       <use xlink:href="#DejaVuSans-53"/>
       <use x="63.623047" xlink:href="#DejaVuSans-48"/>
      </g>
     </g>
    </g>
    <g id="text_22">
     <!-- Iteration Step -->
     <g style="fill:#262626;" transform="translate(383.215461 187.47325)scale(0.096 -0.096)">
      <use xlink:href="#DejaVuSans-73"/>
      <use x="29.492188" xlink:href="#DejaVuSans-116"/>
      <use x="68.701172" xlink:href="#DejaVuSans-101"/>
      <use x="130.224609" xlink:href="#DejaVuSans-114"/>
      <use x="171.337891" xlink:href="#DejaVuSans-97"/>
      <use x="232.617188" xlink:href="#DejaVuSans-116"/>
      <use x="271.826172" xlink:href="#DejaVuSans-105"/>
      <use x="299.609375" xlink:href="#DejaVuSans-111"/>
      <use x="360.791016" xlink:href="#DejaVuSans-110"/>
      <use x="424.169922" xlink:href="#DejaVuSans-32"/>
      <use x="455.957031" xlink:href="#DejaVuSans-83"/>
      <use x="519.433594" xlink:href="#DejaVuSans-116"/>
      <use x="558.642578" xlink:href="#DejaVuSans-101"/>
      <use x="620.166016" xlink:href="#DejaVuSans-112"/>
     </g>
    </g>
   </g>
   <g id="matplotlib.axis_4">
    <g id="ytick_7">
     <g id="line2d_20">
      <path clip-path="url(#p68624ebab2)" d="M 313.544197 156.631629 
L 518.517724 156.631629 
" style="fill:none;stroke:#cccccc;stroke-linecap:round;stroke-width:0.8;"/>
     </g>
     <g id="text_23">
      <!-- 0.0 -->
      <g style="fill:#262626;" transform="translate(291.249447 159.974942)scale(0.088 -0.088)">
       <use xlink:href="#DejaVuSans-48"/>
       <use x="63.623047" xlink:href="#DejaVuSans-46"/>
       <use x="95.410156" xlink:href="#DejaVuSans-48"/>
      </g>
     </g>
    </g>
    <g id="ytick_8">
     <g id="line2d_21">
      <path clip-path="url(#p68624ebab2)" d="M 313.544197 135.921951 
L 518.517724 135.921951 
" style="fill:none;stroke:#cccccc;stroke-linecap:round;stroke-width:0.8;"/>
     </g>
     <g id="text_24">
      <!-- 0.5 -->
      <g style="fill:#262626;" transform="translate(291.249447 139.265263)scale(0.088 -0.088)">
       <use xlink:href="#DejaVuSans-48"/>
       <use x="63.623047" xlink:href="#DejaVuSans-46"/>
       <use x="95.410156" xlink:href="#DejaVuSans-53"/>
      </g>
     </g>
    </g>
    <g id="ytick_9">
     <g id="line2d_22">
      <path clip-path="url(#p68624ebab2)" d="M 313.544197 115.212272 
L 518.517724 115.212272 
" style="fill:none;stroke:#cccccc;stroke-linecap:round;stroke-width:0.8;"/>
     </g>
     <g id="text_25">
      <!-- 1.0 -->
      <g style="fill:#262626;" transform="translate(291.249447 118.555585)scale(0.088 -0.088)">
       <use xlink:href="#DejaVuSans-49"/>
       <use x="63.623047" xlink:href="#DejaVuSans-46"/>
       <use x="95.410156" xlink:href="#DejaVuSans-48"/>
      </g>
     </g>
    </g>
    <g id="ytick_10">
     <g id="line2d_23">
      <path clip-path="url(#p68624ebab2)" d="M 313.544197 94.502594 
L 518.517724 94.502594 
" style="fill:none;stroke:#cccccc;stroke-linecap:round;stroke-width:0.8;"/>
     </g>
     <g id="text_26">
      <!-- 1.5 -->
      <g style="fill:#262626;" transform="translate(291.249447 97.845906)scale(0.088 -0.088)">
       <use xlink:href="#DejaVuSans-49"/>
       <use x="63.623047" xlink:href="#DejaVuSans-46"/>
       <use x="95.410156" xlink:href="#DejaVuSans-53"/>
      </g>
     </g>
    </g>
    <g id="ytick_11">
     <g id="line2d_24">
      <path clip-path="url(#p68624ebab2)" d="M 313.544197 73.792915 
L 518.517724 73.792915 
" style="fill:none;stroke:#cccccc;stroke-linecap:round;stroke-width:0.8;"/>
     </g>
     <g id="text_27">
      <!-- 2.0 -->
      <g style="fill:#262626;" transform="translate(291.249447 77.136228)scale(0.088 -0.088)">
       <use xlink:href="#DejaVuSans-50"/>
       <use x="63.623047" xlink:href="#DejaVuSans-46"/>
       <use x="95.410156" xlink:href="#DejaVuSans-48"/>
      </g>
     </g>
    </g>
    <g id="ytick_12">
     <g id="line2d_25">
      <path clip-path="url(#p68624ebab2)" d="M 313.544197 53.083236 
L 518.517724 53.083236 
" style="fill:none;stroke:#cccccc;stroke-linecap:round;stroke-width:0.8;"/>
     </g>
     <g id="text_28">
      <!-- 2.5 -->
      <g style="fill:#262626;" transform="translate(291.249447 56.426549)scale(0.088 -0.088)">
       <use xlink:href="#DejaVuSans-50"/>
       <use x="63.623047" xlink:href="#DejaVuSans-46"/>
       <use x="95.410156" xlink:href="#DejaVuSans-53"/>
      </g>
     </g>
    </g>
    <g id="ytick_13">
     <g id="line2d_26">
      <path clip-path="url(#p68624ebab2)" d="M 313.544197 32.373558 
L 518.517724 32.373558 
" style="fill:none;stroke:#cccccc;stroke-linecap:round;stroke-width:0.8;"/>
     </g>
     <g id="text_29">
      <!-- 3.0 -->
      <g style="fill:#262626;" transform="translate(291.249447 35.71687)scale(0.088 -0.088)">
       <use xlink:href="#DejaVuSans-51"/>
       <use x="63.623047" xlink:href="#DejaVuSans-46"/>
       <use x="95.410156" xlink:href="#DejaVuSans-48"/>
      </g>
     </g>
    </g>
    <g id="text_30">
     <!-- Model predictions (a.u.) -->
     <defs>
      <path d="M 9.8125 72.90625 
L 24.515625 72.90625 
L 43.109375 23.296875 
L 61.8125 72.90625 
L 76.515625 72.90625 
L 76.515625 0 
L 66.890625 0 
L 66.890625 64.015625 
L 48.09375 14.015625 
L 38.1875 14.015625 
L 19.390625 64.015625 
L 19.390625 0 
L 9.8125 0 
z
" id="DejaVuSans-77"/>
      <path d="M 45.40625 46.390625 
L 45.40625 75.984375 
L 54.390625 75.984375 
L 54.390625 0 
L 45.40625 0 
L 45.40625 8.203125 
Q 42.578125 3.328125 38.25 0.953125 
Q 33.9375 -1.421875 27.875 -1.421875 
Q 17.96875 -1.421875 11.734375 6.484375 
Q 5.515625 14.40625 5.515625 27.296875 
Q 5.515625 40.1875 11.734375 48.09375 
Q 17.96875 56 27.875 56 
Q 33.9375 56 38.25 53.625 
Q 42.578125 51.265625 45.40625 46.390625 
z
M 14.796875 27.296875 
Q 14.796875 17.390625 18.875 11.75 
Q 22.953125 6.109375 30.078125 6.109375 
Q 37.203125 6.109375 41.296875 11.75 
Q 45.40625 17.390625 45.40625 27.296875 
Q 45.40625 37.203125 41.296875 42.84375 
Q 37.203125 48.484375 30.078125 48.484375 
Q 22.953125 48.484375 18.875 42.84375 
Q 14.796875 37.203125 14.796875 27.296875 
z
" id="DejaVuSans-100"/>
      <path d="M 9.421875 75.984375 
L 18.40625 75.984375 
L 18.40625 0 
L 9.421875 0 
z
" id="DejaVuSans-108"/>
     </defs>
     <g style="fill:#262626;" transform="translate(285.252947 150.36)rotate(-90)scale(0.096 -0.096)">
      <use xlink:href="#DejaVuSans-77"/>
      <use x="86.279297" xlink:href="#DejaVuSans-111"/>
      <use x="147.460938" xlink:href="#DejaVuSans-100"/>
      <use x="210.9375" xlink:href="#DejaVuSans-101"/>
      <use x="272.460938" xlink:href="#DejaVuSans-108"/>
      <use x="300.244141" xlink:href="#DejaVuSans-32"/>
      <use x="332.03125" xlink:href="#DejaVuSans-112"/>
      <use x="395.507812" xlink:href="#DejaVuSans-114"/>
      <use x="436.589844" xlink:href="#DejaVuSans-101"/>
      <use x="498.113281" xlink:href="#DejaVuSans-100"/>
      <use x="561.589844" xlink:href="#DejaVuSans-105"/>
      <use x="589.373047" xlink:href="#DejaVuSans-99"/>
      <use x="644.353516" xlink:href="#DejaVuSans-116"/>
      <use x="683.5625" xlink:href="#DejaVuSans-105"/>
      <use x="711.345703" xlink:href="#DejaVuSans-111"/>
      <use x="772.527344" xlink:href="#DejaVuSans-110"/>
      <use x="835.90625" xlink:href="#DejaVuSans-115"/>
      <use x="888.005859" xlink:href="#DejaVuSans-32"/>
      <use x="919.792969" xlink:href="#DejaVuSans-40"/>
      <use x="958.806641" xlink:href="#DejaVuSans-97"/>
      <use x="1020.085938" xlink:href="#DejaVuSans-46"/>
      <use x="1051.873047" xlink:href="#DejaVuSans-117"/>
      <use x="1115.251953" xlink:href="#DejaVuSans-46"/>
      <use x="1147.039062" xlink:href="#DejaVuSans-41"/>
     </g>
    </g>
   </g>
   <g id="line2d_27">
    <path clip-path="url(#p68624ebab2)" d="M 322.861176 33.489909 
L 326.74325 44.46561 
L 330.625325 52.816598 
L 334.507399 60.541317 
L 338.389473 66.327421 
L 342.271548 71.774188 
L 346.153622 74.285152 
L 350.035697 79.385979 
L 353.917771 83.264221 
L 357.799845 86.367697 
L 361.68192 89.277499 
L 365.563994 90.510337 
L 369.446068 93.384175 
L 373.328143 95.735409 
L 377.210217 96.864112 
L 381.092292 98.955732 
L 384.974366 100.164561 
L 388.85644 101.549816 
L 392.738515 100.691318 
L 396.620589 102.282211 
L 400.502663 103.600387 
L 404.384738 104.811744 
L 408.266812 105.798041 
L 412.148887 106.760601 
L 416.030961 107.575537 
L 419.913035 108.080175 
L 423.79511 108.755533 
L 427.677184 108.989643 
L 431.559258 109.590931 
L 435.441333 109.932716 
L 439.323407 110.509132 
L 443.205481 110.410753 
L 447.087556 110.845089 
L 450.96963 111.295694 
L 454.851705 111.423608 
L 458.733779 111.773258 
L 462.615853 111.91889 
L 466.497928 112.292142 
L 470.380002 112.062338 
L 474.262076 112.349602 
L 478.144151 112.585401 
L 482.026225 112.85001 
L 485.9083 112.876708 
L 489.790374 113.090658 
L 493.672448 113.007733 
L 497.554523 113.189415 
L 501.436597 113.378604 
L 505.318671 113.29564 
L 509.200746 113.450482 
" style="fill:none;stroke:#f77189;stroke-linecap:round;stroke-width:1.2;"/>
   </g>
   <g id="line2d_28">
    <path clip-path="url(#p68624ebab2)" d="M 322.861176 153.368091 
L 326.74325 153.293078 
L 330.625325 153.213335 
L 334.507399 153.211654 
L 338.389473 153.207064 
L 342.271548 153.227436 
L 346.153622 153.203939 
L 350.035697 153.200668 
L 353.917771 153.198973 
L 357.799845 153.199157 
L 361.68192 153.216398 
L 365.563994 153.194341 
L 369.446068 153.192658 
L 373.328143 153.216293 
L 377.210217 153.186365 
L 381.092292 153.208793 
L 384.974366 153.187449 
L 388.85644 153.204977 
L 392.738515 153.183144 
L 396.620589 153.183703 
L 400.502663 153.179486 
L 404.384738 153.181249 
L 408.266812 153.174688 
L 412.148887 153.177319 
L 416.030961 153.172856 
L 419.913035 153.174256 
L 423.79511 153.173962 
L 427.677184 153.170086 
L 431.559258 153.171742 
L 435.441333 153.168423 
L 439.323407 153.187644 
L 443.205481 153.171603 
L 447.087556 153.169226 
L 450.96963 153.174963 
L 454.851705 153.165428 
L 458.733779 153.166487 
L 462.615853 153.167382 
L 466.497928 153.185905 
L 470.380002 153.166744 
L 474.262076 153.170654 
L 478.144151 153.16546 
L 482.026225 153.16408 
L 485.9083 153.16519 
L 489.790374 153.165102 
L 493.672448 153.169487 
L 497.554523 153.169245 
L 501.436597 153.165676 
L 505.318671 153.167702 
L 509.200746 153.168131 
" style="fill:none;stroke:#bb9832;stroke-linecap:round;stroke-width:1.2;"/>
   </g>
   <g id="line2d_29">
    <path clip-path="url(#p68624ebab2)" d="M 322.861176 97.697532 
L 326.74325 100.120246 
L 330.625325 102.306217 
L 334.507399 103.410938 
L 338.389473 104.413052 
L 342.271548 105.129403 
L 346.153622 105.950491 
L 350.035697 107.013232 
L 353.917771 107.884313 
L 357.799845 108.619711 
L 361.68192 109.151074 
L 365.563994 109.763716 
L 369.446068 110.550044 
L 373.328143 110.948122 
L 377.210217 111.639759 
L 381.092292 112.022216 
L 384.974366 112.636702 
L 388.85644 112.908539 
L 392.738515 112.942637 
L 396.620589 113.466243 
L 400.502663 113.955404 
L 404.384738 114.365783 
L 408.266812 114.771422 
L 412.148887 115.095644 
L 416.030961 115.414472 
L 419.913035 115.612498 
L 423.79511 115.834151 
L 427.677184 116.011855 
L 431.559258 116.209137 
L 435.441333 116.381061 
L 439.323407 116.360752 
L 443.205481 116.593664 
L 447.087556 116.772571 
L 450.96963 116.883235 
L 454.851705 117.021533 
L 458.733779 117.100558 
L 462.615853 117.204104 
L 466.497928 117.120999 
L 470.380002 117.326276 
L 474.262076 117.40979 
L 478.144151 117.523693 
L 482.026225 117.570384 
L 485.9083 117.642889 
L 489.790374 117.675286 
L 493.672448 117.702469 
L 497.554523 117.765695 
L 501.436597 117.819009 
L 505.318671 117.83866 
L 509.200746 117.886535 
" style="fill:none;stroke:#50b131;stroke-linecap:round;stroke-width:1.2;"/>
   </g>
   <g id="line2d_30">
    <path clip-path="url(#p68624ebab2)" d="M 322.861176 140.858836 
L 326.74325 141.169777 
L 330.625325 141.662079 
L 334.507399 142.678283 
L 338.389473 142.931424 
L 342.271548 143.299239 
L 346.153622 142.949413 
L 350.035697 143.395446 
L 353.917771 143.683182 
L 357.799845 143.863454 
L 361.68192 144.131491 
L 365.563994 143.943793 
L 369.446068 144.217945 
L 373.328143 144.543112 
L 377.210217 144.42074 
L 381.092292 144.73574 
L 384.974366 144.753763 
L 388.85644 144.916736 
L 392.738515 144.513788 
L 396.620589 144.666568 
L 400.502663 144.793797 
L 404.384738 144.915403 
L 408.266812 145.024074 
L 412.148887 145.136142 
L 416.030961 145.259885 
L 419.913035 145.276676 
L 423.79511 145.411411 
L 427.677184 145.339873 
L 431.559258 145.442427 
L 435.441333 145.45885 
L 439.323407 145.64237 
L 443.205481 145.436462 
L 447.087556 145.504362 
L 450.96963 145.594281 
L 454.851705 145.586238 
L 458.733779 145.69474 
L 462.615853 145.647121 
L 466.497928 145.789776 
L 470.380002 145.583816 
L 474.262076 145.626887 
L 478.144151 145.681221 
L 482.026225 145.79561 
L 485.9083 145.71915 
L 489.790374 145.80829 
L 493.672448 145.690723 
L 497.554523 145.730169 
L 501.436597 145.81044 
L 505.318671 145.721334 
L 509.200746 145.756893 
" style="fill:none;stroke:#36ada4;stroke-linecap:round;stroke-width:1.2;"/>
   </g>
   <g id="patch_8">
    <path d="M 313.544197 159.362 
L 313.544197 27.496 
" style="fill:none;stroke:#cccccc;stroke-linecap:square;stroke-linejoin:miter;"/>
   </g>
   <g id="patch_9">
    <path d="M 518.517724 159.362 
L 518.517724 27.496 
" style="fill:none;stroke:#cccccc;stroke-linecap:square;stroke-linejoin:miter;"/>
   </g>
   <g id="patch_10">
    <path d="M 313.544197 159.362 
L 518.517724 159.362 
" style="fill:none;stroke:#cccccc;stroke-linecap:square;stroke-linejoin:miter;"/>
   </g>
   <g id="patch_11">
    <path d="M 313.544197 27.496 
L 518.517724 27.496 
" style="fill:none;stroke:#cccccc;stroke-linecap:square;stroke-linejoin:miter;"/>
   </g>
   <g id="text_31">
    <!-- fit model prediction -->
    <defs>
     <path d="M 52 44.1875 
Q 55.375 50.25 60.0625 53.125 
Q 64.75 56 71.09375 56 
Q 79.640625 56 84.28125 50.015625 
Q 88.921875 44.046875 88.921875 33.015625 
L 88.921875 0 
L 79.890625 0 
L 79.890625 32.71875 
Q 79.890625 40.578125 77.09375 44.375 
Q 74.3125 48.1875 68.609375 48.1875 
Q 61.625 48.1875 57.5625 43.546875 
Q 53.515625 38.921875 53.515625 30.90625 
L 53.515625 0 
L 44.484375 0 
L 44.484375 32.71875 
Q 44.484375 40.625 41.703125 44.40625 
Q 38.921875 48.1875 33.109375 48.1875 
Q 26.21875 48.1875 22.15625 43.53125 
Q 18.109375 38.875 18.109375 30.90625 
L 18.109375 0 
L 9.078125 0 
L 9.078125 54.6875 
L 18.109375 54.6875 
L 18.109375 46.1875 
Q 21.1875 51.21875 25.484375 53.609375 
Q 29.78125 56 35.6875 56 
Q 41.65625 56 45.828125 52.96875 
Q 50 49.953125 52 44.1875 
z
" id="DejaVuSans-109"/>
    </defs>
    <g style="fill:#262626;" transform="translate(368.941461 21.496)scale(0.096 -0.096)">
     <use xlink:href="#DejaVuSans-102"/>
     <use x="35.205078" xlink:href="#DejaVuSans-105"/>
     <use x="62.988281" xlink:href="#DejaVuSans-116"/>
     <use x="102.197266" xlink:href="#DejaVuSans-32"/>
     <use x="133.984375" xlink:href="#DejaVuSans-109"/>
     <use x="231.396484" xlink:href="#DejaVuSans-111"/>
     <use x="292.578125" xlink:href="#DejaVuSans-100"/>
     <use x="356.054688" xlink:href="#DejaVuSans-101"/>
     <use x="417.578125" xlink:href="#DejaVuSans-108"/>
     <use x="445.361328" xlink:href="#DejaVuSans-32"/>
     <use x="477.148438" xlink:href="#DejaVuSans-112"/>
     <use x="540.625" xlink:href="#DejaVuSans-114"/>
     <use x="581.707031" xlink:href="#DejaVuSans-101"/>
     <use x="643.230469" xlink:href="#DejaVuSans-100"/>
     <use x="706.707031" xlink:href="#DejaVuSans-105"/>
     <use x="734.490234" xlink:href="#DejaVuSans-99"/>
     <use x="789.470703" xlink:href="#DejaVuSans-116"/>
     <use x="828.679688" xlink:href="#DejaVuSans-105"/>
     <use x="856.462891" xlink:href="#DejaVuSans-111"/>
     <use x="917.644531" xlink:href="#DejaVuSans-110"/>
    </g>
   </g>
   <g id="legend_1">
    <g id="patch_12">
     <path d="M 477.421724 86.203 
L 512.357724 86.203 
Q 514.117724 86.203 514.117724 84.443 
L 514.117724 33.656 
Q 514.117724 31.896 512.357724 31.896 
L 477.421724 31.896 
Q 475.661724 31.896 475.661724 33.656 
L 475.661724 84.443 
Q 475.661724 86.203 477.421724 86.203 
z
" style="fill:#ffffff;opacity:0.8;stroke:#cccccc;stroke-linejoin:miter;stroke-width:0.8;"/>
    </g>
    <g id="line2d_31">
     <path d="M 479.181724 39.022625 
L 496.781724 39.022625 
" style="fill:none;stroke:#f77189;stroke-linecap:round;stroke-width:1.2;"/>
    </g>
    <g id="line2d_32"/>
    <g id="text_32">
     <!-- N -->
     <defs>
      <path d="M 9.8125 72.90625 
L 23.09375 72.90625 
L 55.421875 11.921875 
L 55.421875 72.90625 
L 64.984375 72.90625 
L 64.984375 0 
L 51.703125 0 
L 19.390625 60.984375 
L 19.390625 0 
L 9.8125 0 
z
" id="DejaVuSans-78"/>
     </defs>
     <g style="fill:#262626;" transform="translate(503.821724 42.102625)scale(0.088 -0.088)">
      <use xlink:href="#DejaVuSans-78"/>
     </g>
    </g>
    <g id="line2d_33">
     <path d="M 479.181724 51.939375 
L 496.781724 51.939375 
" style="fill:none;stroke:#bb9832;stroke-linecap:round;stroke-width:1.2;"/>
    </g>
    <g id="line2d_34"/>
    <g id="text_33">
     <!-- P -->
     <defs>
      <path d="M 19.671875 64.796875 
L 19.671875 37.40625 
L 32.078125 37.40625 
Q 38.96875 37.40625 42.71875 40.96875 
Q 46.484375 44.53125 46.484375 51.125 
Q 46.484375 57.671875 42.71875 61.234375 
Q 38.96875 64.796875 32.078125 64.796875 
z
M 9.8125 72.90625 
L 32.078125 72.90625 
Q 44.34375 72.90625 50.609375 67.359375 
Q 56.890625 61.8125 56.890625 51.125 
Q 56.890625 40.328125 50.609375 34.8125 
Q 44.34375 29.296875 32.078125 29.296875 
L 19.671875 29.296875 
L 19.671875 0 
L 9.8125 0 
z
" id="DejaVuSans-80"/>
     </defs>
     <g style="fill:#262626;" transform="translate(503.821724 55.019375)scale(0.088 -0.088)">
      <use xlink:href="#DejaVuSans-80"/>
     </g>
    </g>
    <g id="line2d_35">
     <path d="M 479.181724 64.856125 
L 496.781724 64.856125 
" style="fill:none;stroke:#50b131;stroke-linecap:round;stroke-width:1.2;"/>
    </g>
    <g id="line2d_36"/>
    <g id="text_34">
     <!-- Z -->
     <defs>
      <path d="M 5.609375 72.90625 
L 62.890625 72.90625 
L 62.890625 65.375 
L 16.796875 8.296875 
L 64.015625 8.296875 
L 64.015625 0 
L 4.5 0 
L 4.5 7.515625 
L 50.59375 64.59375 
L 5.609375 64.59375 
z
" id="DejaVuSans-90"/>
     </defs>
     <g style="fill:#262626;" transform="translate(503.821724 67.936125)scale(0.088 -0.088)">
      <use xlink:href="#DejaVuSans-90"/>
     </g>
    </g>
    <g id="line2d_37">
     <path d="M 479.181724 77.772875 
L 496.781724 77.772875 
" style="fill:none;stroke:#36ada4;stroke-linecap:round;stroke-width:1.2;"/>
    </g>
    <g id="line2d_38"/>
    <g id="text_35">
     <!-- D -->
     <defs>
      <path d="M 19.671875 64.796875 
L 19.671875 8.109375 
L 31.59375 8.109375 
Q 46.6875 8.109375 53.6875 14.9375 
Q 60.6875 21.78125 60.6875 36.53125 
Q 60.6875 51.171875 53.6875 57.984375 
Q 46.6875 64.796875 31.59375 64.796875 
z
M 9.8125 72.90625 
L 30.078125 72.90625 
Q 51.265625 72.90625 61.171875 64.09375 
Q 71.09375 55.28125 71.09375 36.53125 
Q 71.09375 17.671875 61.125 8.828125 
Q 51.171875 0 30.078125 0 
L 9.8125 0 
z
" id="DejaVuSans-68"/>
     </defs>
     <g style="fill:#262626;" transform="translate(503.821724 80.852875)scale(0.088 -0.088)">
      <use xlink:href="#DejaVuSans-68"/>
     </g>
    </g>
   </g>
  </g>
  <g id="axes_3">
   <g id="patch_13">
    <path d="M 53.55405 354.914 
L 258.527577 354.914 
L 258.527577 223.048 
L 53.55405 223.048 
z
" style="fill:#ffffff;"/>
   </g>
   <g id="matplotlib.axis_5">
    <g id="xtick_13">
     <g id="line2d_39">
      <path clip-path="url(#pc16267f4b2)" d="M 62.871028 354.914 
L 62.871028 223.048 
" style="fill:none;stroke:#cccccc;stroke-linecap:round;stroke-width:0.8;"/>
     </g>
     <g id="text_36">
      <!-- 0 -->
      <g style="fill:#262626;" transform="translate(60.071528 369.900625)scale(0.088 -0.088)">
       <use xlink:href="#DejaVuSans-48"/>
      </g>
     </g>
    </g>
    <g id="xtick_14">
     <g id="line2d_40">
      <path clip-path="url(#pc16267f4b2)" d="M 100.899512 354.914 
L 100.899512 223.048 
" style="fill:none;stroke:#cccccc;stroke-linecap:round;stroke-width:0.8;"/>
     </g>
     <g id="text_37">
      <!-- 10 -->
      <g style="fill:#262626;" transform="translate(95.300512 369.900625)scale(0.088 -0.088)">
       <use xlink:href="#DejaVuSans-49"/>
       <use x="63.623047" xlink:href="#DejaVuSans-48"/>
      </g>
     </g>
    </g>
    <g id="xtick_15">
     <g id="line2d_41">
      <path clip-path="url(#pc16267f4b2)" d="M 138.927996 354.914 
L 138.927996 223.048 
" style="fill:none;stroke:#cccccc;stroke-linecap:round;stroke-width:0.8;"/>
     </g>
     <g id="text_38">
      <!-- 20 -->
      <g style="fill:#262626;" transform="translate(133.328996 369.900625)scale(0.088 -0.088)">
       <use xlink:href="#DejaVuSans-50"/>
       <use x="63.623047" xlink:href="#DejaVuSans-48"/>
      </g>
     </g>
    </g>
    <g id="xtick_16">
     <g id="line2d_42">
      <path clip-path="url(#pc16267f4b2)" d="M 176.956479 354.914 
L 176.956479 223.048 
" style="fill:none;stroke:#cccccc;stroke-linecap:round;stroke-width:0.8;"/>
     </g>
     <g id="text_39">
      <!-- 30 -->
      <g style="fill:#262626;" transform="translate(171.357479 369.900625)scale(0.088 -0.088)">
       <use xlink:href="#DejaVuSans-51"/>
       <use x="63.623047" xlink:href="#DejaVuSans-48"/>
      </g>
     </g>
    </g>
    <g id="xtick_17">
     <g id="line2d_43">
      <path clip-path="url(#pc16267f4b2)" d="M 214.984963 354.914 
L 214.984963 223.048 
" style="fill:none;stroke:#cccccc;stroke-linecap:round;stroke-width:0.8;"/>
     </g>
     <g id="text_40">
      <!-- 40 -->
      <g style="fill:#262626;" transform="translate(209.385963 369.900625)scale(0.088 -0.088)">
       <use xlink:href="#DejaVuSans-52"/>
       <use x="63.623047" xlink:href="#DejaVuSans-48"/>
      </g>
     </g>
    </g>
    <g id="xtick_18">
     <g id="line2d_44">
      <path clip-path="url(#pc16267f4b2)" d="M 253.013447 354.914 
L 253.013447 223.048 
" style="fill:none;stroke:#cccccc;stroke-linecap:round;stroke-width:0.8;"/>
     </g>
     <g id="text_41">
      <!-- 50 -->
      <g style="fill:#262626;" transform="translate(247.414447 369.900625)scale(0.088 -0.088)">
       <use xlink:href="#DejaVuSans-53"/>
       <use x="63.623047" xlink:href="#DejaVuSans-48"/>
      </g>
     </g>
    </g>
    <g id="text_42">
     <!-- Iteration Step -->
     <g style="fill:#262626;" transform="translate(123.225313 383.02525)scale(0.096 -0.096)">
      <use xlink:href="#DejaVuSans-73"/>
      <use x="29.492188" xlink:href="#DejaVuSans-116"/>
      <use x="68.701172" xlink:href="#DejaVuSans-101"/>
      <use x="130.224609" xlink:href="#DejaVuSans-114"/>
      <use x="171.337891" xlink:href="#DejaVuSans-97"/>
      <use x="232.617188" xlink:href="#DejaVuSans-116"/>
      <use x="271.826172" xlink:href="#DejaVuSans-105"/>
      <use x="299.609375" xlink:href="#DejaVuSans-111"/>
      <use x="360.791016" xlink:href="#DejaVuSans-110"/>
      <use x="424.169922" xlink:href="#DejaVuSans-32"/>
      <use x="455.957031" xlink:href="#DejaVuSans-83"/>
      <use x="519.433594" xlink:href="#DejaVuSans-116"/>
      <use x="558.642578" xlink:href="#DejaVuSans-101"/>
      <use x="620.166016" xlink:href="#DejaVuSans-112"/>
     </g>
    </g>
   </g>
   <g id="matplotlib.axis_6">
    <g id="ytick_14">
     <g id="line2d_45">
      <path clip-path="url(#pc16267f4b2)" d="M 53.55405 348.920328 
L 258.527577 348.920328 
" style="fill:none;stroke:#cccccc;stroke-linecap:round;stroke-width:0.8;"/>
     </g>
     <g id="text_43">
      <!-- 0.0 -->
      <g style="fill:#262626;" transform="translate(31.2593 352.26364)scale(0.088 -0.088)">
       <use xlink:href="#DejaVuSans-48"/>
       <use x="63.623047" xlink:href="#DejaVuSans-46"/>
       <use x="95.410156" xlink:href="#DejaVuSans-48"/>
      </g>
     </g>
    </g>
    <g id="ytick_15">
     <g id="line2d_46">
      <path clip-path="url(#pc16267f4b2)" d="M 53.55405 317.167827 
L 258.527577 317.167827 
" style="fill:none;stroke:#cccccc;stroke-linecap:round;stroke-width:0.8;"/>
     </g>
     <g id="text_44">
      <!-- 0.5 -->
      <g style="fill:#262626;" transform="translate(31.2593 320.511139)scale(0.088 -0.088)">
       <use xlink:href="#DejaVuSans-48"/>
       <use x="63.623047" xlink:href="#DejaVuSans-46"/>
       <use x="95.410156" xlink:href="#DejaVuSans-53"/>
      </g>
     </g>
    </g>
    <g id="ytick_16">
     <g id="line2d_47">
      <path clip-path="url(#pc16267f4b2)" d="M 53.55405 285.415326 
L 258.527577 285.415326 
" style="fill:none;stroke:#cccccc;stroke-linecap:round;stroke-width:0.8;"/>
     </g>
     <g id="text_45">
      <!-- 1.0 -->
      <g style="fill:#262626;" transform="translate(31.2593 288.758638)scale(0.088 -0.088)">
       <use xlink:href="#DejaVuSans-49"/>
       <use x="63.623047" xlink:href="#DejaVuSans-46"/>
       <use x="95.410156" xlink:href="#DejaVuSans-48"/>
      </g>
     </g>
    </g>
    <g id="ytick_17">
     <g id="line2d_48">
      <path clip-path="url(#pc16267f4b2)" d="M 53.55405 253.662825 
L 258.527577 253.662825 
" style="fill:none;stroke:#cccccc;stroke-linecap:round;stroke-width:0.8;"/>
     </g>
     <g id="text_46">
      <!-- 1.5 -->
      <g style="fill:#262626;" transform="translate(31.2593 257.006137)scale(0.088 -0.088)">
       <use xlink:href="#DejaVuSans-49"/>
       <use x="63.623047" xlink:href="#DejaVuSans-46"/>
       <use x="95.410156" xlink:href="#DejaVuSans-53"/>
      </g>
     </g>
    </g>
    <g id="text_47">
     <!-- optimized parameters (a.u.) -->
     <defs>
      <path d="M 5.515625 54.6875 
L 48.1875 54.6875 
L 48.1875 46.484375 
L 14.40625 7.171875 
L 48.1875 7.171875 
L 48.1875 0 
L 4.296875 0 
L 4.296875 8.203125 
L 38.09375 47.515625 
L 5.515625 47.515625 
z
" id="DejaVuSans-122"/>
     </defs>
     <g style="fill:#262626;" transform="translate(25.2628 356.382)rotate(-90)scale(0.096 -0.096)">
      <use xlink:href="#DejaVuSans-111"/>
      <use x="61.181641" xlink:href="#DejaVuSans-112"/>
      <use x="124.658203" xlink:href="#DejaVuSans-116"/>
      <use x="163.867188" xlink:href="#DejaVuSans-105"/>
      <use x="191.650391" xlink:href="#DejaVuSans-109"/>
      <use x="289.0625" xlink:href="#DejaVuSans-105"/>
      <use x="316.845703" xlink:href="#DejaVuSans-122"/>
      <use x="369.335938" xlink:href="#DejaVuSans-101"/>
      <use x="430.859375" xlink:href="#DejaVuSans-100"/>
      <use x="494.335938" xlink:href="#DejaVuSans-32"/>
      <use x="526.123047" xlink:href="#DejaVuSans-112"/>
      <use x="589.599609" xlink:href="#DejaVuSans-97"/>
      <use x="650.878906" xlink:href="#DejaVuSans-114"/>
      <use x="691.992188" xlink:href="#DejaVuSans-97"/>
      <use x="753.271484" xlink:href="#DejaVuSans-109"/>
      <use x="850.683594" xlink:href="#DejaVuSans-101"/>
      <use x="912.207031" xlink:href="#DejaVuSans-116"/>
      <use x="951.416016" xlink:href="#DejaVuSans-101"/>
      <use x="1012.939453" xlink:href="#DejaVuSans-114"/>
      <use x="1054.052734" xlink:href="#DejaVuSans-115"/>
      <use x="1106.152344" xlink:href="#DejaVuSans-32"/>
      <use x="1137.939453" xlink:href="#DejaVuSans-40"/>
      <use x="1176.953125" xlink:href="#DejaVuSans-97"/>
      <use x="1238.232422" xlink:href="#DejaVuSans-46"/>
      <use x="1270.019531" xlink:href="#DejaVuSans-117"/>
      <use x="1333.398438" xlink:href="#DejaVuSans-46"/>
      <use x="1365.185547" xlink:href="#DejaVuSans-41"/>
     </g>
    </g>
   </g>
   <g id="line2d_49">
    <path clip-path="url(#pc16267f4b2)" d="M 62.871028 229.041909 
L 66.673877 234.739409 
L 70.476725 239.498608 
L 74.279574 243.661326 
L 78.082422 247.213871 
L 81.88527 250.40052 
L 85.688119 253.202075 
L 89.490967 255.832228 
L 93.293815 258.10533 
L 97.096664 260.115101 
L 100.899512 261.868767 
L 104.70236 263.476436 
L 108.505209 264.99849 
L 112.308057 266.329256 
L 116.110906 267.510199 
L 119.913754 268.613469 
L 123.716602 269.584808 
L 127.519451 270.47578 
L 131.322299 271.280777 
L 135.125147 272.135357 
L 138.927996 272.886161 
L 142.730844 273.553196 
L 146.533692 274.104843 
L 150.336541 274.634091 
L 154.139389 275.103236 
L 157.942238 275.521878 
L 161.745086 275.909071 
L 165.547934 276.255447 
L 169.350783 276.585485 
L 173.153631 276.879095 
L 176.956479 277.151074 
L 180.759328 277.393367 
L 184.562176 277.635414 
L 188.365024 277.850524 
L 192.167873 278.022363 
L 195.970721 278.202407 
L 199.77357 278.362419 
L 203.576418 278.512443 
L 207.379266 278.6453 
L 211.182115 278.785218 
L 214.984963 278.908087 
L 218.787811 279.016485 
L 222.59066 279.110594 
L 226.393508 279.201547 
L 230.196356 279.280949 
L 233.999205 279.363782 
L 237.802053 279.43577 
L 241.604902 279.497138 
L 245.40775 279.56225 
L 249.210598 279.618257 
" style="fill:none;stroke:#f77189;stroke-linecap:round;stroke-width:1.2;"/>
   </g>
   <g id="line2d_50">
    <path clip-path="url(#pc16267f4b2)" d="M 62.871028 337.67435 
L 66.673877 342.223537 
L 70.476725 345.258162 
L 74.279574 348.25313 
L 78.082422 348.383513 
L 81.88527 348.918065 
L 85.688119 345.043389 
L 89.490967 347.378748 
L 93.293815 348.335094 
L 97.096664 348.494615 
L 100.899512 348.915875 
L 104.70236 346.587614 
L 108.505209 348.114725 
L 112.308057 348.920091 
L 116.110906 347.914962 
L 119.913754 348.917086 
L 123.716602 348.779642 
L 127.519451 348.916252 
L 131.322299 344.573751 
L 135.125147 345.488793 
L 138.927996 346.230287 
L 142.730844 346.899165 
L 146.533692 347.488028 
L 150.336541 348.042044 
L 154.139389 348.547978 
L 157.942238 348.389343 
L 161.745086 348.801375 
L 165.547934 348.270965 
L 169.350783 348.657028 
L 173.153631 348.576948 
L 176.956479 348.917331 
L 180.759328 348.053419 
L 184.562176 348.360155 
L 188.365024 348.714925 
L 192.167873 348.574257 
L 195.970721 348.853049 
L 199.77357 348.679492 
L 203.576418 348.916103 
L 207.379266 348.090782 
L 211.182115 348.304843 
L 214.984963 348.54153 
L 218.787811 348.861462 
L 222.59066 348.613385 
L 226.393508 348.849925 
L 230.196356 348.350541 
L 233.999205 348.531964 
L 237.802053 348.800696 
L 241.604902 348.383444 
L 245.40775 348.548698 
L 249.210598 348.808194 
" style="fill:none;stroke:#bb9832;stroke-linecap:round;stroke-width:1.2;"/>
   </g>
   <g id="line2d_51">
    <path clip-path="url(#pc16267f4b2)" d="M 62.871028 260.601258 
L 66.673877 265.554067 
L 70.476725 269.73067 
L 74.279574 273.511821 
L 78.082422 277.051355 
L 81.88527 280.221705 
L 85.688119 283.020748 
L 89.490967 285.569458 
L 93.293815 287.81364 
L 97.096664 289.832099 
L 100.899512 291.607386 
L 104.70236 293.222897 
L 108.505209 294.710192 
L 112.308057 296.026872 
L 116.110906 297.223455 
L 119.913754 298.31662 
L 123.716602 299.298515 
L 127.519451 300.192001 
L 131.322299 301.006337 
L 135.125147 301.846664 
L 138.927996 302.589333 
L 142.730844 303.251566 
L 146.533692 303.840469 
L 150.336541 304.368841 
L 154.139389 304.839225 
L 157.942238 305.26057 
L 161.745086 305.649943 
L 165.547934 305.999709 
L 169.350783 306.331704 
L 173.153631 306.627804 
L 176.956479 306.902027 
L 180.759328 307.146479 
L 184.562176 307.389991 
L 188.365024 307.606685 
L 192.167873 307.780332 
L 195.970721 307.961849 
L 199.77357 308.123048 
L 203.576418 308.274157 
L 207.379266 308.450427 
L 211.182115 308.590708 
L 214.984963 308.714296 
L 218.787811 308.823274 
L 222.59066 308.917233 
L 226.393508 309.008486 
L 230.196356 309.087463 
L 233.999205 309.170561 
L 237.802053 309.242545 
L 241.604902 309.303322 
L 245.40775 309.368471 
L 249.210598 309.424228 
" style="fill:none;stroke:#50b131;stroke-linecap:round;stroke-width:1.2;"/>
   </g>
   <g id="line2d_52">
    <path clip-path="url(#pc16267f4b2)" d="M 62.871028 260.01455 
L 66.673877 265.719507 
L 70.476725 270.537103 
L 74.279574 274.691233 
L 78.082422 278.257685 
L 81.88527 281.410732 
L 85.688119 284.221192 
L 89.490967 286.835928 
L 93.293815 289.082621 
L 97.096664 291.057391 
L 100.899512 292.820634 
L 104.70236 294.433644 
L 108.505209 295.926777 
L 112.308057 297.224059 
L 116.110906 298.409134 
L 119.913754 299.521234 
L 123.716602 300.495894 
L 127.519451 301.392262 
L 131.322299 302.200161 
L 135.125147 303.067306 
L 138.927996 303.791988 
L 142.730844 304.469474 
L 146.533692 305.030762 
L 150.336541 305.567905 
L 154.139389 306.043634 
L 157.942238 306.467513 
L 161.745086 306.860359 
L 165.547934 307.210402 
L 169.350783 307.546466 
L 173.153631 307.844555 
L 176.956479 308.121452 
L 180.759328 308.364591 
L 184.562176 308.612996 
L 188.365024 308.833631 
L 192.167873 309.010026 
L 195.970721 309.194907 
L 199.77357 309.357657 
L 203.576418 309.511896 
L 207.379266 309.645324 
L 211.182115 309.79158 
L 214.984963 309.91995 
L 218.787811 310.033199 
L 222.59066 310.129779 
L 226.393508 310.225276 
L 230.196356 310.307282 
L 233.999205 310.395534 
L 237.802053 310.472244 
L 241.604902 310.536766 
L 245.40775 310.607236 
L 249.210598 310.667915 
" style="fill:none;stroke:#36ada4;stroke-linecap:round;stroke-width:1.2;"/>
   </g>
   <g id="patch_14">
    <path d="M 53.55405 354.914 
L 53.55405 223.048 
" style="fill:none;stroke:#cccccc;stroke-linecap:square;stroke-linejoin:miter;"/>
   </g>
   <g id="patch_15">
    <path d="M 258.527577 354.914 
L 258.527577 223.048 
" style="fill:none;stroke:#cccccc;stroke-linecap:square;stroke-linejoin:miter;"/>
   </g>
   <g id="patch_16">
    <path d="M 53.55405 354.914 
L 258.527577 354.914 
" style="fill:none;stroke:#cccccc;stroke-linecap:square;stroke-linejoin:miter;"/>
   </g>
   <g id="patch_17">
    <path d="M 53.55405 223.048 
L 258.527577 223.048 
" style="fill:none;stroke:#cccccc;stroke-linecap:square;stroke-linejoin:miter;"/>
   </g>
   <g id="text_48">
    <!-- parameters -->
    <g style="fill:#262626;" transform="translate(128.199313 217.048)scale(0.096 -0.096)">
     <use xlink:href="#DejaVuSans-112"/>
     <use x="63.476562" xlink:href="#DejaVuSans-97"/>
     <use x="124.755859" xlink:href="#DejaVuSans-114"/>
     <use x="165.869141" xlink:href="#DejaVuSans-97"/>
     <use x="227.148438" xlink:href="#DejaVuSans-109"/>
     <use x="324.560547" xlink:href="#DejaVuSans-101"/>
     <use x="386.083984" xlink:href="#DejaVuSans-116"/>
     <use x="425.292969" xlink:href="#DejaVuSans-101"/>
     <use x="486.816406" xlink:href="#DejaVuSans-114"/>
     <use x="527.929688" xlink:href="#DejaVuSans-115"/>
    </g>
   </g>
   <g id="legend_2">
    <g id="patch_18">
     <path d="M 217.431577 281.755 
L 252.367577 281.755 
Q 254.127577 281.755 254.127577 279.995 
L 254.127577 229.208 
Q 254.127577 227.448 252.367577 227.448 
L 217.431577 227.448 
Q 215.671577 227.448 215.671577 229.208 
L 215.671577 279.995 
Q 215.671577 281.755 217.431577 281.755 
z
" style="fill:#ffffff;opacity:0.8;stroke:#cccccc;stroke-linejoin:miter;stroke-width:0.8;"/>
    </g>
    <g id="line2d_53">
     <path d="M 219.191577 234.574625 
L 236.791577 234.574625 
" style="fill:none;stroke:#f77189;stroke-linecap:round;stroke-width:1.2;"/>
    </g>
    <g id="line2d_54"/>
    <g id="text_49">
     <!-- N -->
     <g style="fill:#262626;" transform="translate(243.831577 237.654625)scale(0.088 -0.088)">
      <use xlink:href="#DejaVuSans-78"/>
     </g>
    </g>
    <g id="line2d_55">
     <path d="M 219.191577 247.491375 
L 236.791577 247.491375 
" style="fill:none;stroke:#bb9832;stroke-linecap:round;stroke-width:1.2;"/>
    </g>
    <g id="line2d_56"/>
    <g id="text_50">
     <!-- P -->
     <g style="fill:#262626;" transform="translate(243.831577 250.571375)scale(0.088 -0.088)">
      <use xlink:href="#DejaVuSans-80"/>
     </g>
    </g>
    <g id="line2d_57">
     <path d="M 219.191577 260.408125 
L 236.791577 260.408125 
" style="fill:none;stroke:#50b131;stroke-linecap:round;stroke-width:1.2;"/>
    </g>
    <g id="line2d_58"/>
    <g id="text_51">
     <!-- Z -->
     <g style="fill:#262626;" transform="translate(243.831577 263.488125)scale(0.088 -0.088)">
      <use xlink:href="#DejaVuSans-90"/>
     </g>
    </g>
    <g id="line2d_59">
     <path d="M 219.191577 273.324875 
L 236.791577 273.324875 
" style="fill:none;stroke:#36ada4;stroke-linecap:round;stroke-width:1.2;"/>
    </g>
    <g id="line2d_60"/>
    <g id="text_52">
     <!-- D -->
     <g style="fill:#262626;" transform="translate(243.831577 276.404875)scale(0.088 -0.088)">
      <use xlink:href="#DejaVuSans-68"/>
     </g>
    </g>
   </g>
  </g>
  <g id="axes_4">
   <g id="patch_19">
    <path d="M 313.544197 354.914 
L 518.517724 354.914 
L 518.517724 223.048 
L 313.544197 223.048 
z
" style="fill:#ffffff;"/>
   </g>
   <g id="matplotlib.axis_7">
    <g id="xtick_19">
     <g id="line2d_61">
      <path clip-path="url(#p808290aa46)" d="M 322.861176 354.914 
L 322.861176 223.048 
" style="fill:none;stroke:#cccccc;stroke-linecap:round;stroke-width:0.8;"/>
     </g>
     <g id="text_53">
      <!-- 0 -->
      <g style="fill:#262626;" transform="translate(320.061676 369.900625)scale(0.088 -0.088)">
       <use xlink:href="#DejaVuSans-48"/>
      </g>
     </g>
    </g>
    <g id="xtick_20">
     <g id="line2d_62">
      <path clip-path="url(#p808290aa46)" d="M 362.934202 354.914 
L 362.934202 223.048 
" style="fill:none;stroke:#cccccc;stroke-linecap:round;stroke-width:0.8;"/>
     </g>
     <g id="text_54">
      <!-- 20 -->
      <g style="fill:#262626;" transform="translate(357.335202 369.900625)scale(0.088 -0.088)">
       <use xlink:href="#DejaVuSans-50"/>
       <use x="63.623047" xlink:href="#DejaVuSans-48"/>
      </g>
     </g>
    </g>
    <g id="xtick_21">
     <g id="line2d_63">
      <path clip-path="url(#p808290aa46)" d="M 403.007228 354.914 
L 403.007228 223.048 
" style="fill:none;stroke:#cccccc;stroke-linecap:round;stroke-width:0.8;"/>
     </g>
     <g id="text_55">
      <!-- 40 -->
      <g style="fill:#262626;" transform="translate(397.408228 369.900625)scale(0.088 -0.088)">
       <use xlink:href="#DejaVuSans-52"/>
       <use x="63.623047" xlink:href="#DejaVuSans-48"/>
      </g>
     </g>
    </g>
    <g id="xtick_22">
     <g id="line2d_64">
      <path clip-path="url(#p808290aa46)" d="M 443.080253 354.914 
L 443.080253 223.048 
" style="fill:none;stroke:#cccccc;stroke-linecap:round;stroke-width:0.8;"/>
     </g>
     <g id="text_56">
      <!-- 60 -->
      <g style="fill:#262626;" transform="translate(437.481253 369.900625)scale(0.088 -0.088)">
       <use xlink:href="#DejaVuSans-54"/>
       <use x="63.623047" xlink:href="#DejaVuSans-48"/>
      </g>
     </g>
    </g>
    <g id="xtick_23">
     <g id="line2d_65">
      <path clip-path="url(#p808290aa46)" d="M 483.153279 354.914 
L 483.153279 223.048 
" style="fill:none;stroke:#cccccc;stroke-linecap:round;stroke-width:0.8;"/>
     </g>
     <g id="text_57">
      <!-- 80 -->
      <g style="fill:#262626;" transform="translate(477.554279 369.900625)scale(0.088 -0.088)">
       <use xlink:href="#DejaVuSans-56"/>
       <use x="63.623047" xlink:href="#DejaVuSans-48"/>
      </g>
     </g>
    </g>
    <g id="text_58">
     <!-- Time (a.u.) -->
     <defs>
      <path d="M -0.296875 72.90625 
L 61.375 72.90625 
L 61.375 64.59375 
L 35.5 64.59375 
L 35.5 0 
L 25.59375 0 
L 25.59375 64.59375 
L -0.296875 64.59375 
z
" id="DejaVuSans-84"/>
     </defs>
     <g style="fill:#262626;" transform="translate(389.833461 383.02525)scale(0.096 -0.096)">
      <use xlink:href="#DejaVuSans-84"/>
      <use x="61.037109" xlink:href="#DejaVuSans-105"/>
      <use x="88.820312" xlink:href="#DejaVuSans-109"/>
      <use x="186.232422" xlink:href="#DejaVuSans-101"/>
      <use x="247.755859" xlink:href="#DejaVuSans-32"/>
      <use x="279.542969" xlink:href="#DejaVuSans-40"/>
      <use x="318.556641" xlink:href="#DejaVuSans-97"/>
      <use x="379.835938" xlink:href="#DejaVuSans-46"/>
      <use x="411.623047" xlink:href="#DejaVuSans-117"/>
      <use x="475.001953" xlink:href="#DejaVuSans-46"/>
      <use x="506.789062" xlink:href="#DejaVuSans-41"/>
     </g>
    </g>
   </g>
   <g id="matplotlib.axis_8">
    <g id="ytick_18">
     <g id="line2d_66">
      <path clip-path="url(#p808290aa46)" d="M 313.544197 349.410328 
L 518.517724 349.410328 
" style="fill:none;stroke:#cccccc;stroke-linecap:round;stroke-width:0.8;"/>
     </g>
     <g id="text_59">
      <!-- 0.00 -->
      <g style="fill:#262626;" transform="translate(285.650447 352.75364)scale(0.088 -0.088)">
       <use xlink:href="#DejaVuSans-48"/>
       <use x="63.623047" xlink:href="#DejaVuSans-46"/>
       <use x="95.410156" xlink:href="#DejaVuSans-48"/>
       <use x="159.033203" xlink:href="#DejaVuSans-48"/>
      </g>
     </g>
    </g>
    <g id="ytick_19">
     <g id="line2d_67">
      <path clip-path="url(#p808290aa46)" d="M 313.544197 328.467137 
L 518.517724 328.467137 
" style="fill:none;stroke:#cccccc;stroke-linecap:round;stroke-width:0.8;"/>
     </g>
     <g id="text_60">
      <!-- 0.25 -->
      <g style="fill:#262626;" transform="translate(285.650447 331.810449)scale(0.088 -0.088)">
       <use xlink:href="#DejaVuSans-48"/>
       <use x="63.623047" xlink:href="#DejaVuSans-46"/>
       <use x="95.410156" xlink:href="#DejaVuSans-50"/>
       <use x="159.033203" xlink:href="#DejaVuSans-53"/>
      </g>
     </g>
    </g>
    <g id="ytick_20">
     <g id="line2d_68">
      <path clip-path="url(#p808290aa46)" d="M 313.544197 307.523946 
L 518.517724 307.523946 
" style="fill:none;stroke:#cccccc;stroke-linecap:round;stroke-width:0.8;"/>
     </g>
     <g id="text_61">
      <!-- 0.50 -->
      <g style="fill:#262626;" transform="translate(285.650447 310.867259)scale(0.088 -0.088)">
       <use xlink:href="#DejaVuSans-48"/>
       <use x="63.623047" xlink:href="#DejaVuSans-46"/>
       <use x="95.410156" xlink:href="#DejaVuSans-53"/>
       <use x="159.033203" xlink:href="#DejaVuSans-48"/>
      </g>
     </g>
    </g>
    <g id="ytick_21">
     <g id="line2d_69">
      <path clip-path="url(#p808290aa46)" d="M 313.544197 286.580755 
L 518.517724 286.580755 
" style="fill:none;stroke:#cccccc;stroke-linecap:round;stroke-width:0.8;"/>
     </g>
     <g id="text_62">
      <!-- 0.75 -->
      <defs>
       <path d="M 8.203125 72.90625 
L 55.078125 72.90625 
L 55.078125 68.703125 
L 28.609375 0 
L 18.3125 0 
L 43.21875 64.59375 
L 8.203125 64.59375 
z
" id="DejaVuSans-55"/>
      </defs>
      <g style="fill:#262626;" transform="translate(285.650447 289.924068)scale(0.088 -0.088)">
       <use xlink:href="#DejaVuSans-48"/>
       <use x="63.623047" xlink:href="#DejaVuSans-46"/>
       <use x="95.410156" xlink:href="#DejaVuSans-55"/>
       <use x="159.033203" xlink:href="#DejaVuSans-53"/>
      </g>
     </g>
    </g>
    <g id="ytick_22">
     <g id="line2d_70">
      <path clip-path="url(#p808290aa46)" d="M 313.544197 265.637564 
L 518.517724 265.637564 
" style="fill:none;stroke:#cccccc;stroke-linecap:round;stroke-width:0.8;"/>
     </g>
     <g id="text_63">
      <!-- 1.00 -->
      <g style="fill:#262626;" transform="translate(285.650447 268.980877)scale(0.088 -0.088)">
       <use xlink:href="#DejaVuSans-49"/>
       <use x="63.623047" xlink:href="#DejaVuSans-46"/>
       <use x="95.410156" xlink:href="#DejaVuSans-48"/>
       <use x="159.033203" xlink:href="#DejaVuSans-48"/>
      </g>
     </g>
    </g>
    <g id="ytick_23">
     <g id="line2d_71">
      <path clip-path="url(#p808290aa46)" d="M 313.544197 244.694374 
L 518.517724 244.694374 
" style="fill:none;stroke:#cccccc;stroke-linecap:round;stroke-width:0.8;"/>
     </g>
     <g id="text_64">
      <!-- 1.25 -->
      <g style="fill:#262626;" transform="translate(285.650447 248.037686)scale(0.088 -0.088)">
       <use xlink:href="#DejaVuSans-49"/>
       <use x="63.623047" xlink:href="#DejaVuSans-46"/>
       <use x="95.410156" xlink:href="#DejaVuSans-50"/>
       <use x="159.033203" xlink:href="#DejaVuSans-53"/>
      </g>
     </g>
    </g>
    <g id="ytick_24">
     <g id="line2d_72">
      <path clip-path="url(#p808290aa46)" d="M 313.544197 223.751183 
L 518.517724 223.751183 
" style="fill:none;stroke:#cccccc;stroke-linecap:round;stroke-width:0.8;"/>
     </g>
     <g id="text_65">
      <!-- 1.50 -->
      <g style="fill:#262626;" transform="translate(285.650447 227.094495)scale(0.088 -0.088)">
       <use xlink:href="#DejaVuSans-49"/>
       <use x="63.623047" xlink:href="#DejaVuSans-46"/>
       <use x="95.410156" xlink:href="#DejaVuSans-53"/>
       <use x="159.033203" xlink:href="#DejaVuSans-48"/>
      </g>
     </g>
    </g>
    <g id="text_66">
     <!-- Model output (a.u.) -->
     <g style="fill:#262626;" transform="translate(279.653947 335.0565)rotate(-90)scale(0.096 -0.096)">
      <use xlink:href="#DejaVuSans-77"/>
      <use x="86.279297" xlink:href="#DejaVuSans-111"/>
      <use x="147.460938" xlink:href="#DejaVuSans-100"/>
      <use x="210.9375" xlink:href="#DejaVuSans-101"/>
      <use x="272.460938" xlink:href="#DejaVuSans-108"/>
      <use x="300.244141" xlink:href="#DejaVuSans-32"/>
      <use x="332.03125" xlink:href="#DejaVuSans-111"/>
      <use x="393.212891" xlink:href="#DejaVuSans-117"/>
      <use x="456.591797" xlink:href="#DejaVuSans-116"/>
      <use x="495.800781" xlink:href="#DejaVuSans-112"/>
      <use x="559.277344" xlink:href="#DejaVuSans-117"/>
      <use x="622.65625" xlink:href="#DejaVuSans-116"/>
      <use x="661.865234" xlink:href="#DejaVuSans-32"/>
      <use x="693.652344" xlink:href="#DejaVuSans-40"/>
      <use x="732.666016" xlink:href="#DejaVuSans-97"/>
      <use x="793.945312" xlink:href="#DejaVuSans-46"/>
      <use x="825.732422" xlink:href="#DejaVuSans-117"/>
      <use x="889.111328" xlink:href="#DejaVuSans-46"/>
      <use x="920.898438" xlink:href="#DejaVuSans-41"/>
     </g>
    </g>
   </g>
   <g id="line2d_73">
    <path clip-path="url(#p808290aa46)" d="M 322.861176 257.916467 
L 326.668113 253.630239 
L 330.475051 249.691927 
L 334.081623 246.27018 
L 337.688196 243.142474 
L 341.294768 240.306328 
L 344.700975 237.897059 
L 348.107182 235.754485 
L 351.313024 233.988841 
L 354.518866 232.475577 
L 357.524343 231.295279 
L 360.52982 230.354775 
L 363.334932 229.700721 
L 366.140044 229.268427 
L 368.945156 229.061402 
L 371.750267 229.080246 
L 374.555379 229.321858 
L 377.360491 229.77882 
L 380.365968 230.493545 
L 383.57181 231.489372 
L 387.178382 232.857793 
L 391.185685 234.621699 
L 396.595543 237.267802 
L 412.023658 244.967144 
L 417.433517 247.34555 
L 422.64301 249.398769 
L 427.852503 251.216399 
L 433.262362 252.867733 
L 438.872586 254.349395 
L 444.883539 255.707343 
L 451.495589 256.965967 
L 458.708733 258.103982 
L 466.723338 259.133466 
L 475.539404 260.037638 
L 485.557661 260.838829 
L 497.178838 261.539845 
L 509.200746 262.074254 
L 509.200746 262.074254 
" style="fill:none;stroke:#f77189;stroke-linecap:round;stroke-width:1.2;"/>
   </g>
   <g id="line2d_74">
    <path clip-path="url(#p808290aa46)" d="M 322.861176 348.920091 
L 332.879432 348.518393 
L 340.693672 347.985135 
L 347.305722 347.311069 
L 353.316676 346.471166 
L 359.127264 345.427637 
L 365.138218 344.117808 
L 373.553554 342.027284 
L 381.968889 339.995849 
L 386.978017 339.01509 
L 391.38605 338.375861 
L 395.593718 337.986829 
L 400.001751 337.806487 
L 404.810514 337.839137 
L 410.621102 338.113497 
L 419.236803 338.770906 
L 439.072951 340.328266 
L 451.295224 341.023984 
L 464.920052 341.57128 
L 481.550358 342.00826 
L 503.189792 342.342632 
L 509.200746 342.405225 
L 509.200746 342.405225 
" style="fill:none;stroke:#bb9832;stroke-linecap:round;stroke-width:1.2;"/>
   </g>
   <g id="line2d_75">
    <path clip-path="url(#p808290aa46)" d="M 322.861176 297.235409 
L 335.083449 300.287732 
L 345.30207 302.622281 
L 353.11631 304.18903 
L 359.127264 305.173915 
L 363.936027 305.74869 
L 368.143695 306.036706 
L 371.950633 306.077961 
L 375.557205 305.888147 
L 378.963412 305.478126 
L 382.169254 304.872181 
L 385.375096 304.047365 
L 388.781303 302.93672 
L 392.387876 301.518834 
L 396.395178 299.697888 
L 401.404306 297.16289 
L 419.637533 287.686731 
L 424.847027 285.358205 
L 429.856155 283.35517 
L 435.065648 281.515245 
L 440.275141 279.907871 
L 445.885365 278.411637 
L 451.896319 277.045561 
L 458.308003 275.819662 
L 465.320783 274.707599 
L 473.135023 273.69896 
L 481.951088 272.794021 
L 491.969345 271.998674 
L 503.390157 271.319725 
L 509.200746 271.046398 
L 509.200746 271.046398 
" style="fill:none;stroke:#50b131;stroke-linecap:round;stroke-width:1.2;"/>
   </g>
   <g id="line2d_76">
    <path clip-path="url(#p808290aa46)" d="M 322.861176 298.869528 
L 326.668113 302.304117 
L 330.475051 305.446053 
L 334.482353 308.461841 
L 338.489656 311.201264 
L 342.697324 313.80202 
L 346.904991 316.139694 
L 351.112659 318.2306 
L 355.520692 320.170907 
L 359.928725 321.867498 
L 364.336758 323.330866 
L 368.945156 324.621969 
L 373.553554 325.680829 
L 378.362317 326.554009 
L 383.371445 327.23471 
L 388.781303 327.742103 
L 394.992622 328.089378 
L 402.406132 328.268439 
L 412.624754 328.275613 
L 435.466378 328.00148 
L 474.537578 327.607675 
L 509.200746 327.415618 
L 509.200746 327.415618 
" style="fill:none;stroke:#36ada4;stroke-linecap:round;stroke-width:1.2;"/>
   </g>
   <g id="patch_20">
    <path d="M 313.544197 354.914 
L 313.544197 223.048 
" style="fill:none;stroke:#cccccc;stroke-linecap:square;stroke-linejoin:miter;"/>
   </g>
   <g id="patch_21">
    <path d="M 518.517724 354.914 
L 518.517724 223.048 
" style="fill:none;stroke:#cccccc;stroke-linecap:square;stroke-linejoin:miter;"/>
   </g>
   <g id="patch_22">
    <path d="M 313.544197 354.914 
L 518.517724 354.914 
" style="fill:none;stroke:#cccccc;stroke-linecap:square;stroke-linejoin:miter;"/>
   </g>
   <g id="patch_23">
    <path d="M 313.544197 223.048 
L 518.517724 223.048 
" style="fill:none;stroke:#cccccc;stroke-linecap:square;stroke-linejoin:miter;"/>
   </g>
   <g id="text_67">
    <!-- optimized model -->
    <g style="fill:#262626;" transform="translate(375.830211 217.048)scale(0.096 -0.096)">
     <use xlink:href="#DejaVuSans-111"/>
     <use x="61.181641" xlink:href="#DejaVuSans-112"/>
     <use x="124.658203" xlink:href="#DejaVuSans-116"/>
     <use x="163.867188" xlink:href="#DejaVuSans-105"/>
     <use x="191.650391" xlink:href="#DejaVuSans-109"/>
     <use x="289.0625" xlink:href="#DejaVuSans-105"/>
     <use x="316.845703" xlink:href="#DejaVuSans-122"/>
     <use x="369.335938" xlink:href="#DejaVuSans-101"/>
     <use x="430.859375" xlink:href="#DejaVuSans-100"/>
     <use x="494.335938" xlink:href="#DejaVuSans-32"/>
     <use x="526.123047" xlink:href="#DejaVuSans-109"/>
     <use x="623.535156" xlink:href="#DejaVuSans-111"/>
     <use x="684.716797" xlink:href="#DejaVuSans-100"/>
     <use x="748.193359" xlink:href="#DejaVuSans-101"/>
     <use x="809.716797" xlink:href="#DejaVuSans-108"/>
    </g>
   </g>
   <g id="legend_3">
    <g id="patch_24">
     <path d="M 319.704197 281.755 
L 354.640197 281.755 
Q 356.400197 281.755 356.400197 279.995 
L 356.400197 229.208 
Q 356.400197 227.448 354.640197 227.448 
L 319.704197 227.448 
Q 317.944197 227.448 317.944197 229.208 
L 317.944197 279.995 
Q 317.944197 281.755 319.704197 281.755 
z
" style="fill:#ffffff;opacity:0.8;stroke:#cccccc;stroke-linejoin:miter;stroke-width:0.8;"/>
    </g>
    <g id="line2d_77">
     <path d="M 321.464197 234.574625 
L 339.064197 234.574625 
" style="fill:none;stroke:#f77189;stroke-linecap:round;stroke-width:1.2;"/>
    </g>
    <g id="line2d_78"/>
    <g id="text_68">
     <!-- N -->
     <g style="fill:#262626;" transform="translate(346.104197 237.654625)scale(0.088 -0.088)">
      <use xlink:href="#DejaVuSans-78"/>
     </g>
    </g>
    <g id="line2d_79">
     <path d="M 321.464197 247.491375 
L 339.064197 247.491375 
" style="fill:none;stroke:#bb9832;stroke-linecap:round;stroke-width:1.2;"/>
    </g>
    <g id="line2d_80"/>
    <g id="text_69">
     <!-- P -->
     <g style="fill:#262626;" transform="translate(346.104197 250.571375)scale(0.088 -0.088)">
      <use xlink:href="#DejaVuSans-80"/>
     </g>
    </g>
    <g id="line2d_81">
     <path d="M 321.464197 260.408125 
L 339.064197 260.408125 
" style="fill:none;stroke:#50b131;stroke-linecap:round;stroke-width:1.2;"/>
    </g>
    <g id="line2d_82"/>
    <g id="text_70">
     <!-- Z -->
     <g style="fill:#262626;" transform="translate(346.104197 263.488125)scale(0.088 -0.088)">
      <use xlink:href="#DejaVuSans-90"/>
     </g>
    </g>
    <g id="line2d_83">
     <path d="M 321.464197 273.324875 
L 339.064197 273.324875 
" style="fill:none;stroke:#36ada4;stroke-linecap:round;stroke-width:1.2;"/>
    </g>
    <g id="line2d_84"/>
    <g id="text_71">
     <!-- D -->
     <g style="fill:#262626;" transform="translate(346.104197 276.404875)scale(0.088 -0.088)">
      <use xlink:href="#DejaVuSans-68"/>
     </g>
    </g>
   </g>
  </g>
  <g id="text_72">
   <!-- Results of optimization run -->
   <defs>
    <path d="M 44.390625 34.1875 
Q 47.5625 33.109375 50.5625 29.59375 
Q 53.5625 26.078125 56.59375 19.921875 
L 66.609375 0 
L 56 0 
L 46.6875 18.703125 
Q 43.0625 26.03125 39.671875 28.421875 
Q 36.28125 30.8125 30.421875 30.8125 
L 19.671875 30.8125 
L 19.671875 0 
L 9.8125 0 
L 9.8125 72.90625 
L 32.078125 72.90625 
Q 44.578125 72.90625 50.734375 67.671875 
Q 56.890625 62.453125 56.890625 51.90625 
Q 56.890625 45.015625 53.6875 40.46875 
Q 50.484375 35.9375 44.390625 34.1875 
z
M 19.671875 64.796875 
L 19.671875 38.921875 
L 32.078125 38.921875 
Q 39.203125 38.921875 42.84375 42.21875 
Q 46.484375 45.515625 46.484375 51.90625 
Q 46.484375 58.296875 42.84375 61.546875 
Q 39.203125 64.796875 32.078125 64.796875 
z
" id="DejaVuSans-82"/>
   </defs>
   <g style="fill:#262626;" transform="translate(190.2384 16.8174)scale(0.1152 -0.1152)">
    <use xlink:href="#DejaVuSans-82"/>
    <use x="69.419922" xlink:href="#DejaVuSans-101"/>
    <use x="130.943359" xlink:href="#DejaVuSans-115"/>
    <use x="183.042969" xlink:href="#DejaVuSans-117"/>
    <use x="246.421875" xlink:href="#DejaVuSans-108"/>
    <use x="274.205078" xlink:href="#DejaVuSans-116"/>
    <use x="313.414062" xlink:href="#DejaVuSans-115"/>
    <use x="365.513672" xlink:href="#DejaVuSans-32"/>
    <use x="397.300781" xlink:href="#DejaVuSans-111"/>
    <use x="458.482422" xlink:href="#DejaVuSans-102"/>
    <use x="493.6875" xlink:href="#DejaVuSans-32"/>
    <use x="525.474609" xlink:href="#DejaVuSans-111"/>
    <use x="586.65625" xlink:href="#DejaVuSans-112"/>
    <use x="650.132812" xlink:href="#DejaVuSans-116"/>
    <use x="689.341797" xlink:href="#DejaVuSans-105"/>
    <use x="717.125" xlink:href="#DejaVuSans-109"/>
    <use x="814.537109" xlink:href="#DejaVuSans-105"/>
    <use x="842.320312" xlink:href="#DejaVuSans-122"/>
    <use x="894.810547" xlink:href="#DejaVuSans-97"/>
    <use x="956.089844" xlink:href="#DejaVuSans-116"/>
    <use x="995.298828" xlink:href="#DejaVuSans-105"/>
    <use x="1023.082031" xlink:href="#DejaVuSans-111"/>
    <use x="1084.263672" xlink:href="#DejaVuSans-110"/>
    <use x="1147.642578" xlink:href="#DejaVuSans-32"/>
    <use x="1179.429688" xlink:href="#DejaVuSans-114"/>
    <use x="1220.542969" xlink:href="#DejaVuSans-117"/>
    <use x="1283.921875" xlink:href="#DejaVuSans-110"/>
   </g>
  </g>
 </g>
 <defs>
  <clipPath id="p78322bcb1e">
   <rect height="131.866" width="204.973527" x="53.55405" y="27.496"/>
  </clipPath>
  <clipPath id="p68624ebab2">
   <rect height="131.866" width="204.973527" x="313.544197" y="27.496"/>
  </clipPath>
  <clipPath id="pc16267f4b2">
   <rect height="131.866" width="204.973527" x="53.55405" y="223.048"/>
  </clipPath>
  <clipPath id="p808290aa46">
   <rect height="131.866" width="204.973527" x="313.544197" y="223.048"/>
  </clipPath>
 </defs>
</svg>
